  0
SECTION
  2
HEADER
  9
$ACADVER
  1
AC1014
  9
$HANDSEED
  5
FFFF
  9
$MEASUREMENT
 70
     1
  0
ENDSEC
  0
SECTION
  2
TABLES
  0
TABLE
  2
VPORT
  5
8
330
0
100
AcDbSymbolTable
 70
     4
  0
VPORT
  5
2E
330
8
100
AcDbSymbolTableRecord
100
AcDbViewportTableRecord
  2
*ACTIVE
 70
     0
 10
0.0
 20
0.0
 11
1.0
 21
1.0
 12
210.0
 22
148.5
 13
0.0
 23
0.0
 14
10.0
 24
10.0
 15
10.0
 25
10.0
 16
0.0
 26
0.0
 36
1.0
 17
0.0
 27
0.0
 37
0.0
 40
341.0
 41
1.24
 42
50.0
 43
0.0
 44
0.0
 50
0.0
 51
0.0
 71
     0
 72
   100
 73
     1
 74
     3
 75
     0
 76
     0
 77
     0
 78
     0
  0
ENDTAB
  0
TABLE
  2
LTYPE
  5
5
330
0
100
AcDbSymbolTable
 70
     1
  0
LTYPE
  5
14
330
5
100
AcDbSymbolTableRecord
100
AcDbLinetypeTableRecord
  2
BYBLOCK
 70
     0
  3

 72
    65
 73
     0
 40
0.0
  0
LTYPE
  5
15
330
5
100
AcDbSymbolTableRecord
100
AcDbLinetypeTableRecord
  2
BYLAYER
 70
     0
  3

 72
    65
 73
     0
 40
0.0
  0
LTYPE
  5
16
330
5
100
AcDbSymbolTableRecord
100
AcDbLinetypeTableRecord
  2
CONTINUOUS
 70
     0
  3
Solid line
 72
    65
 73
     0
 40
0.0
  0
ENDTAB
  0
TABLE
  2
LAYER
  5
2
100
AcDbSymbolTable
 70
9
  0
LAYER
  5
50
100
AcDbSymbolTableRecord
100
AcDbLayerTableRecord
  2
0
 70
0
  6
CONTINUOUS
  0
LAYER
  5
51
100
AcDbSymbolTableRecord
100
AcDbLayerTableRecord
  2
Base
 70
0
  6
CONTINUOUS
  0
LAYER
  5
52
100
AcDbSymbolTableRecord
100
AcDbLayerTableRecord
  2
ScanBottom
 70
0
  6
CONTINUOUS
  0
LAYER
  5
53
100
AcDbSymbolTableRecord
100
AcDbLayerTableRecord
  2
ScanTop
 70
0
  6
CONTINUOUS
  0
LAYER
  5
54
100
AcDbSymbolTableRecord
100
AcDbLayerTableRecord
  2
PistasBottom
 70
0
  6
CONTINUOUS
  0
LAYER
  5
55
100
AcDbSymbolTableRecord
100
AcDbLayerTableRecord
  2
PistasTop
 70
0
  6
CONTINUOUS
  0
LAYER
  5
56
100
AcDbSymbolTableRecord
100
AcDbLayerTableRecord
  2
ViasTop
 70
0
  6
CONTINUOUS
  0
LAYER
  5
57
100
AcDbSymbolTableRecord
100
AcDbLayerTableRecord
  2
Borde
 70
0
  6
CONTINUOUS
  0
LAYER
  5
58
100
AcDbSymbolTableRecord
100
AcDbLayerTableRecord
  2
Holes
 70
0
  6
CONTINUOUS
  0
ENDTAB
  0
TABLE
  2
STYLE
  5
3
330
0
100
AcDbSymbolTable
 70
     1
  0
STYLE
  5
11
330
3
100
AcDbSymbolTableRecord
100
AcDbTextStyleTableRecord
  2
STANDARD
 70
     0
 40
0.0
 41
1.0
 50
0.0
 71
     0
 42
2.5
  3
txt
  4

  0
ENDTAB
  0
TABLE
  2
VIEW
  5
6
330
0
100
AcDbSymbolTable
 70
     0
  0
ENDTAB
  0
TABLE
  2
UCS
  5
7
330
0
100
AcDbSymbolTable
 70
     0
  0
ENDTAB
  0
TABLE
  2
APPID
  5
9
330
0
100
AcDbSymbolTable
 70
     2
  0
APPID
  5
12
330
9
100
AcDbSymbolTableRecord
100
AcDbRegAppTableRecord
  2
ACAD
 70
     0
  0
ENDTAB
  0
TABLE
  2
DIMSTYLE
  5
A
330
0
100
AcDbSymbolTable
 70
     1
  0
DIMSTYLE
105
27
330
A
100
AcDbSymbolTableRecord
100
AcDbDimStyleTableRecord
  2
ISO-25
 70
     0
  3

  4

  5

  6

  7

 40
1.0
 41
2.5
 42
0.625
 43
3.75
 44
1.25
 45
0.0
 46
0.0
 47
0.0
 48
0.0
140
2.5
141
2.5
142
0.0
143
0.03937007874016
144
1.0
145
0.0
146
1.0
147
0.625
 71
     0
 72
     0
 73
     0
 74
     0
 75
     0
 76
     0
 77
     1
 78
     8
170
     0
171
     3
172
     1
173
     0
174
     0
175
     0
176
     0
177
     0
178
     0
270
     2
271
     2
272
     2
273
     2
274
     3
340
11
275
     0
280
     0
281
     0
282
     0
283
     0
284
     8
285
     0
286
     0
287
     3
288
     0
  0
ENDTAB
  0
TABLE
  2
BLOCK_RECORD
  5
1
330
0
100
AcDbSymbolTable
 70
     1
  0
BLOCK_RECORD
  5
1F
330
1
100
AcDbSymbolTableRecord
100
AcDbBlockTableRecord
  2
*MODEL_SPACE
  0
BLOCK_RECORD
  5
1B
330
1
100
AcDbSymbolTableRecord
100
AcDbBlockTableRecord
  2
*PAPER_SPACE
  0
ENDTAB
  0
ENDSEC
  0
SECTION
  2
BLOCKS
  0
BLOCK
  5
20
330
1F
100
AcDbEntity
  8
0
100
AcDbBlockBegin
  2
*MODEL_SPACE
 70
     0
 10
0.0
 20
0.0
 30
0.0
  3
*MODEL_SPACE
  1

  0
ENDBLK
  5
21
330
1F
100
AcDbEntity
  8
0
100
AcDbBlockEnd
  0
BLOCK
  5
1C
330
1B
100
AcDbEntity
 67
     1
  8
0
100
AcDbBlockBegin
  2
*PAPER_SPACE
  1

  0
ENDBLK
  5
1D
330
1B
100
AcDbEntity
 67
     1
  8
0
100
AcDbBlockEnd
  0
ENDSEC
  0
SECTION
  2
ENTITIES
  0
LINE
  5
100
100
AcDbEntity
  8
Holes
 62
7
100
AcDbLine
 10
4.531750
 20
61.314244
 30
0.0
 11
3.249311
 21
61.867102
 31
0.0
  0
LINE
  5
101
100
AcDbEntity
  8
Holes
 62
7
100
AcDbLine
 10
3.249311
 20
61.867102
 30
0.0
 11
2.733409
 21
63.164850
 31
0.0
  0
LINE
  5
102
100
AcDbEntity
  8
Holes
 62
7
100
AcDbLine
 10
2.733409
 20
63.164850
 30
0.0
 11
3.286256
 21
64.447290
 31
0.0
  0
LINE
  5
103
100
AcDbEntity
  8
Holes
 62
7
100
AcDbLine
 10
3.286256
 20
64.447290
 30
0.0
 11
4.584006
 21
64.963196
 31
0.0
  0
LINE
  5
104
100
AcDbEntity
  8
Holes
 62
7
100
AcDbLine
 10
4.584006
 20
64.963196
 30
0.0
 11
5.866445
 21
64.410338
 31
0.0
  0
LINE
  5
105
100
AcDbEntity
  8
Holes
 62
7
100
AcDbLine
 10
5.866445
 20
64.410338
 30
0.0
 11
6.382347
 21
63.112591
 31
0.0
  0
LINE
  5
106
100
AcDbEntity
  8
Holes
 62
7
100
AcDbLine
 10
6.382347
 20
63.112591
 30
0.0
 11
5.829496
 21
61.830142
 31
0.0
  0
LINE
  5
107
100
AcDbEntity
  8
Holes
 62
7
100
AcDbLine
 10
5.829496
 20
61.830142
 30
0.0
 11
4.531750
 21
61.314244
 31
0.0
  0
LINE
  5
108
100
AcDbEntity
  8
Holes
 62
1
100
AcDbLine
 10
4.584000
 20
64.963184
 30
0.0
 11
4.531749
 21
61.314244
 31
0.0
  0
LINE
  5
109
100
AcDbEntity
  8
Holes
 62
1
100
AcDbLine
 10
6.382345
 20
63.112584
 30
0.0
 11
2.733404
 21
63.164884
 31
0.0
  0
LINE
  5
10a
100
AcDbEntity
  8
Holes
 62
7
100
AcDbLine
 10
4.533813
 20
2.903324
 30
0.0
 11
3.251374
 21
3.456182
 31
0.0
  0
LINE
  5
10b
100
AcDbEntity
  8
Holes
 62
7
100
AcDbLine
 10
3.251374
 20
3.456182
 30
0.0
 11
2.735472
 21
4.753930
 31
0.0
  0
LINE
  5
10c
100
AcDbEntity
  8
Holes
 62
7
100
AcDbLine
 10
2.735472
 20
4.753930
 30
0.0
 11
3.288319
 21
6.036370
 31
0.0
  0
LINE
  5
10d
100
AcDbEntity
  8
Holes
 62
7
100
AcDbLine
 10
3.288319
 20
6.036370
 30
0.0
 11
4.586069
 21
6.552276
 31
0.0
  0
LINE
  5
10e
100
AcDbEntity
  8
Holes
 62
7
100
AcDbLine
 10
4.586069
 20
6.552276
 30
0.0
 11
5.868508
 21
5.999418
 31
0.0
  0
LINE
  5
10f
100
AcDbEntity
  8
Holes
 62
7
100
AcDbLine
 10
5.868508
 20
5.999418
 30
0.0
 11
6.384410
 21
4.701671
 31
0.0
  0
LINE
  5
110
100
AcDbEntity
  8
Holes
 62
7
100
AcDbLine
 10
6.384410
 20
4.701671
 30
0.0
 11
5.831559
 21
3.419222
 31
0.0
  0
LINE
  5
111
100
AcDbEntity
  8
Holes
 62
7
100
AcDbLine
 10
5.831559
 20
3.419222
 30
0.0
 11
4.533813
 21
2.903324
 31
0.0
  0
LINE
  5
112
100
AcDbEntity
  8
Holes
 62
1
100
AcDbLine
 10
4.586063
 20
6.552264
 30
0.0
 11
4.533812
 21
2.903324
 31
0.0
  0
LINE
  5
113
100
AcDbEntity
  8
Holes
 62
1
100
AcDbLine
 10
6.384408
 20
4.701664
 30
0.0
 11
2.735467
 21
4.753964
 31
0.0
  0
LINE
  5
114
100
AcDbEntity
  8
Holes
 62
7
100
AcDbLine
 10
4.447398
 20
119.461324
 30
0.0
 11
3.164959
 21
120.014182
 31
0.0
  0
LINE
  5
115
100
AcDbEntity
  8
Holes
 62
7
100
AcDbLine
 10
3.164959
 20
120.014182
 30
0.0
 11
2.649057
 21
121.311930
 31
0.0
  0
LINE
  5
116
100
AcDbEntity
  8
Holes
 62
7
100
AcDbLine
 10
2.649057
 20
121.311930
 30
0.0
 11
3.201904
 21
122.594370
 31
0.0
  0
LINE
  5
117
100
AcDbEntity
  8
Holes
 62
7
100
AcDbLine
 10
3.201904
 20
122.594370
 30
0.0
 11
4.499654
 21
123.110276
 31
0.0
  0
LINE
  5
118
100
AcDbEntity
  8
Holes
 62
7
100
AcDbLine
 10
4.499654
 20
123.110276
 30
0.0
 11
5.782093
 21
122.557418
 31
0.0
  0
LINE
  5
119
100
AcDbEntity
  8
Holes
 62
7
100
AcDbLine
 10
5.782093
 20
122.557418
 30
0.0
 11
6.297995
 21
121.259671
 31
0.0
  0
LINE
  5
11a
100
AcDbEntity
  8
Holes
 62
7
100
AcDbLine
 10
6.297995
 20
121.259671
 30
0.0
 11
5.745144
 21
119.977222
 31
0.0
  0
LINE
  5
11b
100
AcDbEntity
  8
Holes
 62
7
100
AcDbLine
 10
5.745144
 20
119.977222
 30
0.0
 11
4.447398
 21
119.461324
 31
0.0
  0
LINE
  5
11c
100
AcDbEntity
  8
Holes
 62
1
100
AcDbLine
 10
4.499648
 20
123.110264
 30
0.0
 11
4.447397
 21
119.461324
 31
0.0
  0
LINE
  5
11d
100
AcDbEntity
  8
Holes
 62
1
100
AcDbLine
 10
6.297993
 20
121.259664
 30
0.0
 11
2.649052
 21
121.311964
 31
0.0
  0
LINE
  5
11e
100
AcDbEntity
  8
Holes
 62
7
100
AcDbLine
 10
95.618913
 20
101.701924
 30
0.0
 11
94.336474
 21
102.254782
 31
0.0
  0
LINE
  5
11f
100
AcDbEntity
  8
Holes
 62
7
100
AcDbLine
 10
94.336474
 20
102.254782
 30
0.0
 11
93.820572
 21
103.552530
 31
0.0
  0
LINE
  5
120
100
AcDbEntity
  8
Holes
 62
7
100
AcDbLine
 10
93.820572
 20
103.552530
 30
0.0
 11
94.373419
 21
104.834970
 31
0.0
  0
LINE
  5
121
100
AcDbEntity
  8
Holes
 62
7
100
AcDbLine
 10
94.373419
 20
104.834970
 30
0.0
 11
95.671169
 21
105.350876
 31
0.0
  0
LINE
  5
122
100
AcDbEntity
  8
Holes
 62
7
100
AcDbLine
 10
95.671169
 20
105.350876
 30
0.0
 11
96.953608
 21
104.798018
 31
0.0
  0
LINE
  5
123
100
AcDbEntity
  8
Holes
 62
7
100
AcDbLine
 10
96.953608
 20
104.798018
 30
0.0
 11
97.469510
 21
103.500271
 31
0.0
  0
LINE
  5
124
100
AcDbEntity
  8
Holes
 62
7
100
AcDbLine
 10
97.469510
 20
103.500271
 30
0.0
 11
96.916659
 21
102.217822
 31
0.0
  0
LINE
  5
125
100
AcDbEntity
  8
Holes
 62
7
100
AcDbLine
 10
96.916659
 20
102.217822
 30
0.0
 11
95.618913
 21
101.701924
 31
0.0
  0
LINE
  5
126
100
AcDbEntity
  8
Holes
 62
1
100
AcDbLine
 10
95.671163
 20
105.350864
 30
0.0
 11
95.618912
 21
101.701924
 31
0.0
  0
LINE
  5
127
100
AcDbEntity
  8
Holes
 62
1
100
AcDbLine
 10
97.469508
 20
103.500264
 30
0.0
 11
93.820567
 21
103.552564
 31
0.0
  0
LINE
  5
128
100
AcDbEntity
  8
Holes
 62
7
100
AcDbLine
 10
141.489713
 20
101.681024
 30
0.0
 11
140.207274
 21
102.233882
 31
0.0
  0
LINE
  5
129
100
AcDbEntity
  8
Holes
 62
7
100
AcDbLine
 10
140.207274
 20
102.233882
 30
0.0
 11
139.691372
 21
103.531630
 31
0.0
  0
LINE
  5
12a
100
AcDbEntity
  8
Holes
 62
7
100
AcDbLine
 10
139.691372
 20
103.531630
 30
0.0
 11
140.244219
 21
104.814070
 31
0.0
  0
LINE
  5
12b
100
AcDbEntity
  8
Holes
 62
7
100
AcDbLine
 10
140.244219
 20
104.814070
 30
0.0
 11
141.541969
 21
105.329976
 31
0.0
  0
LINE
  5
12c
100
AcDbEntity
  8
Holes
 62
7
100
AcDbLine
 10
141.541969
 20
105.329976
 30
0.0
 11
142.824408
 21
104.777118
 31
0.0
  0
LINE
  5
12d
100
AcDbEntity
  8
Holes
 62
7
100
AcDbLine
 10
142.824408
 20
104.777118
 30
0.0
 11
143.340310
 21
103.479371
 31
0.0
  0
LINE
  5
12e
100
AcDbEntity
  8
Holes
 62
7
100
AcDbLine
 10
143.340310
 20
103.479371
 30
0.0
 11
142.787459
 21
102.196922
 31
0.0
  0
LINE
  5
12f
100
AcDbEntity
  8
Holes
 62
7
100
AcDbLine
 10
142.787459
 20
102.196922
 30
0.0
 11
141.489713
 21
101.681024
 31
0.0
  0
LINE
  5
130
100
AcDbEntity
  8
Holes
 62
1
100
AcDbLine
 10
141.541963
 20
105.329964
 30
0.0
 11
141.489712
 21
101.681024
 31
0.0
  0
LINE
  5
131
100
AcDbEntity
  8
Holes
 62
1
100
AcDbLine
 10
143.340308
 20
103.479364
 30
0.0
 11
139.691367
 21
103.531664
 31
0.0
  0
LINE
  5
132
100
AcDbEntity
  8
Holes
 62
7
100
AcDbLine
 10
141.672713
 20
56.066004
 30
0.0
 11
140.390274
 21
56.618862
 31
0.0
  0
LINE
  5
133
100
AcDbEntity
  8
Holes
 62
7
100
AcDbLine
 10
140.390274
 20
56.618862
 30
0.0
 11
139.874372
 21
57.916610
 31
0.0
  0
LINE
  5
134
100
AcDbEntity
  8
Holes
 62
7
100
AcDbLine
 10
139.874372
 20
57.916610
 30
0.0
 11
140.427219
 21
59.199050
 31
0.0
  0
LINE
  5
135
100
AcDbEntity
  8
Holes
 62
7
100
AcDbLine
 10
140.427219
 20
59.199050
 30
0.0
 11
141.724969
 21
59.714956
 31
0.0
  0
LINE
  5
136
100
AcDbEntity
  8
Holes
 62
7
100
AcDbLine
 10
141.724969
 20
59.714956
 30
0.0
 11
143.007408
 21
59.162098
 31
0.0
  0
LINE
  5
137
100
AcDbEntity
  8
Holes
 62
7
100
AcDbLine
 10
143.007408
 20
59.162098
 30
0.0
 11
143.523310
 21
57.864351
 31
0.0
  0
LINE
  5
138
100
AcDbEntity
  8
Holes
 62
7
100
AcDbLine
 10
143.523310
 20
57.864351
 30
0.0
 11
142.970459
 21
56.581902
 31
0.0
  0
LINE
  5
139
100
AcDbEntity
  8
Holes
 62
7
100
AcDbLine
 10
142.970459
 20
56.581902
 30
0.0
 11
141.672713
 21
56.066004
 31
0.0
  0
LINE
  5
13a
100
AcDbEntity
  8
Holes
 62
1
100
AcDbLine
 10
141.724963
 20
59.714944
 30
0.0
 11
141.672712
 21
56.066004
 31
0.0
  0
LINE
  5
13b
100
AcDbEntity
  8
Holes
 62
1
100
AcDbLine
 10
143.523308
 20
57.864344
 30
0.0
 11
139.874367
 21
57.916644
 31
0.0
  0
LINE
  5
13c
100
AcDbEntity
  8
Holes
 62
7
100
AcDbLine
 10
96.076013
 20
56.142544
 30
0.0
 11
94.793574
 21
56.695402
 31
0.0
  0
LINE
  5
13d
100
AcDbEntity
  8
Holes
 62
7
100
AcDbLine
 10
94.793574
 20
56.695402
 30
0.0
 11
94.277672
 21
57.993150
 31
0.0
  0
LINE
  5
13e
100
AcDbEntity
  8
Holes
 62
7
100
AcDbLine
 10
94.277672
 20
57.993150
 30
0.0
 11
94.830519
 21
59.275590
 31
0.0
  0
LINE
  5
13f
100
AcDbEntity
  8
Holes
 62
7
100
AcDbLine
 10
94.830519
 20
59.275590
 30
0.0
 11
96.128269
 21
59.791496
 31
0.0
  0
LINE
  5
140
100
AcDbEntity
  8
Holes
 62
7
100
AcDbLine
 10
96.128269
 20
59.791496
 30
0.0
 11
97.410708
 21
59.238638
 31
0.0
  0
LINE
  5
141
100
AcDbEntity
  8
Holes
 62
7
100
AcDbLine
 10
97.410708
 20
59.238638
 30
0.0
 11
97.926610
 21
57.940891
 31
0.0
  0
LINE
  5
142
100
AcDbEntity
  8
Holes
 62
7
100
AcDbLine
 10
97.926610
 20
57.940891
 30
0.0
 11
97.373759
 21
56.658442
 31
0.0
  0
LINE
  5
143
100
AcDbEntity
  8
Holes
 62
7
100
AcDbLine
 10
97.373759
 20
56.658442
 30
0.0
 11
96.076013
 21
56.142544
 31
0.0
  0
LINE
  5
144
100
AcDbEntity
  8
Holes
 62
1
100
AcDbLine
 10
96.128263
 20
59.791484
 30
0.0
 11
96.076012
 21
56.142544
 31
0.0
  0
LINE
  5
145
100
AcDbEntity
  8
Holes
 62
1
100
AcDbLine
 10
97.926608
 20
57.940884
 30
0.0
 11
94.277667
 21
57.993184
 31
0.0
  0
LINE
  5
146
100
AcDbEntity
  8
Holes
 62
7
100
AcDbLine
 10
111.255713
 20
3.093124
 30
0.0
 11
109.973274
 21
3.645982
 31
0.0
  0
LINE
  5
147
100
AcDbEntity
  8
Holes
 62
7
100
AcDbLine
 10
109.973274
 20
3.645982
 30
0.0
 11
109.457372
 21
4.943730
 31
0.0
  0
LINE
  5
148
100
AcDbEntity
  8
Holes
 62
7
100
AcDbLine
 10
109.457372
 20
4.943730
 30
0.0
 11
110.010219
 21
6.226170
 31
0.0
  0
LINE
  5
149
100
AcDbEntity
  8
Holes
 62
7
100
AcDbLine
 10
110.010219
 20
6.226170
 30
0.0
 11
111.307969
 21
6.742076
 31
0.0
  0
LINE
  5
14a
100
AcDbEntity
  8
Holes
 62
7
100
AcDbLine
 10
111.307969
 20
6.742076
 30
0.0
 11
112.590408
 21
6.189218
 31
0.0
  0
LINE
  5
14b
100
AcDbEntity
  8
Holes
 62
7
100
AcDbLine
 10
112.590408
 20
6.189218
 30
0.0
 11
113.106310
 21
4.891471
 31
0.0
  0
LINE
  5
14c
100
AcDbEntity
  8
Holes
 62
7
100
AcDbLine
 10
113.106310
 20
4.891471
 30
0.0
 11
112.553459
 21
3.609022
 31
0.0
  0
LINE
  5
14d
100
AcDbEntity
  8
Holes
 62
7
100
AcDbLine
 10
112.553459
 20
3.609022
 30
0.0
 11
111.255713
 21
3.093124
 31
0.0
  0
LINE
  5
14e
100
AcDbEntity
  8
Holes
 62
1
100
AcDbLine
 10
111.307963
 20
6.742064
 30
0.0
 11
111.255712
 21
3.093124
 31
0.0
  0
LINE
  5
14f
100
AcDbEntity
  8
Holes
 62
1
100
AcDbLine
 10
113.106308
 20
4.891464
 30
0.0
 11
109.457367
 21
4.943764
 31
0.0
  0
LINE
  5
150
100
AcDbEntity
  8
Holes
 62
7
100
AcDbLine
 10
217.772713
 20
2.835524
 30
0.0
 11
216.490274
 21
3.388382
 31
0.0
  0
LINE
  5
151
100
AcDbEntity
  8
Holes
 62
7
100
AcDbLine
 10
216.490274
 20
3.388382
 30
0.0
 11
215.974372
 21
4.686130
 31
0.0
  0
LINE
  5
152
100
AcDbEntity
  8
Holes
 62
7
100
AcDbLine
 10
215.974372
 20
4.686130
 30
0.0
 11
216.527219
 21
5.968570
 31
0.0
  0
LINE
  5
153
100
AcDbEntity
  8
Holes
 62
7
100
AcDbLine
 10
216.527219
 20
5.968570
 30
0.0
 11
217.824969
 21
6.484476
 31
0.0
  0
LINE
  5
154
100
AcDbEntity
  8
Holes
 62
7
100
AcDbLine
 10
217.824969
 20
6.484476
 30
0.0
 11
219.107408
 21
5.931618
 31
0.0
  0
LINE
  5
155
100
AcDbEntity
  8
Holes
 62
7
100
AcDbLine
 10
219.107408
 20
5.931618
 30
0.0
 11
219.623310
 21
4.633871
 31
0.0
  0
LINE
  5
156
100
AcDbEntity
  8
Holes
 62
7
100
AcDbLine
 10
219.623310
 20
4.633871
 30
0.0
 11
219.070459
 21
3.351422
 31
0.0
  0
LINE
  5
157
100
AcDbEntity
  8
Holes
 62
7
100
AcDbLine
 10
219.070459
 20
3.351422
 30
0.0
 11
217.772713
 21
2.835524
 31
0.0
  0
LINE
  5
158
100
AcDbEntity
  8
Holes
 62
1
100
AcDbLine
 10
217.824963
 20
6.484464
 30
0.0
 11
217.772712
 21
2.835524
 31
0.0
  0
LINE
  5
159
100
AcDbEntity
  8
Holes
 62
1
100
AcDbLine
 10
219.623308
 20
4.633864
 30
0.0
 11
215.974367
 21
4.686164
 31
0.0
  0
LINE
  5
15a
100
AcDbEntity
  8
Holes
 62
7
100
AcDbLine
 10
218.028713
 20
61.200594
 30
0.0
 11
216.746274
 21
61.753452
 31
0.0
  0
LINE
  5
15b
100
AcDbEntity
  8
Holes
 62
7
100
AcDbLine
 10
216.746274
 20
61.753452
 30
0.0
 11
216.230372
 21
63.051200
 31
0.0
  0
LINE
  5
15c
100
AcDbEntity
  8
Holes
 62
7
100
AcDbLine
 10
216.230372
 20
63.051200
 30
0.0
 11
216.783219
 21
64.333640
 31
0.0
  0
LINE
  5
15d
100
AcDbEntity
  8
Holes
 62
7
100
AcDbLine
 10
216.783219
 20
64.333640
 30
0.0
 11
218.080969
 21
64.849546
 31
0.0
  0
LINE
  5
15e
100
AcDbEntity
  8
Holes
 62
7
100
AcDbLine
 10
218.080969
 20
64.849546
 30
0.0
 11
219.363408
 21
64.296688
 31
0.0
  0
LINE
  5
15f
100
AcDbEntity
  8
Holes
 62
7
100
AcDbLine
 10
219.363408
 20
64.296688
 30
0.0
 11
219.879310
 21
62.998941
 31
0.0
  0
LINE
  5
160
100
AcDbEntity
  8
Holes
 62
7
100
AcDbLine
 10
219.879310
 20
62.998941
 30
0.0
 11
219.326459
 21
61.716492
 31
0.0
  0
LINE
  5
161
100
AcDbEntity
  8
Holes
 62
7
100
AcDbLine
 10
219.326459
 20
61.716492
 30
0.0
 11
218.028713
 21
61.200594
 31
0.0
  0
LINE
  5
162
100
AcDbEntity
  8
Holes
 62
1
100
AcDbLine
 10
218.080963
 20
64.849534
 30
0.0
 11
218.028712
 21
61.200594
 31
0.0
  0
LINE
  5
163
100
AcDbEntity
  8
Holes
 62
1
100
AcDbLine
 10
219.879308
 20
62.998934
 30
0.0
 11
216.230367
 21
63.051234
 31
0.0
  0
LINE
  5
164
100
AcDbEntity
  8
Holes
 62
7
100
AcDbLine
 10
218.241713
 20
119.745724
 30
0.0
 11
216.959274
 21
120.298582
 31
0.0
  0
LINE
  5
165
100
AcDbEntity
  8
Holes
 62
7
100
AcDbLine
 10
216.959274
 20
120.298582
 30
0.0
 11
216.443372
 21
121.596330
 31
0.0
  0
LINE
  5
166
100
AcDbEntity
  8
Holes
 62
7
100
AcDbLine
 10
216.443372
 20
121.596330
 30
0.0
 11
216.996219
 21
122.878770
 31
0.0
  0
LINE
  5
167
100
AcDbEntity
  8
Holes
 62
7
100
AcDbLine
 10
216.996219
 20
122.878770
 30
0.0
 11
218.293969
 21
123.394676
 31
0.0
  0
LINE
  5
168
100
AcDbEntity
  8
Holes
 62
7
100
AcDbLine
 10
218.293969
 20
123.394676
 30
0.0
 11
219.576408
 21
122.841818
 31
0.0
  0
LINE
  5
169
100
AcDbEntity
  8
Holes
 62
7
100
AcDbLine
 10
219.576408
 20
122.841818
 30
0.0
 11
220.092310
 21
121.544071
 31
0.0
  0
LINE
  5
16a
100
AcDbEntity
  8
Holes
 62
7
100
AcDbLine
 10
220.092310
 20
121.544071
 30
0.0
 11
219.539459
 21
120.261622
 31
0.0
  0
LINE
  5
16b
100
AcDbEntity
  8
Holes
 62
7
100
AcDbLine
 10
219.539459
 20
120.261622
 30
0.0
 11
218.241713
 21
119.745724
 31
0.0
  0
LINE
  5
16c
100
AcDbEntity
  8
Holes
 62
1
100
AcDbLine
 10
218.293963
 20
123.394664
 30
0.0
 11
218.241712
 21
119.745724
 31
0.0
  0
LINE
  5
16d
100
AcDbEntity
  8
Holes
 62
1
100
AcDbLine
 10
220.092308
 20
121.544064
 30
0.0
 11
216.443367
 21
121.596364
 31
0.0
  0
ENDSEC
  0
SECTION
  2
OBJECTS
  0
DICTIONARY
  5
C
330
0
100
AcDbDictionary
  3
ACAD_GROUP
350
D
  3
ACAD_MLINESTYLE
350
17
  0
DICTIONARY
  5
D
330
C
100
AcDbDictionary
  0
DICTIONARY
  5
1A
330
C
100
AcDbDictionary
  0
DICTIONARY
  5
17
330
C
100
AcDbDictionary
  3
STANDARD
350
18
  0
DICTIONARY
  5
19
330
C
100
AcDbDictionary
  0
ENDSEC
  0
EOF
