%TF.GenerationSoftware,KiCad,Pcbnew,(6.0.6)*%
%TF.CreationDate,2022-08-15T19:59:22-05:00*%
%TF.ProjectId,Nunchuck_adapter,4e756e63-6875-4636-9b5f-616461707465,rev?*%
%TF.SameCoordinates,Original*%
%TF.FileFunction,Legend,Bot*%
%TF.FilePolarity,Positive*%
%FSLAX46Y46*%
G04 Gerber Fmt 4.6, Leading zero omitted, Abs format (unit mm)*
G04 Created by KiCad (PCBNEW (6.0.6)) date 2022-08-15 19:59:22*
%MOMM*%
%LPD*%
G01*
G04 APERTURE LIST*
%ADD10C,0.150000*%
G04 APERTURE END LIST*
D10*
X5936666Y-3310000D02*
X6031904Y-3262380D01*
X6174761Y-3262380D01*
X6317619Y-3310000D01*
X6412857Y-3405238D01*
X6460476Y-3500476D01*
X6508095Y-3690952D01*
X6508095Y-3833809D01*
X6460476Y-4024285D01*
X6412857Y-4119523D01*
X6317619Y-4214761D01*
X6174761Y-4262380D01*
X6079523Y-4262380D01*
X5936666Y-4214761D01*
X5889047Y-4167142D01*
X5889047Y-3833809D01*
X6079523Y-3833809D01*
X5460476Y-4262380D02*
X5460476Y-3262380D01*
X4889047Y-4262380D01*
X4889047Y-3262380D01*
X4412857Y-4262380D02*
X4412857Y-3262380D01*
X4174761Y-3262380D01*
X4031904Y-3310000D01*
X3936666Y-3405238D01*
X3889047Y-3500476D01*
X3841428Y-3690952D01*
X3841428Y-3833809D01*
X3889047Y-4024285D01*
X3936666Y-4119523D01*
X4031904Y-4214761D01*
X4174761Y-4262380D01*
X4412857Y-4262380D01*
X2746190Y-3262380D02*
X2127142Y-3262380D01*
X2460476Y-3643333D01*
X2317619Y-3643333D01*
X2222380Y-3690952D01*
X2174761Y-3738571D01*
X2127142Y-3833809D01*
X2127142Y-4071904D01*
X2174761Y-4167142D01*
X2222380Y-4214761D01*
X2317619Y-4262380D01*
X2603333Y-4262380D01*
X2698571Y-4214761D01*
X2746190Y-4167142D01*
X1841428Y-3262380D02*
X1508095Y-4262380D01*
X1174761Y-3262380D01*
X936666Y-3262380D02*
X317619Y-3262380D01*
X650952Y-3643333D01*
X508095Y-3643333D01*
X412857Y-3690952D01*
X365238Y-3738571D01*
X317619Y-3833809D01*
X317619Y-4071904D01*
X365238Y-4167142D01*
X412857Y-4214761D01*
X508095Y-4262380D01*
X793809Y-4262380D01*
X889047Y-4214761D01*
X936666Y-4167142D01*
X-872857Y-4262380D02*
X-872857Y-3262380D01*
X-1110952Y-3262380D01*
X-1253809Y-3310000D01*
X-1349047Y-3405238D01*
X-1396666Y-3500476D01*
X-1444285Y-3690952D01*
X-1444285Y-3833809D01*
X-1396666Y-4024285D01*
X-1349047Y-4119523D01*
X-1253809Y-4214761D01*
X-1110952Y-4262380D01*
X-872857Y-4262380D01*
X-3968095Y-4167142D02*
X-3920476Y-4214761D01*
X-3777619Y-4262380D01*
X-3682380Y-4262380D01*
X-3539523Y-4214761D01*
X-3444285Y-4119523D01*
X-3396666Y-4024285D01*
X-3349047Y-3833809D01*
X-3349047Y-3690952D01*
X-3396666Y-3500476D01*
X-3444285Y-3405238D01*
X-3539523Y-3310000D01*
X-3682380Y-3262380D01*
X-3777619Y-3262380D01*
X-3920476Y-3310000D01*
X-3968095Y-3357619D01*
X4595238Y3357619D02*
X4595238Y4357619D01*
X4119047Y3357619D02*
X4119047Y4357619D01*
X3547619Y3357619D01*
X3547619Y4357619D01*
X3214285Y4357619D02*
X2880952Y3357619D01*
X2547619Y4357619D01*
X2214285Y3881428D02*
X1880952Y3881428D01*
X1738095Y3357619D02*
X2214285Y3357619D01*
X2214285Y4357619D01*
X1738095Y4357619D01*
X1309523Y3357619D02*
X1309523Y4357619D01*
X738095Y3357619D01*
X738095Y4357619D01*
X404761Y4357619D02*
X-166666Y4357619D01*
X119047Y3357619D02*
X119047Y4357619D01*
X-690476Y4357619D02*
X-880952Y4357619D01*
X-976190Y4310000D01*
X-1071428Y4214761D01*
X-1119047Y4024285D01*
X-1119047Y3690952D01*
X-1071428Y3500476D01*
X-976190Y3405238D01*
X-880952Y3357619D01*
X-690476Y3357619D01*
X-595238Y3405238D01*
X-500000Y3500476D01*
X-452380Y3690952D01*
X-452380Y4024285D01*
X-500000Y4214761D01*
X-595238Y4310000D01*
X-690476Y4357619D01*
X-1404761Y4357619D02*
X-1976190Y4357619D01*
X-1690476Y3357619D02*
X-1690476Y4357619D01*
X-2309523Y3881428D02*
X-2642857Y3881428D01*
X-2785714Y3357619D02*
X-2309523Y3357619D01*
X-2309523Y4357619D01*
X-2785714Y4357619D01*
X-3785714Y3452857D02*
X-3738095Y3405238D01*
X-3595238Y3357619D01*
X-3500000Y3357619D01*
X-3357142Y3405238D01*
X-3261904Y3500476D01*
X-3214285Y3595714D01*
X-3166666Y3786190D01*
X-3166666Y3929047D01*
X-3214285Y4119523D01*
X-3261904Y4214761D01*
X-3357142Y4310000D01*
X-3500000Y4357619D01*
X-3595238Y4357619D01*
X-3738095Y4310000D01*
X-3785714Y4262380D01*
X-4166666Y3643333D02*
X-4642857Y3643333D01*
X-4071428Y3357619D02*
X-4404761Y4357619D01*
X-4738095Y3357619D01*
M02*
