%TF.GenerationSoftware,KiCad,Pcbnew,(6.0.6)*%
%TF.CreationDate,2022-08-15T19:59:22-05:00*%
%TF.ProjectId,Nunchuck_adapter,4e756e63-6875-4636-9b5f-616461707465,rev?*%
%TF.SameCoordinates,Original*%
%TF.FileFunction,Soldermask,Bot*%
%TF.FilePolarity,Negative*%
%FSLAX46Y46*%
G04 Gerber Fmt 4.6, Leading zero omitted, Abs format (unit mm)*
G04 Created by KiCad (PCBNEW (6.0.6)) date 2022-08-15 19:59:22*
%MOMM*%
%LPD*%
G01*
G04 APERTURE LIST*
%ADD10C,0.100000*%
%ADD11R,1.700000X1.700000*%
%ADD12O,1.700000X1.700000*%
G04 APERTURE END LIST*
D10*
X1250000Y13000000D02*
X2750000Y13000000D01*
X2750000Y13000000D02*
X2750000Y5000000D01*
X2750000Y5000000D02*
X1250000Y5000000D01*
X1250000Y5000000D02*
X1250000Y13000000D01*
G36*
X1250000Y13000000D02*
G01*
X2750000Y13000000D01*
X2750000Y5000000D01*
X1250000Y5000000D01*
X1250000Y13000000D01*
G37*
X-750000Y13000000D02*
X750000Y13000000D01*
X750000Y13000000D02*
X750000Y5000000D01*
X750000Y5000000D02*
X-750000Y5000000D01*
X-750000Y5000000D02*
X-750000Y13000000D01*
G36*
X-750000Y13000000D02*
G01*
X750000Y13000000D01*
X750000Y5000000D01*
X-750000Y5000000D01*
X-750000Y13000000D01*
G37*
X-2750000Y13000000D02*
X-1250000Y13000000D01*
X-1250000Y13000000D02*
X-1250000Y5000000D01*
X-1250000Y5000000D02*
X-2750000Y5000000D01*
X-2750000Y5000000D02*
X-2750000Y13000000D01*
G36*
X-2750000Y13000000D02*
G01*
X-1250000Y13000000D01*
X-1250000Y5000000D01*
X-2750000Y5000000D01*
X-2750000Y13000000D01*
G37*
D11*
%TO.C,J1*%
X3810000Y1270000D03*
D12*
X3810000Y-1270000D03*
X1270000Y1270000D03*
X1270000Y-1270000D03*
X-1270000Y1270000D03*
X-1270000Y-1270000D03*
X-3810000Y1270000D03*
X-3810000Y-1270000D03*
%TD*%
M02*
