G04 EAGLE Gerber RS-274X export*
G75*
%MOMM*%
%FSLAX34Y34*%
%LPD*%
%IN*%
%IPPOS*%
%AMOC8*
5,1,8,0,0,1.08239X$1,22.5*%
G01*
%ADD10C,0.254000*%


D10*
X0Y0D02*
X2228850Y0D01*
X2228850Y1270000D01*
X0Y1270000D01*
X0Y0D01*
X71120Y1218586D02*
X71046Y1217360D01*
X70898Y1216141D01*
X70676Y1214933D01*
X70383Y1213741D01*
X70017Y1212569D01*
X69582Y1211420D01*
X69078Y1210301D01*
X68507Y1209213D01*
X67872Y1208162D01*
X67174Y1207152D01*
X66417Y1206185D01*
X65603Y1205266D01*
X64734Y1204397D01*
X63815Y1203583D01*
X62848Y1202826D01*
X61838Y1202128D01*
X60787Y1201493D01*
X59700Y1200922D01*
X58580Y1200418D01*
X57431Y1199983D01*
X56259Y1199617D01*
X55067Y1199324D01*
X53859Y1199102D01*
X52640Y1198954D01*
X51414Y1198880D01*
X50186Y1198880D01*
X48960Y1198954D01*
X47741Y1199102D01*
X46533Y1199324D01*
X45341Y1199617D01*
X44169Y1199983D01*
X43020Y1200418D01*
X41901Y1200922D01*
X40813Y1201493D01*
X39762Y1202128D01*
X38752Y1202826D01*
X37785Y1203583D01*
X36866Y1204397D01*
X35997Y1205266D01*
X35183Y1206185D01*
X34426Y1207152D01*
X33728Y1208162D01*
X33093Y1209213D01*
X32522Y1210301D01*
X32018Y1211420D01*
X31583Y1212569D01*
X31217Y1213741D01*
X30924Y1214933D01*
X30702Y1216141D01*
X30554Y1217360D01*
X30480Y1218586D01*
X30480Y1219814D01*
X30554Y1221040D01*
X30702Y1222259D01*
X30924Y1223467D01*
X31217Y1224659D01*
X31583Y1225831D01*
X32018Y1226980D01*
X32522Y1228100D01*
X33093Y1229187D01*
X33728Y1230238D01*
X34426Y1231248D01*
X35183Y1232215D01*
X35997Y1233134D01*
X36866Y1234003D01*
X37785Y1234817D01*
X38752Y1235574D01*
X39762Y1236272D01*
X40813Y1236907D01*
X41901Y1237478D01*
X43020Y1237982D01*
X44169Y1238417D01*
X45341Y1238783D01*
X46533Y1239076D01*
X47741Y1239298D01*
X48960Y1239446D01*
X50186Y1239520D01*
X51414Y1239520D01*
X52640Y1239446D01*
X53859Y1239298D01*
X55067Y1239076D01*
X56259Y1238783D01*
X57431Y1238417D01*
X58580Y1237982D01*
X59700Y1237478D01*
X60787Y1236907D01*
X61838Y1236272D01*
X62848Y1235574D01*
X63815Y1234817D01*
X64734Y1234003D01*
X65603Y1233134D01*
X66417Y1232215D01*
X67174Y1231248D01*
X67872Y1230238D01*
X68507Y1229187D01*
X69078Y1228100D01*
X69582Y1226980D01*
X70017Y1225831D01*
X70383Y1224659D01*
X70676Y1223467D01*
X70898Y1222259D01*
X71046Y1221040D01*
X71120Y1219814D01*
X71120Y1218586D01*
X71120Y634386D02*
X71046Y633160D01*
X70898Y631941D01*
X70676Y630733D01*
X70383Y629541D01*
X70017Y628369D01*
X69582Y627220D01*
X69078Y626101D01*
X68507Y625013D01*
X67872Y623962D01*
X67174Y622952D01*
X66417Y621985D01*
X65603Y621066D01*
X64734Y620197D01*
X63815Y619383D01*
X62848Y618626D01*
X61838Y617928D01*
X60787Y617293D01*
X59700Y616722D01*
X58580Y616218D01*
X57431Y615783D01*
X56259Y615417D01*
X55067Y615124D01*
X53859Y614902D01*
X52640Y614754D01*
X51414Y614680D01*
X50186Y614680D01*
X48960Y614754D01*
X47741Y614902D01*
X46533Y615124D01*
X45341Y615417D01*
X44169Y615783D01*
X43020Y616218D01*
X41901Y616722D01*
X40813Y617293D01*
X39762Y617928D01*
X38752Y618626D01*
X37785Y619383D01*
X36866Y620197D01*
X35997Y621066D01*
X35183Y621985D01*
X34426Y622952D01*
X33728Y623962D01*
X33093Y625013D01*
X32522Y626101D01*
X32018Y627220D01*
X31583Y628369D01*
X31217Y629541D01*
X30924Y630733D01*
X30702Y631941D01*
X30554Y633160D01*
X30480Y634386D01*
X30480Y635614D01*
X30554Y636840D01*
X30702Y638059D01*
X30924Y639267D01*
X31217Y640459D01*
X31583Y641631D01*
X32018Y642780D01*
X32522Y643900D01*
X33093Y644987D01*
X33728Y646038D01*
X34426Y647048D01*
X35183Y648015D01*
X35997Y648934D01*
X36866Y649803D01*
X37785Y650617D01*
X38752Y651374D01*
X39762Y652072D01*
X40813Y652707D01*
X41901Y653278D01*
X43020Y653782D01*
X44169Y654217D01*
X45341Y654583D01*
X46533Y654876D01*
X47741Y655098D01*
X48960Y655246D01*
X50186Y655320D01*
X51414Y655320D01*
X52640Y655246D01*
X53859Y655098D01*
X55067Y654876D01*
X56259Y654583D01*
X57431Y654217D01*
X58580Y653782D01*
X59700Y653278D01*
X60787Y652707D01*
X61838Y652072D01*
X62848Y651374D01*
X63815Y650617D01*
X64734Y649803D01*
X65603Y648934D01*
X66417Y648015D01*
X67174Y647048D01*
X67872Y646038D01*
X68507Y644987D01*
X69078Y643900D01*
X69582Y642780D01*
X70017Y641631D01*
X70383Y640459D01*
X70676Y639267D01*
X70898Y638059D01*
X71046Y636840D01*
X71120Y635614D01*
X71120Y634386D01*
X71120Y50186D02*
X71046Y48960D01*
X70898Y47741D01*
X70676Y46533D01*
X70383Y45341D01*
X70017Y44169D01*
X69582Y43020D01*
X69078Y41901D01*
X68507Y40813D01*
X67872Y39762D01*
X67174Y38752D01*
X66417Y37785D01*
X65603Y36866D01*
X64734Y35997D01*
X63815Y35183D01*
X62848Y34426D01*
X61838Y33728D01*
X60787Y33093D01*
X59700Y32522D01*
X58580Y32018D01*
X57431Y31583D01*
X56259Y31217D01*
X55067Y30924D01*
X53859Y30702D01*
X52640Y30554D01*
X51414Y30480D01*
X50186Y30480D01*
X48960Y30554D01*
X47741Y30702D01*
X46533Y30924D01*
X45341Y31217D01*
X44169Y31583D01*
X43020Y32018D01*
X41901Y32522D01*
X40813Y33093D01*
X39762Y33728D01*
X38752Y34426D01*
X37785Y35183D01*
X36866Y35997D01*
X35997Y36866D01*
X35183Y37785D01*
X34426Y38752D01*
X33728Y39762D01*
X33093Y40813D01*
X32522Y41901D01*
X32018Y43020D01*
X31583Y44169D01*
X31217Y45341D01*
X30924Y46533D01*
X30702Y47741D01*
X30554Y48960D01*
X30480Y50186D01*
X30480Y51414D01*
X30554Y52640D01*
X30702Y53859D01*
X30924Y55067D01*
X31217Y56259D01*
X31583Y57431D01*
X32018Y58580D01*
X32522Y59700D01*
X33093Y60787D01*
X33728Y61838D01*
X34426Y62848D01*
X35183Y63815D01*
X35997Y64734D01*
X36866Y65603D01*
X37785Y66417D01*
X38752Y67174D01*
X39762Y67872D01*
X40813Y68507D01*
X41901Y69078D01*
X43020Y69582D01*
X44169Y70017D01*
X45341Y70383D01*
X46533Y70676D01*
X47741Y70898D01*
X48960Y71046D01*
X50186Y71120D01*
X51414Y71120D01*
X52640Y71046D01*
X53859Y70898D01*
X55067Y70676D01*
X56259Y70383D01*
X57431Y70017D01*
X58580Y69582D01*
X59700Y69078D01*
X60787Y68507D01*
X61838Y67872D01*
X62848Y67174D01*
X63815Y66417D01*
X64734Y65603D01*
X65603Y64734D01*
X66417Y63815D01*
X67174Y62848D01*
X67872Y61838D01*
X68507Y60787D01*
X69078Y59700D01*
X69582Y58580D01*
X70017Y57431D01*
X70383Y56259D01*
X70676Y55067D01*
X70898Y53859D01*
X71046Y52640D01*
X71120Y51414D01*
X71120Y50186D01*
X1137920Y50186D02*
X1137846Y48960D01*
X1137698Y47741D01*
X1137476Y46533D01*
X1137183Y45341D01*
X1136817Y44169D01*
X1136382Y43020D01*
X1135878Y41901D01*
X1135307Y40813D01*
X1134672Y39762D01*
X1133974Y38752D01*
X1133217Y37785D01*
X1132403Y36866D01*
X1131534Y35997D01*
X1130615Y35183D01*
X1129648Y34426D01*
X1128638Y33728D01*
X1127587Y33093D01*
X1126500Y32522D01*
X1125380Y32018D01*
X1124231Y31583D01*
X1123059Y31217D01*
X1121867Y30924D01*
X1120659Y30702D01*
X1119440Y30554D01*
X1118214Y30480D01*
X1116986Y30480D01*
X1115760Y30554D01*
X1114541Y30702D01*
X1113333Y30924D01*
X1112141Y31217D01*
X1110969Y31583D01*
X1109820Y32018D01*
X1108701Y32522D01*
X1107613Y33093D01*
X1106562Y33728D01*
X1105552Y34426D01*
X1104585Y35183D01*
X1103666Y35997D01*
X1102797Y36866D01*
X1101983Y37785D01*
X1101226Y38752D01*
X1100528Y39762D01*
X1099893Y40813D01*
X1099322Y41901D01*
X1098818Y43020D01*
X1098383Y44169D01*
X1098017Y45341D01*
X1097724Y46533D01*
X1097502Y47741D01*
X1097354Y48960D01*
X1097280Y50186D01*
X1097280Y51414D01*
X1097354Y52640D01*
X1097502Y53859D01*
X1097724Y55067D01*
X1098017Y56259D01*
X1098383Y57431D01*
X1098818Y58580D01*
X1099322Y59700D01*
X1099893Y60787D01*
X1100528Y61838D01*
X1101226Y62848D01*
X1101983Y63815D01*
X1102797Y64734D01*
X1103666Y65603D01*
X1104585Y66417D01*
X1105552Y67174D01*
X1106562Y67872D01*
X1107613Y68507D01*
X1108701Y69078D01*
X1109820Y69582D01*
X1110969Y70017D01*
X1112141Y70383D01*
X1113333Y70676D01*
X1114541Y70898D01*
X1115760Y71046D01*
X1116986Y71120D01*
X1118214Y71120D01*
X1119440Y71046D01*
X1120659Y70898D01*
X1121867Y70676D01*
X1123059Y70383D01*
X1124231Y70017D01*
X1125380Y69582D01*
X1126500Y69078D01*
X1127587Y68507D01*
X1128638Y67872D01*
X1129648Y67174D01*
X1130615Y66417D01*
X1131534Y65603D01*
X1132403Y64734D01*
X1133217Y63815D01*
X1133974Y62848D01*
X1134672Y61838D01*
X1135307Y60787D01*
X1135878Y59700D01*
X1136382Y58580D01*
X1136817Y57431D01*
X1137183Y56259D01*
X1137476Y55067D01*
X1137698Y53859D01*
X1137846Y52640D01*
X1137920Y51414D01*
X1137920Y50186D01*
X979170Y577236D02*
X979096Y576010D01*
X978948Y574791D01*
X978726Y573583D01*
X978433Y572391D01*
X978067Y571219D01*
X977632Y570070D01*
X977128Y568951D01*
X976557Y567863D01*
X975922Y566812D01*
X975224Y565802D01*
X974467Y564835D01*
X973653Y563916D01*
X972784Y563047D01*
X971865Y562233D01*
X970898Y561476D01*
X969888Y560778D01*
X968837Y560143D01*
X967750Y559572D01*
X966630Y559068D01*
X965481Y558633D01*
X964309Y558267D01*
X963117Y557974D01*
X961909Y557752D01*
X960690Y557604D01*
X959464Y557530D01*
X958236Y557530D01*
X957010Y557604D01*
X955791Y557752D01*
X954583Y557974D01*
X953391Y558267D01*
X952219Y558633D01*
X951070Y559068D01*
X949951Y559572D01*
X948863Y560143D01*
X947812Y560778D01*
X946802Y561476D01*
X945835Y562233D01*
X944916Y563047D01*
X944047Y563916D01*
X943233Y564835D01*
X942476Y565802D01*
X941778Y566812D01*
X941143Y567863D01*
X940572Y568951D01*
X940068Y570070D01*
X939633Y571219D01*
X939267Y572391D01*
X938974Y573583D01*
X938752Y574791D01*
X938604Y576010D01*
X938530Y577236D01*
X938530Y578464D01*
X938604Y579690D01*
X938752Y580909D01*
X938974Y582117D01*
X939267Y583309D01*
X939633Y584481D01*
X940068Y585630D01*
X940572Y586750D01*
X941143Y587837D01*
X941778Y588888D01*
X942476Y589898D01*
X943233Y590865D01*
X944047Y591784D01*
X944916Y592653D01*
X945835Y593467D01*
X946802Y594224D01*
X947812Y594922D01*
X948863Y595557D01*
X949951Y596128D01*
X951070Y596632D01*
X952219Y597067D01*
X953391Y597433D01*
X954583Y597726D01*
X955791Y597948D01*
X957010Y598096D01*
X958236Y598170D01*
X959464Y598170D01*
X960690Y598096D01*
X961909Y597948D01*
X963117Y597726D01*
X964309Y597433D01*
X965481Y597067D01*
X966630Y596632D01*
X967750Y596128D01*
X968837Y595557D01*
X969888Y594922D01*
X970898Y594224D01*
X971865Y593467D01*
X972784Y592653D01*
X973653Y591784D01*
X974467Y590865D01*
X975224Y589898D01*
X975922Y588888D01*
X976557Y587837D01*
X977128Y586750D01*
X977632Y585630D01*
X978067Y584481D01*
X978433Y583309D01*
X978726Y582117D01*
X978948Y580909D01*
X979096Y579690D01*
X979170Y578464D01*
X979170Y577236D01*
X1436370Y577236D02*
X1436296Y576010D01*
X1436148Y574791D01*
X1435926Y573583D01*
X1435633Y572391D01*
X1435267Y571219D01*
X1434832Y570070D01*
X1434328Y568951D01*
X1433757Y567863D01*
X1433122Y566812D01*
X1432424Y565802D01*
X1431667Y564835D01*
X1430853Y563916D01*
X1429984Y563047D01*
X1429065Y562233D01*
X1428098Y561476D01*
X1427088Y560778D01*
X1426037Y560143D01*
X1424950Y559572D01*
X1423830Y559068D01*
X1422681Y558633D01*
X1421509Y558267D01*
X1420317Y557974D01*
X1419109Y557752D01*
X1417890Y557604D01*
X1416664Y557530D01*
X1415436Y557530D01*
X1414210Y557604D01*
X1412991Y557752D01*
X1411783Y557974D01*
X1410591Y558267D01*
X1409419Y558633D01*
X1408270Y559068D01*
X1407151Y559572D01*
X1406063Y560143D01*
X1405012Y560778D01*
X1404002Y561476D01*
X1403035Y562233D01*
X1402116Y563047D01*
X1401247Y563916D01*
X1400433Y564835D01*
X1399676Y565802D01*
X1398978Y566812D01*
X1398343Y567863D01*
X1397772Y568951D01*
X1397268Y570070D01*
X1396833Y571219D01*
X1396467Y572391D01*
X1396174Y573583D01*
X1395952Y574791D01*
X1395804Y576010D01*
X1395730Y577236D01*
X1395730Y578464D01*
X1395804Y579690D01*
X1395952Y580909D01*
X1396174Y582117D01*
X1396467Y583309D01*
X1396833Y584481D01*
X1397268Y585630D01*
X1397772Y586750D01*
X1398343Y587837D01*
X1398978Y588888D01*
X1399676Y589898D01*
X1400433Y590865D01*
X1401247Y591784D01*
X1402116Y592653D01*
X1403035Y593467D01*
X1404002Y594224D01*
X1405012Y594922D01*
X1406063Y595557D01*
X1407151Y596128D01*
X1408270Y596632D01*
X1409419Y597067D01*
X1410591Y597433D01*
X1411783Y597726D01*
X1412991Y597948D01*
X1414210Y598096D01*
X1415436Y598170D01*
X1416664Y598170D01*
X1417890Y598096D01*
X1419109Y597948D01*
X1420317Y597726D01*
X1421509Y597433D01*
X1422681Y597067D01*
X1423830Y596632D01*
X1424950Y596128D01*
X1426037Y595557D01*
X1427088Y594922D01*
X1428098Y594224D01*
X1429065Y593467D01*
X1429984Y592653D01*
X1430853Y591784D01*
X1431667Y590865D01*
X1432424Y589898D01*
X1433122Y588888D01*
X1433757Y587837D01*
X1434328Y586750D01*
X1434832Y585630D01*
X1435267Y584481D01*
X1435633Y583309D01*
X1435926Y582117D01*
X1436148Y580909D01*
X1436296Y579690D01*
X1436370Y578464D01*
X1436370Y577236D01*
X1436370Y1034436D02*
X1436296Y1033210D01*
X1436148Y1031991D01*
X1435926Y1030783D01*
X1435633Y1029591D01*
X1435267Y1028419D01*
X1434832Y1027270D01*
X1434328Y1026151D01*
X1433757Y1025063D01*
X1433122Y1024012D01*
X1432424Y1023002D01*
X1431667Y1022035D01*
X1430853Y1021116D01*
X1429984Y1020247D01*
X1429065Y1019433D01*
X1428098Y1018676D01*
X1427088Y1017978D01*
X1426037Y1017343D01*
X1424950Y1016772D01*
X1423830Y1016268D01*
X1422681Y1015833D01*
X1421509Y1015467D01*
X1420317Y1015174D01*
X1419109Y1014952D01*
X1417890Y1014804D01*
X1416664Y1014730D01*
X1415436Y1014730D01*
X1414210Y1014804D01*
X1412991Y1014952D01*
X1411783Y1015174D01*
X1410591Y1015467D01*
X1409419Y1015833D01*
X1408270Y1016268D01*
X1407151Y1016772D01*
X1406063Y1017343D01*
X1405012Y1017978D01*
X1404002Y1018676D01*
X1403035Y1019433D01*
X1402116Y1020247D01*
X1401247Y1021116D01*
X1400433Y1022035D01*
X1399676Y1023002D01*
X1398978Y1024012D01*
X1398343Y1025063D01*
X1397772Y1026151D01*
X1397268Y1027270D01*
X1396833Y1028419D01*
X1396467Y1029591D01*
X1396174Y1030783D01*
X1395952Y1031991D01*
X1395804Y1033210D01*
X1395730Y1034436D01*
X1395730Y1035664D01*
X1395804Y1036890D01*
X1395952Y1038109D01*
X1396174Y1039317D01*
X1396467Y1040509D01*
X1396833Y1041681D01*
X1397268Y1042830D01*
X1397772Y1043950D01*
X1398343Y1045037D01*
X1398978Y1046088D01*
X1399676Y1047098D01*
X1400433Y1048065D01*
X1401247Y1048984D01*
X1402116Y1049853D01*
X1403035Y1050667D01*
X1404002Y1051424D01*
X1405012Y1052122D01*
X1406063Y1052757D01*
X1407151Y1053328D01*
X1408270Y1053832D01*
X1409419Y1054267D01*
X1410591Y1054633D01*
X1411783Y1054926D01*
X1412991Y1055148D01*
X1414210Y1055296D01*
X1415436Y1055370D01*
X1416664Y1055370D01*
X1417890Y1055296D01*
X1419109Y1055148D01*
X1420317Y1054926D01*
X1421509Y1054633D01*
X1422681Y1054267D01*
X1423830Y1053832D01*
X1424950Y1053328D01*
X1426037Y1052757D01*
X1427088Y1052122D01*
X1428098Y1051424D01*
X1429065Y1050667D01*
X1429984Y1049853D01*
X1430853Y1048984D01*
X1431667Y1048065D01*
X1432424Y1047098D01*
X1433122Y1046088D01*
X1433757Y1045037D01*
X1434328Y1043950D01*
X1434832Y1042830D01*
X1435267Y1041681D01*
X1435633Y1040509D01*
X1435926Y1039317D01*
X1436148Y1038109D01*
X1436296Y1036890D01*
X1436370Y1035664D01*
X1436370Y1034436D01*
X979170Y1034436D02*
X979096Y1033210D01*
X978948Y1031991D01*
X978726Y1030783D01*
X978433Y1029591D01*
X978067Y1028419D01*
X977632Y1027270D01*
X977128Y1026151D01*
X976557Y1025063D01*
X975922Y1024012D01*
X975224Y1023002D01*
X974467Y1022035D01*
X973653Y1021116D01*
X972784Y1020247D01*
X971865Y1019433D01*
X970898Y1018676D01*
X969888Y1017978D01*
X968837Y1017343D01*
X967750Y1016772D01*
X966630Y1016268D01*
X965481Y1015833D01*
X964309Y1015467D01*
X963117Y1015174D01*
X961909Y1014952D01*
X960690Y1014804D01*
X959464Y1014730D01*
X958236Y1014730D01*
X957010Y1014804D01*
X955791Y1014952D01*
X954583Y1015174D01*
X953391Y1015467D01*
X952219Y1015833D01*
X951070Y1016268D01*
X949951Y1016772D01*
X948863Y1017343D01*
X947812Y1017978D01*
X946802Y1018676D01*
X945835Y1019433D01*
X944916Y1020247D01*
X944047Y1021116D01*
X943233Y1022035D01*
X942476Y1023002D01*
X941778Y1024012D01*
X941143Y1025063D01*
X940572Y1026151D01*
X940068Y1027270D01*
X939633Y1028419D01*
X939267Y1029591D01*
X938974Y1030783D01*
X938752Y1031991D01*
X938604Y1033210D01*
X938530Y1034436D01*
X938530Y1035664D01*
X938604Y1036890D01*
X938752Y1038109D01*
X938974Y1039317D01*
X939267Y1040509D01*
X939633Y1041681D01*
X940068Y1042830D01*
X940572Y1043950D01*
X941143Y1045037D01*
X941778Y1046088D01*
X942476Y1047098D01*
X943233Y1048065D01*
X944047Y1048984D01*
X944916Y1049853D01*
X945835Y1050667D01*
X946802Y1051424D01*
X947812Y1052122D01*
X948863Y1052757D01*
X949951Y1053328D01*
X951070Y1053832D01*
X952219Y1054267D01*
X953391Y1054633D01*
X954583Y1054926D01*
X955791Y1055148D01*
X957010Y1055296D01*
X958236Y1055370D01*
X959464Y1055370D01*
X960690Y1055296D01*
X961909Y1055148D01*
X963117Y1054926D01*
X964309Y1054633D01*
X965481Y1054267D01*
X966630Y1053832D01*
X967750Y1053328D01*
X968837Y1052757D01*
X969888Y1052122D01*
X970898Y1051424D01*
X971865Y1050667D01*
X972784Y1049853D01*
X973653Y1048984D01*
X974467Y1048065D01*
X975224Y1047098D01*
X975922Y1046088D01*
X976557Y1045037D01*
X977128Y1043950D01*
X977632Y1042830D01*
X978067Y1041681D01*
X978433Y1040509D01*
X978726Y1039317D01*
X978948Y1038109D01*
X979096Y1036890D01*
X979170Y1035664D01*
X979170Y1034436D01*
X2198370Y1218586D02*
X2198296Y1217360D01*
X2198148Y1216141D01*
X2197926Y1214933D01*
X2197633Y1213741D01*
X2197267Y1212569D01*
X2196832Y1211420D01*
X2196328Y1210301D01*
X2195757Y1209213D01*
X2195122Y1208162D01*
X2194424Y1207152D01*
X2193667Y1206185D01*
X2192853Y1205266D01*
X2191984Y1204397D01*
X2191065Y1203583D01*
X2190098Y1202826D01*
X2189088Y1202128D01*
X2188037Y1201493D01*
X2186950Y1200922D01*
X2185830Y1200418D01*
X2184681Y1199983D01*
X2183509Y1199617D01*
X2182317Y1199324D01*
X2181109Y1199102D01*
X2179890Y1198954D01*
X2178664Y1198880D01*
X2177436Y1198880D01*
X2176210Y1198954D01*
X2174991Y1199102D01*
X2173783Y1199324D01*
X2172591Y1199617D01*
X2171419Y1199983D01*
X2170270Y1200418D01*
X2169151Y1200922D01*
X2168063Y1201493D01*
X2167012Y1202128D01*
X2166002Y1202826D01*
X2165035Y1203583D01*
X2164116Y1204397D01*
X2163247Y1205266D01*
X2162433Y1206185D01*
X2161676Y1207152D01*
X2160978Y1208162D01*
X2160343Y1209213D01*
X2159772Y1210301D01*
X2159268Y1211420D01*
X2158833Y1212569D01*
X2158467Y1213741D01*
X2158174Y1214933D01*
X2157952Y1216141D01*
X2157804Y1217360D01*
X2157730Y1218586D01*
X2157730Y1219814D01*
X2157804Y1221040D01*
X2157952Y1222259D01*
X2158174Y1223467D01*
X2158467Y1224659D01*
X2158833Y1225831D01*
X2159268Y1226980D01*
X2159772Y1228100D01*
X2160343Y1229187D01*
X2160978Y1230238D01*
X2161676Y1231248D01*
X2162433Y1232215D01*
X2163247Y1233134D01*
X2164116Y1234003D01*
X2165035Y1234817D01*
X2166002Y1235574D01*
X2167012Y1236272D01*
X2168063Y1236907D01*
X2169151Y1237478D01*
X2170270Y1237982D01*
X2171419Y1238417D01*
X2172591Y1238783D01*
X2173783Y1239076D01*
X2174991Y1239298D01*
X2176210Y1239446D01*
X2177436Y1239520D01*
X2178664Y1239520D01*
X2179890Y1239446D01*
X2181109Y1239298D01*
X2182317Y1239076D01*
X2183509Y1238783D01*
X2184681Y1238417D01*
X2185830Y1237982D01*
X2186950Y1237478D01*
X2188037Y1236907D01*
X2189088Y1236272D01*
X2190098Y1235574D01*
X2191065Y1234817D01*
X2191984Y1234003D01*
X2192853Y1233134D01*
X2193667Y1232215D01*
X2194424Y1231248D01*
X2195122Y1230238D01*
X2195757Y1229187D01*
X2196328Y1228100D01*
X2196832Y1226980D01*
X2197267Y1225831D01*
X2197633Y1224659D01*
X2197926Y1223467D01*
X2198148Y1222259D01*
X2198296Y1221040D01*
X2198370Y1219814D01*
X2198370Y1218586D01*
X2198370Y634386D02*
X2198296Y633160D01*
X2198148Y631941D01*
X2197926Y630733D01*
X2197633Y629541D01*
X2197267Y628369D01*
X2196832Y627220D01*
X2196328Y626101D01*
X2195757Y625013D01*
X2195122Y623962D01*
X2194424Y622952D01*
X2193667Y621985D01*
X2192853Y621066D01*
X2191984Y620197D01*
X2191065Y619383D01*
X2190098Y618626D01*
X2189088Y617928D01*
X2188037Y617293D01*
X2186950Y616722D01*
X2185830Y616218D01*
X2184681Y615783D01*
X2183509Y615417D01*
X2182317Y615124D01*
X2181109Y614902D01*
X2179890Y614754D01*
X2178664Y614680D01*
X2177436Y614680D01*
X2176210Y614754D01*
X2174991Y614902D01*
X2173783Y615124D01*
X2172591Y615417D01*
X2171419Y615783D01*
X2170270Y616218D01*
X2169151Y616722D01*
X2168063Y617293D01*
X2167012Y617928D01*
X2166002Y618626D01*
X2165035Y619383D01*
X2164116Y620197D01*
X2163247Y621066D01*
X2162433Y621985D01*
X2161676Y622952D01*
X2160978Y623962D01*
X2160343Y625013D01*
X2159772Y626101D01*
X2159268Y627220D01*
X2158833Y628369D01*
X2158467Y629541D01*
X2158174Y630733D01*
X2157952Y631941D01*
X2157804Y633160D01*
X2157730Y634386D01*
X2157730Y635614D01*
X2157804Y636840D01*
X2157952Y638059D01*
X2158174Y639267D01*
X2158467Y640459D01*
X2158833Y641631D01*
X2159268Y642780D01*
X2159772Y643900D01*
X2160343Y644987D01*
X2160978Y646038D01*
X2161676Y647048D01*
X2162433Y648015D01*
X2163247Y648934D01*
X2164116Y649803D01*
X2165035Y650617D01*
X2166002Y651374D01*
X2167012Y652072D01*
X2168063Y652707D01*
X2169151Y653278D01*
X2170270Y653782D01*
X2171419Y654217D01*
X2172591Y654583D01*
X2173783Y654876D01*
X2174991Y655098D01*
X2176210Y655246D01*
X2177436Y655320D01*
X2178664Y655320D01*
X2179890Y655246D01*
X2181109Y655098D01*
X2182317Y654876D01*
X2183509Y654583D01*
X2184681Y654217D01*
X2185830Y653782D01*
X2186950Y653278D01*
X2188037Y652707D01*
X2189088Y652072D01*
X2190098Y651374D01*
X2191065Y650617D01*
X2191984Y649803D01*
X2192853Y648934D01*
X2193667Y648015D01*
X2194424Y647048D01*
X2195122Y646038D01*
X2195757Y644987D01*
X2196328Y643900D01*
X2196832Y642780D01*
X2197267Y641631D01*
X2197633Y640459D01*
X2197926Y639267D01*
X2198148Y638059D01*
X2198296Y636840D01*
X2198370Y635614D01*
X2198370Y634386D01*
X2198370Y50186D02*
X2198296Y48960D01*
X2198148Y47741D01*
X2197926Y46533D01*
X2197633Y45341D01*
X2197267Y44169D01*
X2196832Y43020D01*
X2196328Y41901D01*
X2195757Y40813D01*
X2195122Y39762D01*
X2194424Y38752D01*
X2193667Y37785D01*
X2192853Y36866D01*
X2191984Y35997D01*
X2191065Y35183D01*
X2190098Y34426D01*
X2189088Y33728D01*
X2188037Y33093D01*
X2186950Y32522D01*
X2185830Y32018D01*
X2184681Y31583D01*
X2183509Y31217D01*
X2182317Y30924D01*
X2181109Y30702D01*
X2179890Y30554D01*
X2178664Y30480D01*
X2177436Y30480D01*
X2176210Y30554D01*
X2174991Y30702D01*
X2173783Y30924D01*
X2172591Y31217D01*
X2171419Y31583D01*
X2170270Y32018D01*
X2169151Y32522D01*
X2168063Y33093D01*
X2167012Y33728D01*
X2166002Y34426D01*
X2165035Y35183D01*
X2164116Y35997D01*
X2163247Y36866D01*
X2162433Y37785D01*
X2161676Y38752D01*
X2160978Y39762D01*
X2160343Y40813D01*
X2159772Y41901D01*
X2159268Y43020D01*
X2158833Y44169D01*
X2158467Y45341D01*
X2158174Y46533D01*
X2157952Y47741D01*
X2157804Y48960D01*
X2157730Y50186D01*
X2157730Y51414D01*
X2157804Y52640D01*
X2157952Y53859D01*
X2158174Y55067D01*
X2158467Y56259D01*
X2158833Y57431D01*
X2159268Y58580D01*
X2159772Y59700D01*
X2160343Y60787D01*
X2160978Y61838D01*
X2161676Y62848D01*
X2162433Y63815D01*
X2163247Y64734D01*
X2164116Y65603D01*
X2165035Y66417D01*
X2166002Y67174D01*
X2167012Y67872D01*
X2168063Y68507D01*
X2169151Y69078D01*
X2170270Y69582D01*
X2171419Y70017D01*
X2172591Y70383D01*
X2173783Y70676D01*
X2174991Y70898D01*
X2176210Y71046D01*
X2177436Y71120D01*
X2178664Y71120D01*
X2179890Y71046D01*
X2181109Y70898D01*
X2182317Y70676D01*
X2183509Y70383D01*
X2184681Y70017D01*
X2185830Y69582D01*
X2186950Y69078D01*
X2188037Y68507D01*
X2189088Y67872D01*
X2190098Y67174D01*
X2191065Y66417D01*
X2191984Y65603D01*
X2192853Y64734D01*
X2193667Y63815D01*
X2194424Y62848D01*
X2195122Y61838D01*
X2195757Y60787D01*
X2196328Y59700D01*
X2196832Y58580D01*
X2197267Y57431D01*
X2197633Y56259D01*
X2197926Y55067D01*
X2198148Y53859D01*
X2198296Y52640D01*
X2198370Y51414D01*
X2198370Y50186D01*
M02*
