M48
;GenerationSoftware,Autodesk,EAGLE,9.6.2*%
;CreationDate,2021-12-23T21:36:24Z*%
FMAT,2
ICI,OFF
METRIC,TZ,000.000
T3C0.900
T2C1.300
T1C4.064
%
G90
M71
T1
X5080Y121920
X5080Y63500
X5080Y5080
X111760Y5080
X95885Y57785
X141605Y57785
X141605Y103505
X95885Y103505
X217805Y121920
X217805Y63500
X217805Y5080
T2
X128220Y68010
X121285Y45085
X131445Y58039
X124020Y96960
X136525Y92075
X198755Y31115
X198755Y43815
X205105Y50165
X217805Y50165
X217805Y55245
X212725Y67945
X194945Y55245
X197485Y67945
X154305Y45085
X136525Y69215
X106045Y57785
X205105Y22225
X210185Y22225
X215265Y22225
X207645Y24765
X212725Y24765
X217805Y24765
X205105Y27305
X210185Y27305
X215265Y27305
X207645Y29845
X212725Y29845
X217805Y29845
X205105Y42545
X210185Y45085
X212725Y42545
X217805Y45085
X119820Y96960
X119820Y101160
X124020Y101160
X193285Y113860
X193285Y109660
X197485Y113860
X197485Y109660
X201685Y113860
X201685Y109660
X183760Y7865
X187960Y7865
X192160Y7865
X183760Y12065
X187960Y12065
X192160Y12065
X183760Y16265
X187960Y16265
X192160Y16265
X164955Y93295
X164955Y89095
X164955Y84895
X164955Y80695
X169155Y93295
X169155Y89095
X169155Y84895
X169155Y80695
X173355Y93295
X173355Y89095
X173355Y84895
X173355Y80695
X177555Y93295
X177555Y89095
X177555Y84895
X177555Y80695
X181755Y93295
X181755Y89095
X181755Y84895
X181755Y80695
X99745Y19345
X103945Y19345
X108145Y19345
X112345Y19345
X99745Y23545
X103945Y23545
X108145Y23545
X112345Y23545
X99745Y27745
X103945Y27745
X108145Y27745
X112345Y27745
X99745Y31945
X103945Y31945
X108145Y31945
X112345Y31945
X99745Y36145
X103945Y36145
X108145Y36145
X112345Y36145
X99745Y40345
X103945Y40345
X108145Y40345
X112345Y40345
X115620Y92010
X128220Y92010
X115620Y87210
X128220Y87210
X115620Y82410
X128220Y82410
X115620Y77610
X128220Y77610
X115620Y72810
X128220Y72810
X115620Y68010
T3
X215265Y88265
X215265Y90805
X215265Y93345
X215265Y95885
X99695Y90805
X99695Y88265
X99695Y85725
X99695Y83185
X99695Y80645
X99695Y78105
X99695Y75565
X99695Y73025
X107315Y73025
X107315Y75565
X107315Y78105
X107315Y80645
X107315Y83185
X107315Y85725
X107315Y88265
X107315Y90805
X108585Y118745
X106045Y118745
X103505Y118745
X100965Y118745
X98425Y118745
X95885Y118745
X93345Y118745
X90805Y118745
X90805Y111125
X93345Y111125
X95885Y111125
X98425Y111125
X100965Y111125
X103505Y111125
X106045Y111125
X108585Y111125
X161925Y118745
X159385Y118745
X156845Y118745
X154305Y118745
X151765Y118745
X149225Y118745
X146685Y118745
X144145Y118745
X144145Y111125
X146685Y111125
X149225Y111125
X151765Y111125
X154305Y111125
X156845Y111125
X159385Y111125
X161925Y111125
X133985Y118745
X131445Y118745
X128905Y118745
X126365Y118745
X123825Y118745
X121285Y118745
X118745Y118745
X118745Y111125
X121285Y111125
X123825Y111125
X126365Y111125
X128905Y111125
X131445Y111125
X133985Y111125
X74295Y65405
X71755Y65405
X69215Y65405
X66675Y65405
X64135Y65405
X61595Y65405
X59055Y65405
X59055Y57785
X61595Y57785
X64135Y57785
X66675Y57785
X69215Y57785
X71755Y57785
X74295Y57785
X74295Y50165
X71755Y50165
X69215Y50165
X66675Y50165
X64135Y50165
X61595Y50165
X59055Y50165
X59055Y42545
X61595Y42545
X64135Y42545
X66675Y42545
X69215Y42545
X71755Y42545
X74295Y42545
X74295Y34925
X71755Y34925
X69215Y34925
X66675Y34925
X64135Y34925
X61595Y34925
X59055Y34925
X59055Y27305
X61595Y27305
X64135Y27305
X66675Y27305
X69215Y27305
X71755Y27305
X74295Y27305
X145415Y29845
X142875Y29845
X140335Y29845
X137795Y29845
X135255Y29845
X132715Y29845
X130175Y29845
X130175Y22225
X132715Y22225
X135255Y22225
X137795Y22225
X140335Y22225
X142875Y22225
X145415Y22225
X145415Y14605
X142875Y14605
X140335Y14605
X137795Y14605
X135255Y14605
X132715Y14605
X130175Y14605
X130175Y6985
X132715Y6985
X135255Y6985
X137795Y6985
X140335Y6985
X142875Y6985
X145415Y6985
X170815Y29845
X168275Y29845
X165735Y29845
X163195Y29845
X160655Y29845
X158115Y29845
X155575Y29845
X155575Y22225
X158115Y22225
X160655Y22225
X163195Y22225
X165735Y22225
X168275Y22225
X170815Y22225
X173355Y14605
X170815Y14605
X168275Y14605
X165735Y14605
X163195Y14605
X160655Y14605
X158115Y14605
X155575Y14605
X155575Y6985
X158115Y6985
X160655Y6985
X163195Y6985
X165735Y6985
X168275Y6985
X170815Y6985
X173355Y6985
X187325Y34925
X187325Y32385
X187325Y29845
X187325Y27305
X194945Y27305
X194945Y29845
X194945Y32385
X194945Y34925
X169545Y55245
X167005Y55245
X164465Y55245
X164465Y47625
X167005Y47625
X23495Y88265
X184785Y55245
X182245Y55245
X179705Y55245
X179705Y47625
X182245Y47625
X184785Y47625
X84455Y90805
X84455Y88265
X84455Y85725
X84455Y83185
X84455Y80645
X84455Y78105
X84455Y75565
X84455Y73025
X92075Y73025
X92075Y75565
X92075Y78105
X92075Y80645
X92075Y83185
X92075Y85725
X92075Y88265
X92075Y90805
X76835Y118745
X74295Y118745
X71755Y118745
X69215Y118745
X66675Y118745
X64135Y118745
X61595Y118745
X59055Y118745
X59055Y111125
X61595Y111125
X64135Y111125
X66675Y111125
X69215Y111125
X71755Y111125
X74295Y111125
X76835Y111125
X48895Y107315
X46355Y107315
X43815Y107315
X41275Y107315
X38735Y107315
X36195Y107315
X33655Y107315
X33655Y99695
X36195Y99695
X38735Y99695
X41275Y99695
X43815Y99695
X46355Y99695
X48895Y99695
X13335Y92075
X6985Y92075
X13335Y111125
X33655Y88265
X38735Y88265
X33655Y73025
X38735Y73025
X33655Y57785
X38735Y57785
X22225Y46355
X17145Y46355
X17145Y50165
X29845Y50165
X24765Y31115
X29845Y31115
X29845Y27305
X17145Y27305
X17145Y19685
X22225Y19685
X19685Y17145
X17145Y14605
X19685Y10795
X22225Y5715
X27305Y5715
X29845Y8255
X29845Y14605
X32385Y14605
X32385Y10795
X34925Y12065
X37465Y10795
X37465Y14605
X40005Y14605
X42545Y8255
X50165Y10795
X52705Y14605
X27305Y18415
X27305Y22225
X40005Y18415
X40005Y22225
X47625Y64135
X47625Y85725
X47625Y92075
X50165Y88265
X76835Y99695
X76835Y107315
X38735Y111125
X43815Y111125
X43815Y116205
X38735Y116205
X80645Y122555
X84455Y123825
X113665Y121285
X121285Y121285
X133985Y121285
X139065Y118745
X169545Y120015
X172085Y117475
X169545Y114935
X172085Y112395
X172085Y108585
X174625Y106045
X169545Y106045
X169545Y103505
X161925Y106045
X156845Y103505
X149225Y106045
X139065Y113665
X142875Y92075
X155575Y92075
X142875Y84455
X155575Y84455
X151765Y81915
X154305Y79375
X149225Y79375
X79375Y27305
X84455Y27305
X79375Y50165
X84455Y50165
X80645Y109855
X84455Y111125
X67945Y14605
X75565Y10795
X85725Y5715
X111125Y52705
X116205Y52705
X184785Y23495
X179705Y31115
X182245Y33655
X184785Y36195
X179705Y36195
X182245Y38735
X175895Y33655
X174625Y37465
X163195Y33655
X161925Y37465
X164465Y41275
X13335Y103505
X179705Y41275
X174625Y45085
X170815Y45085
X158115Y45085
X160655Y57785
X159385Y61595
X160655Y65405
X164465Y61595
X168275Y61595
X173355Y61595
X177165Y61595
X177165Y65405
X173355Y65405
X173355Y57785
X177165Y57785
X182245Y61595
X186055Y61595
X189865Y65405
X191135Y61595
X189865Y57785
X198755Y62865
X203835Y78105
X203835Y83185
X205105Y73025
X217805Y73025
X211455Y62865
X182245Y120015
X184785Y117475
X182245Y114935
X184785Y112395
X31115Y42545
X36195Y51435
X137795Y17145
X150495Y12065
X150495Y6985
X99695Y116205
X140335Y88265
X151765Y121285
X192405Y41275
X194945Y38735
X187325Y45085
X28575Y42545
X26035Y42545
X23495Y42545
X20955Y42545
X18415Y42545
X15875Y42545
X13335Y42545
X13335Y34925
X15875Y34925
X140335Y70485
X136525Y37465
X18415Y34925
X20955Y34925
X113665Y108585
X23495Y34925
X26035Y34925
X28575Y34925
X31115Y34925
X76835Y95885
X74295Y95885
X71755Y95885
X69215Y95885
X66675Y95885
X64135Y95885
X61595Y95885
X59055Y95885
X59055Y88265
X61595Y88265
X64135Y88265
X66675Y88265
X69215Y88265
X169545Y47625
X71755Y88265
X74295Y88265
X76835Y88265
X76835Y80645
X74295Y80645
X71755Y80645
X69215Y80645
X66675Y80645
X64135Y80645
X61595Y80645
X59055Y80645
X59055Y73025
X61595Y73025
X64135Y73025
X66675Y73025
X69215Y73025
X71755Y73025
X74295Y73025
X76835Y73025
X28575Y95885
X26035Y95885
X23495Y95885
X20955Y95885
X18415Y95885
X15875Y95885
X13335Y95885
X13335Y88265
X15875Y88265
X18415Y88265
X20955Y88265
X26035Y88265
X28575Y88265
X28575Y80645
X26035Y80645
X23495Y80645
X20955Y80645
X18415Y80645
X15875Y80645
X13335Y80645
X13335Y73025
X15875Y73025
X18415Y73025
X20955Y73025
X23495Y73025
X26035Y73025
X28575Y73025
X28575Y65405
X26035Y65405
X23495Y65405
X20955Y65405
X18415Y65405
X15875Y65405
X13335Y65405
X13335Y57785
X15875Y57785
X18415Y57785
X20955Y57785
X23495Y57785
X26035Y57785
X28575Y57785
X207645Y95885
X207645Y93345
X207645Y90805
X207645Y88265
X207645Y85725
X207645Y83185
X207645Y80645
X207645Y78105
X215265Y78105
X215265Y80645
X215265Y83185
X215265Y85725
X177165Y41275
M30