%TF.GenerationSoftware,KiCad,Pcbnew,(5.1.12)-1*%
%TF.CreationDate,2022-07-12T11:00:18-05:00*%
%TF.ProjectId,mpe_v0.3,6d70655f-7630-42e3-932e-6b696361645f,rev?*%
%TF.SameCoordinates,Original*%
%TF.FileFunction,Soldermask,Top*%
%TF.FilePolarity,Negative*%
%FSLAX46Y46*%
G04 Gerber Fmt 4.6, Leading zero omitted, Abs format (unit mm)*
G04 Created by KiCad (PCBNEW (5.1.12)-1) date 2022-07-12 11:00:18*
%MOMM*%
%LPD*%
G01*
G04 APERTURE LIST*
%ADD10R,1.700000X1.700000*%
%ADD11O,1.700000X1.700000*%
%ADD12C,1.500000*%
%ADD13C,2.000000*%
%ADD14C,1.800000*%
%ADD15R,1.800000X1.800000*%
%ADD16R,2.540000X2.540000*%
%ADD17C,2.540000*%
%ADD18C,3.000000*%
%ADD19R,3.000000X3.000000*%
%ADD20O,1.600000X1.600000*%
%ADD21R,1.600000X1.600000*%
%ADD22O,1.727200X2.032000*%
%ADD23C,4.064000*%
G04 APERTURE END LIST*
%TO.C,C2*%
G36*
G01*
X157654500Y-112870000D02*
X157654500Y-111920000D01*
G75*
G02*
X157904500Y-111670000I250000J0D01*
G01*
X158579500Y-111670000D01*
G75*
G02*
X158829500Y-111920000I0J-250000D01*
G01*
X158829500Y-112870000D01*
G75*
G02*
X158579500Y-113120000I-250000J0D01*
G01*
X157904500Y-113120000D01*
G75*
G02*
X157654500Y-112870000I0J250000D01*
G01*
G37*
G36*
G01*
X155579500Y-112870000D02*
X155579500Y-111920000D01*
G75*
G02*
X155829500Y-111670000I250000J0D01*
G01*
X156504500Y-111670000D01*
G75*
G02*
X156754500Y-111920000I0J-250000D01*
G01*
X156754500Y-112870000D01*
G75*
G02*
X156504500Y-113120000I-250000J0D01*
G01*
X155829500Y-113120000D01*
G75*
G02*
X155579500Y-112870000I0J250000D01*
G01*
G37*
%TD*%
D10*
%TO.C,J16*%
X136398000Y-90805000D03*
D11*
X136398000Y-93345000D03*
X136398000Y-95885000D03*
X136398000Y-98425000D03*
%TD*%
%TO.C,J15*%
X136398000Y-108585000D03*
X136398000Y-111125000D03*
X136398000Y-113665000D03*
D10*
X136398000Y-116205000D03*
%TD*%
D12*
%TO.C,Y1*%
X149606000Y-83058000D03*
X144726000Y-83058000D03*
%TD*%
%TO.C,C8*%
G36*
G01*
X149007500Y-78646000D02*
X149007500Y-79596000D01*
G75*
G02*
X148757500Y-79846000I-250000J0D01*
G01*
X148082500Y-79846000D01*
G75*
G02*
X147832500Y-79596000I0J250000D01*
G01*
X147832500Y-78646000D01*
G75*
G02*
X148082500Y-78396000I250000J0D01*
G01*
X148757500Y-78396000D01*
G75*
G02*
X149007500Y-78646000I0J-250000D01*
G01*
G37*
G36*
G01*
X151082500Y-78646000D02*
X151082500Y-79596000D01*
G75*
G02*
X150832500Y-79846000I-250000J0D01*
G01*
X150157500Y-79846000D01*
G75*
G02*
X149907500Y-79596000I0J250000D01*
G01*
X149907500Y-78646000D01*
G75*
G02*
X150157500Y-78396000I250000J0D01*
G01*
X150832500Y-78396000D01*
G75*
G02*
X151082500Y-78646000I0J-250000D01*
G01*
G37*
%TD*%
%TO.C,C7*%
G36*
G01*
X144954500Y-79596000D02*
X144954500Y-78646000D01*
G75*
G02*
X145204500Y-78396000I250000J0D01*
G01*
X145879500Y-78396000D01*
G75*
G02*
X146129500Y-78646000I0J-250000D01*
G01*
X146129500Y-79596000D01*
G75*
G02*
X145879500Y-79846000I-250000J0D01*
G01*
X145204500Y-79846000D01*
G75*
G02*
X144954500Y-79596000I0J250000D01*
G01*
G37*
G36*
G01*
X142879500Y-79596000D02*
X142879500Y-78646000D01*
G75*
G02*
X143129500Y-78396000I250000J0D01*
G01*
X143804500Y-78396000D01*
G75*
G02*
X144054500Y-78646000I0J-250000D01*
G01*
X144054500Y-79596000D01*
G75*
G02*
X143804500Y-79846000I-250000J0D01*
G01*
X143129500Y-79846000D01*
G75*
G02*
X142879500Y-79596000I0J250000D01*
G01*
G37*
%TD*%
D11*
%TO.C,J11*%
X183388000Y-126365000D03*
X183388000Y-123825000D03*
X183388000Y-121285000D03*
D10*
X183388000Y-118745000D03*
%TD*%
%TO.C,C6*%
G36*
G01*
X169070000Y-99742500D02*
X170020000Y-99742500D01*
G75*
G02*
X170270000Y-99992500I0J-250000D01*
G01*
X170270000Y-100667500D01*
G75*
G02*
X170020000Y-100917500I-250000J0D01*
G01*
X169070000Y-100917500D01*
G75*
G02*
X168820000Y-100667500I0J250000D01*
G01*
X168820000Y-99992500D01*
G75*
G02*
X169070000Y-99742500I250000J0D01*
G01*
G37*
G36*
G01*
X169070000Y-97667500D02*
X170020000Y-97667500D01*
G75*
G02*
X170270000Y-97917500I0J-250000D01*
G01*
X170270000Y-98592500D01*
G75*
G02*
X170020000Y-98842500I-250000J0D01*
G01*
X169070000Y-98842500D01*
G75*
G02*
X168820000Y-98592500I0J250000D01*
G01*
X168820000Y-97917500D01*
G75*
G02*
X169070000Y-97667500I250000J0D01*
G01*
G37*
%TD*%
%TO.C,C5*%
G36*
G01*
X145578500Y-113190000D02*
X145578500Y-114140000D01*
G75*
G02*
X145328500Y-114390000I-250000J0D01*
G01*
X144653500Y-114390000D01*
G75*
G02*
X144403500Y-114140000I0J250000D01*
G01*
X144403500Y-113190000D01*
G75*
G02*
X144653500Y-112940000I250000J0D01*
G01*
X145328500Y-112940000D01*
G75*
G02*
X145578500Y-113190000I0J-250000D01*
G01*
G37*
G36*
G01*
X147653500Y-113190000D02*
X147653500Y-114140000D01*
G75*
G02*
X147403500Y-114390000I-250000J0D01*
G01*
X146728500Y-114390000D01*
G75*
G02*
X146478500Y-114140000I0J250000D01*
G01*
X146478500Y-113190000D01*
G75*
G02*
X146728500Y-112940000I250000J0D01*
G01*
X147403500Y-112940000D01*
G75*
G02*
X147653500Y-113190000I0J-250000D01*
G01*
G37*
%TD*%
%TO.C,C4*%
G36*
G01*
X153068000Y-86110500D02*
X154018000Y-86110500D01*
G75*
G02*
X154268000Y-86360500I0J-250000D01*
G01*
X154268000Y-87035500D01*
G75*
G02*
X154018000Y-87285500I-250000J0D01*
G01*
X153068000Y-87285500D01*
G75*
G02*
X152818000Y-87035500I0J250000D01*
G01*
X152818000Y-86360500D01*
G75*
G02*
X153068000Y-86110500I250000J0D01*
G01*
G37*
G36*
G01*
X153068000Y-88185500D02*
X154018000Y-88185500D01*
G75*
G02*
X154268000Y-88435500I0J-250000D01*
G01*
X154268000Y-89110500D01*
G75*
G02*
X154018000Y-89360500I-250000J0D01*
G01*
X153068000Y-89360500D01*
G75*
G02*
X152818000Y-89110500I0J250000D01*
G01*
X152818000Y-88435500D01*
G75*
G02*
X153068000Y-88185500I250000J0D01*
G01*
G37*
%TD*%
D13*
%TO.C,SW1*%
X185928000Y-111910000D03*
X181428000Y-111910000D03*
X185928000Y-105410000D03*
X181428000Y-105410000D03*
%TD*%
%TO.C,R12*%
G36*
G01*
X178885001Y-108455000D02*
X177984999Y-108455000D01*
G75*
G02*
X177735000Y-108205001I0J249999D01*
G01*
X177735000Y-107504999D01*
G75*
G02*
X177984999Y-107255000I249999J0D01*
G01*
X178885001Y-107255000D01*
G75*
G02*
X179135000Y-107504999I0J-249999D01*
G01*
X179135000Y-108205001D01*
G75*
G02*
X178885001Y-108455000I-249999J0D01*
G01*
G37*
G36*
G01*
X178885001Y-110455000D02*
X177984999Y-110455000D01*
G75*
G02*
X177735000Y-110205001I0J249999D01*
G01*
X177735000Y-109504999D01*
G75*
G02*
X177984999Y-109255000I249999J0D01*
G01*
X178885001Y-109255000D01*
G75*
G02*
X179135000Y-109504999I0J-249999D01*
G01*
X179135000Y-110205001D01*
G75*
G02*
X178885001Y-110455000I-249999J0D01*
G01*
G37*
%TD*%
%TO.C,C1*%
G36*
G01*
X183838000Y-115410000D02*
X183838000Y-114460000D01*
G75*
G02*
X184088000Y-114210000I250000J0D01*
G01*
X184763000Y-114210000D01*
G75*
G02*
X185013000Y-114460000I0J-250000D01*
G01*
X185013000Y-115410000D01*
G75*
G02*
X184763000Y-115660000I-250000J0D01*
G01*
X184088000Y-115660000D01*
G75*
G02*
X183838000Y-115410000I0J250000D01*
G01*
G37*
G36*
G01*
X181763000Y-115410000D02*
X181763000Y-114460000D01*
G75*
G02*
X182013000Y-114210000I250000J0D01*
G01*
X182688000Y-114210000D01*
G75*
G02*
X182938000Y-114460000I0J-250000D01*
G01*
X182938000Y-115410000D01*
G75*
G02*
X182688000Y-115660000I-250000J0D01*
G01*
X182013000Y-115660000D01*
G75*
G02*
X181763000Y-115410000I0J250000D01*
G01*
G37*
%TD*%
%TO.C,R11*%
G36*
G01*
X174733000Y-87814999D02*
X174733000Y-88715001D01*
G75*
G02*
X174483001Y-88965000I-249999J0D01*
G01*
X173782999Y-88965000D01*
G75*
G02*
X173533000Y-88715001I0J249999D01*
G01*
X173533000Y-87814999D01*
G75*
G02*
X173782999Y-87565000I249999J0D01*
G01*
X174483001Y-87565000D01*
G75*
G02*
X174733000Y-87814999I0J-249999D01*
G01*
G37*
G36*
G01*
X176733000Y-87814999D02*
X176733000Y-88715001D01*
G75*
G02*
X176483001Y-88965000I-249999J0D01*
G01*
X175782999Y-88965000D01*
G75*
G02*
X175533000Y-88715001I0J249999D01*
G01*
X175533000Y-87814999D01*
G75*
G02*
X175782999Y-87565000I249999J0D01*
G01*
X176483001Y-87565000D01*
G75*
G02*
X176733000Y-87814999I0J-249999D01*
G01*
G37*
%TD*%
D14*
%TO.C,D1*%
X182753000Y-88265000D03*
D15*
X185293000Y-88265000D03*
%TD*%
%TO.C,U1*%
G36*
G01*
X155883000Y-107330000D02*
X155883000Y-108655000D01*
G75*
G02*
X155808000Y-108730000I-75000J0D01*
G01*
X155658000Y-108730000D01*
G75*
G02*
X155583000Y-108655000I0J75000D01*
G01*
X155583000Y-107330000D01*
G75*
G02*
X155658000Y-107255000I75000J0D01*
G01*
X155808000Y-107255000D01*
G75*
G02*
X155883000Y-107330000I0J-75000D01*
G01*
G37*
G36*
G01*
X155383000Y-107330000D02*
X155383000Y-108655000D01*
G75*
G02*
X155308000Y-108730000I-75000J0D01*
G01*
X155158000Y-108730000D01*
G75*
G02*
X155083000Y-108655000I0J75000D01*
G01*
X155083000Y-107330000D01*
G75*
G02*
X155158000Y-107255000I75000J0D01*
G01*
X155308000Y-107255000D01*
G75*
G02*
X155383000Y-107330000I0J-75000D01*
G01*
G37*
G36*
G01*
X154883000Y-107330000D02*
X154883000Y-108655000D01*
G75*
G02*
X154808000Y-108730000I-75000J0D01*
G01*
X154658000Y-108730000D01*
G75*
G02*
X154583000Y-108655000I0J75000D01*
G01*
X154583000Y-107330000D01*
G75*
G02*
X154658000Y-107255000I75000J0D01*
G01*
X154808000Y-107255000D01*
G75*
G02*
X154883000Y-107330000I0J-75000D01*
G01*
G37*
G36*
G01*
X154383000Y-107330000D02*
X154383000Y-108655000D01*
G75*
G02*
X154308000Y-108730000I-75000J0D01*
G01*
X154158000Y-108730000D01*
G75*
G02*
X154083000Y-108655000I0J75000D01*
G01*
X154083000Y-107330000D01*
G75*
G02*
X154158000Y-107255000I75000J0D01*
G01*
X154308000Y-107255000D01*
G75*
G02*
X154383000Y-107330000I0J-75000D01*
G01*
G37*
G36*
G01*
X153883000Y-107330000D02*
X153883000Y-108655000D01*
G75*
G02*
X153808000Y-108730000I-75000J0D01*
G01*
X153658000Y-108730000D01*
G75*
G02*
X153583000Y-108655000I0J75000D01*
G01*
X153583000Y-107330000D01*
G75*
G02*
X153658000Y-107255000I75000J0D01*
G01*
X153808000Y-107255000D01*
G75*
G02*
X153883000Y-107330000I0J-75000D01*
G01*
G37*
G36*
G01*
X153383000Y-107330000D02*
X153383000Y-108655000D01*
G75*
G02*
X153308000Y-108730000I-75000J0D01*
G01*
X153158000Y-108730000D01*
G75*
G02*
X153083000Y-108655000I0J75000D01*
G01*
X153083000Y-107330000D01*
G75*
G02*
X153158000Y-107255000I75000J0D01*
G01*
X153308000Y-107255000D01*
G75*
G02*
X153383000Y-107330000I0J-75000D01*
G01*
G37*
G36*
G01*
X152883000Y-107330000D02*
X152883000Y-108655000D01*
G75*
G02*
X152808000Y-108730000I-75000J0D01*
G01*
X152658000Y-108730000D01*
G75*
G02*
X152583000Y-108655000I0J75000D01*
G01*
X152583000Y-107330000D01*
G75*
G02*
X152658000Y-107255000I75000J0D01*
G01*
X152808000Y-107255000D01*
G75*
G02*
X152883000Y-107330000I0J-75000D01*
G01*
G37*
G36*
G01*
X152383000Y-107330000D02*
X152383000Y-108655000D01*
G75*
G02*
X152308000Y-108730000I-75000J0D01*
G01*
X152158000Y-108730000D01*
G75*
G02*
X152083000Y-108655000I0J75000D01*
G01*
X152083000Y-107330000D01*
G75*
G02*
X152158000Y-107255000I75000J0D01*
G01*
X152308000Y-107255000D01*
G75*
G02*
X152383000Y-107330000I0J-75000D01*
G01*
G37*
G36*
G01*
X151883000Y-107330000D02*
X151883000Y-108655000D01*
G75*
G02*
X151808000Y-108730000I-75000J0D01*
G01*
X151658000Y-108730000D01*
G75*
G02*
X151583000Y-108655000I0J75000D01*
G01*
X151583000Y-107330000D01*
G75*
G02*
X151658000Y-107255000I75000J0D01*
G01*
X151808000Y-107255000D01*
G75*
G02*
X151883000Y-107330000I0J-75000D01*
G01*
G37*
G36*
G01*
X151383000Y-107330000D02*
X151383000Y-108655000D01*
G75*
G02*
X151308000Y-108730000I-75000J0D01*
G01*
X151158000Y-108730000D01*
G75*
G02*
X151083000Y-108655000I0J75000D01*
G01*
X151083000Y-107330000D01*
G75*
G02*
X151158000Y-107255000I75000J0D01*
G01*
X151308000Y-107255000D01*
G75*
G02*
X151383000Y-107330000I0J-75000D01*
G01*
G37*
G36*
G01*
X150883000Y-107330000D02*
X150883000Y-108655000D01*
G75*
G02*
X150808000Y-108730000I-75000J0D01*
G01*
X150658000Y-108730000D01*
G75*
G02*
X150583000Y-108655000I0J75000D01*
G01*
X150583000Y-107330000D01*
G75*
G02*
X150658000Y-107255000I75000J0D01*
G01*
X150808000Y-107255000D01*
G75*
G02*
X150883000Y-107330000I0J-75000D01*
G01*
G37*
G36*
G01*
X150383000Y-107330000D02*
X150383000Y-108655000D01*
G75*
G02*
X150308000Y-108730000I-75000J0D01*
G01*
X150158000Y-108730000D01*
G75*
G02*
X150083000Y-108655000I0J75000D01*
G01*
X150083000Y-107330000D01*
G75*
G02*
X150158000Y-107255000I75000J0D01*
G01*
X150308000Y-107255000D01*
G75*
G02*
X150383000Y-107330000I0J-75000D01*
G01*
G37*
G36*
G01*
X149883000Y-107330000D02*
X149883000Y-108655000D01*
G75*
G02*
X149808000Y-108730000I-75000J0D01*
G01*
X149658000Y-108730000D01*
G75*
G02*
X149583000Y-108655000I0J75000D01*
G01*
X149583000Y-107330000D01*
G75*
G02*
X149658000Y-107255000I75000J0D01*
G01*
X149808000Y-107255000D01*
G75*
G02*
X149883000Y-107330000I0J-75000D01*
G01*
G37*
G36*
G01*
X149383000Y-107330000D02*
X149383000Y-108655000D01*
G75*
G02*
X149308000Y-108730000I-75000J0D01*
G01*
X149158000Y-108730000D01*
G75*
G02*
X149083000Y-108655000I0J75000D01*
G01*
X149083000Y-107330000D01*
G75*
G02*
X149158000Y-107255000I75000J0D01*
G01*
X149308000Y-107255000D01*
G75*
G02*
X149383000Y-107330000I0J-75000D01*
G01*
G37*
G36*
G01*
X148883000Y-107330000D02*
X148883000Y-108655000D01*
G75*
G02*
X148808000Y-108730000I-75000J0D01*
G01*
X148658000Y-108730000D01*
G75*
G02*
X148583000Y-108655000I0J75000D01*
G01*
X148583000Y-107330000D01*
G75*
G02*
X148658000Y-107255000I75000J0D01*
G01*
X148808000Y-107255000D01*
G75*
G02*
X148883000Y-107330000I0J-75000D01*
G01*
G37*
G36*
G01*
X148383000Y-107330000D02*
X148383000Y-108655000D01*
G75*
G02*
X148308000Y-108730000I-75000J0D01*
G01*
X148158000Y-108730000D01*
G75*
G02*
X148083000Y-108655000I0J75000D01*
G01*
X148083000Y-107330000D01*
G75*
G02*
X148158000Y-107255000I75000J0D01*
G01*
X148308000Y-107255000D01*
G75*
G02*
X148383000Y-107330000I0J-75000D01*
G01*
G37*
G36*
G01*
X147883000Y-107330000D02*
X147883000Y-108655000D01*
G75*
G02*
X147808000Y-108730000I-75000J0D01*
G01*
X147658000Y-108730000D01*
G75*
G02*
X147583000Y-108655000I0J75000D01*
G01*
X147583000Y-107330000D01*
G75*
G02*
X147658000Y-107255000I75000J0D01*
G01*
X147808000Y-107255000D01*
G75*
G02*
X147883000Y-107330000I0J-75000D01*
G01*
G37*
G36*
G01*
X147383000Y-107330000D02*
X147383000Y-108655000D01*
G75*
G02*
X147308000Y-108730000I-75000J0D01*
G01*
X147158000Y-108730000D01*
G75*
G02*
X147083000Y-108655000I0J75000D01*
G01*
X147083000Y-107330000D01*
G75*
G02*
X147158000Y-107255000I75000J0D01*
G01*
X147308000Y-107255000D01*
G75*
G02*
X147383000Y-107330000I0J-75000D01*
G01*
G37*
G36*
G01*
X146883000Y-107330000D02*
X146883000Y-108655000D01*
G75*
G02*
X146808000Y-108730000I-75000J0D01*
G01*
X146658000Y-108730000D01*
G75*
G02*
X146583000Y-108655000I0J75000D01*
G01*
X146583000Y-107330000D01*
G75*
G02*
X146658000Y-107255000I75000J0D01*
G01*
X146808000Y-107255000D01*
G75*
G02*
X146883000Y-107330000I0J-75000D01*
G01*
G37*
G36*
G01*
X146383000Y-107330000D02*
X146383000Y-108655000D01*
G75*
G02*
X146308000Y-108730000I-75000J0D01*
G01*
X146158000Y-108730000D01*
G75*
G02*
X146083000Y-108655000I0J75000D01*
G01*
X146083000Y-107330000D01*
G75*
G02*
X146158000Y-107255000I75000J0D01*
G01*
X146308000Y-107255000D01*
G75*
G02*
X146383000Y-107330000I0J-75000D01*
G01*
G37*
G36*
G01*
X145883000Y-107330000D02*
X145883000Y-108655000D01*
G75*
G02*
X145808000Y-108730000I-75000J0D01*
G01*
X145658000Y-108730000D01*
G75*
G02*
X145583000Y-108655000I0J75000D01*
G01*
X145583000Y-107330000D01*
G75*
G02*
X145658000Y-107255000I75000J0D01*
G01*
X145808000Y-107255000D01*
G75*
G02*
X145883000Y-107330000I0J-75000D01*
G01*
G37*
G36*
G01*
X145383000Y-107330000D02*
X145383000Y-108655000D01*
G75*
G02*
X145308000Y-108730000I-75000J0D01*
G01*
X145158000Y-108730000D01*
G75*
G02*
X145083000Y-108655000I0J75000D01*
G01*
X145083000Y-107330000D01*
G75*
G02*
X145158000Y-107255000I75000J0D01*
G01*
X145308000Y-107255000D01*
G75*
G02*
X145383000Y-107330000I0J-75000D01*
G01*
G37*
G36*
G01*
X144883000Y-107330000D02*
X144883000Y-108655000D01*
G75*
G02*
X144808000Y-108730000I-75000J0D01*
G01*
X144658000Y-108730000D01*
G75*
G02*
X144583000Y-108655000I0J75000D01*
G01*
X144583000Y-107330000D01*
G75*
G02*
X144658000Y-107255000I75000J0D01*
G01*
X144808000Y-107255000D01*
G75*
G02*
X144883000Y-107330000I0J-75000D01*
G01*
G37*
G36*
G01*
X144383000Y-107330000D02*
X144383000Y-108655000D01*
G75*
G02*
X144308000Y-108730000I-75000J0D01*
G01*
X144158000Y-108730000D01*
G75*
G02*
X144083000Y-108655000I0J75000D01*
G01*
X144083000Y-107330000D01*
G75*
G02*
X144158000Y-107255000I75000J0D01*
G01*
X144308000Y-107255000D01*
G75*
G02*
X144383000Y-107330000I0J-75000D01*
G01*
G37*
G36*
G01*
X143883000Y-107330000D02*
X143883000Y-108655000D01*
G75*
G02*
X143808000Y-108730000I-75000J0D01*
G01*
X143658000Y-108730000D01*
G75*
G02*
X143583000Y-108655000I0J75000D01*
G01*
X143583000Y-107330000D01*
G75*
G02*
X143658000Y-107255000I75000J0D01*
G01*
X143808000Y-107255000D01*
G75*
G02*
X143883000Y-107330000I0J-75000D01*
G01*
G37*
G36*
G01*
X142808000Y-106255000D02*
X142808000Y-106405000D01*
G75*
G02*
X142733000Y-106480000I-75000J0D01*
G01*
X141408000Y-106480000D01*
G75*
G02*
X141333000Y-106405000I0J75000D01*
G01*
X141333000Y-106255000D01*
G75*
G02*
X141408000Y-106180000I75000J0D01*
G01*
X142733000Y-106180000D01*
G75*
G02*
X142808000Y-106255000I0J-75000D01*
G01*
G37*
G36*
G01*
X142808000Y-105755000D02*
X142808000Y-105905000D01*
G75*
G02*
X142733000Y-105980000I-75000J0D01*
G01*
X141408000Y-105980000D01*
G75*
G02*
X141333000Y-105905000I0J75000D01*
G01*
X141333000Y-105755000D01*
G75*
G02*
X141408000Y-105680000I75000J0D01*
G01*
X142733000Y-105680000D01*
G75*
G02*
X142808000Y-105755000I0J-75000D01*
G01*
G37*
G36*
G01*
X142808000Y-105255000D02*
X142808000Y-105405000D01*
G75*
G02*
X142733000Y-105480000I-75000J0D01*
G01*
X141408000Y-105480000D01*
G75*
G02*
X141333000Y-105405000I0J75000D01*
G01*
X141333000Y-105255000D01*
G75*
G02*
X141408000Y-105180000I75000J0D01*
G01*
X142733000Y-105180000D01*
G75*
G02*
X142808000Y-105255000I0J-75000D01*
G01*
G37*
G36*
G01*
X142808000Y-104755000D02*
X142808000Y-104905000D01*
G75*
G02*
X142733000Y-104980000I-75000J0D01*
G01*
X141408000Y-104980000D01*
G75*
G02*
X141333000Y-104905000I0J75000D01*
G01*
X141333000Y-104755000D01*
G75*
G02*
X141408000Y-104680000I75000J0D01*
G01*
X142733000Y-104680000D01*
G75*
G02*
X142808000Y-104755000I0J-75000D01*
G01*
G37*
G36*
G01*
X142808000Y-104255000D02*
X142808000Y-104405000D01*
G75*
G02*
X142733000Y-104480000I-75000J0D01*
G01*
X141408000Y-104480000D01*
G75*
G02*
X141333000Y-104405000I0J75000D01*
G01*
X141333000Y-104255000D01*
G75*
G02*
X141408000Y-104180000I75000J0D01*
G01*
X142733000Y-104180000D01*
G75*
G02*
X142808000Y-104255000I0J-75000D01*
G01*
G37*
G36*
G01*
X142808000Y-103755000D02*
X142808000Y-103905000D01*
G75*
G02*
X142733000Y-103980000I-75000J0D01*
G01*
X141408000Y-103980000D01*
G75*
G02*
X141333000Y-103905000I0J75000D01*
G01*
X141333000Y-103755000D01*
G75*
G02*
X141408000Y-103680000I75000J0D01*
G01*
X142733000Y-103680000D01*
G75*
G02*
X142808000Y-103755000I0J-75000D01*
G01*
G37*
G36*
G01*
X142808000Y-103255000D02*
X142808000Y-103405000D01*
G75*
G02*
X142733000Y-103480000I-75000J0D01*
G01*
X141408000Y-103480000D01*
G75*
G02*
X141333000Y-103405000I0J75000D01*
G01*
X141333000Y-103255000D01*
G75*
G02*
X141408000Y-103180000I75000J0D01*
G01*
X142733000Y-103180000D01*
G75*
G02*
X142808000Y-103255000I0J-75000D01*
G01*
G37*
G36*
G01*
X142808000Y-102755000D02*
X142808000Y-102905000D01*
G75*
G02*
X142733000Y-102980000I-75000J0D01*
G01*
X141408000Y-102980000D01*
G75*
G02*
X141333000Y-102905000I0J75000D01*
G01*
X141333000Y-102755000D01*
G75*
G02*
X141408000Y-102680000I75000J0D01*
G01*
X142733000Y-102680000D01*
G75*
G02*
X142808000Y-102755000I0J-75000D01*
G01*
G37*
G36*
G01*
X142808000Y-102255000D02*
X142808000Y-102405000D01*
G75*
G02*
X142733000Y-102480000I-75000J0D01*
G01*
X141408000Y-102480000D01*
G75*
G02*
X141333000Y-102405000I0J75000D01*
G01*
X141333000Y-102255000D01*
G75*
G02*
X141408000Y-102180000I75000J0D01*
G01*
X142733000Y-102180000D01*
G75*
G02*
X142808000Y-102255000I0J-75000D01*
G01*
G37*
G36*
G01*
X142808000Y-101755000D02*
X142808000Y-101905000D01*
G75*
G02*
X142733000Y-101980000I-75000J0D01*
G01*
X141408000Y-101980000D01*
G75*
G02*
X141333000Y-101905000I0J75000D01*
G01*
X141333000Y-101755000D01*
G75*
G02*
X141408000Y-101680000I75000J0D01*
G01*
X142733000Y-101680000D01*
G75*
G02*
X142808000Y-101755000I0J-75000D01*
G01*
G37*
G36*
G01*
X142808000Y-101255000D02*
X142808000Y-101405000D01*
G75*
G02*
X142733000Y-101480000I-75000J0D01*
G01*
X141408000Y-101480000D01*
G75*
G02*
X141333000Y-101405000I0J75000D01*
G01*
X141333000Y-101255000D01*
G75*
G02*
X141408000Y-101180000I75000J0D01*
G01*
X142733000Y-101180000D01*
G75*
G02*
X142808000Y-101255000I0J-75000D01*
G01*
G37*
G36*
G01*
X142808000Y-100755000D02*
X142808000Y-100905000D01*
G75*
G02*
X142733000Y-100980000I-75000J0D01*
G01*
X141408000Y-100980000D01*
G75*
G02*
X141333000Y-100905000I0J75000D01*
G01*
X141333000Y-100755000D01*
G75*
G02*
X141408000Y-100680000I75000J0D01*
G01*
X142733000Y-100680000D01*
G75*
G02*
X142808000Y-100755000I0J-75000D01*
G01*
G37*
G36*
G01*
X142808000Y-100255000D02*
X142808000Y-100405000D01*
G75*
G02*
X142733000Y-100480000I-75000J0D01*
G01*
X141408000Y-100480000D01*
G75*
G02*
X141333000Y-100405000I0J75000D01*
G01*
X141333000Y-100255000D01*
G75*
G02*
X141408000Y-100180000I75000J0D01*
G01*
X142733000Y-100180000D01*
G75*
G02*
X142808000Y-100255000I0J-75000D01*
G01*
G37*
G36*
G01*
X142808000Y-99755000D02*
X142808000Y-99905000D01*
G75*
G02*
X142733000Y-99980000I-75000J0D01*
G01*
X141408000Y-99980000D01*
G75*
G02*
X141333000Y-99905000I0J75000D01*
G01*
X141333000Y-99755000D01*
G75*
G02*
X141408000Y-99680000I75000J0D01*
G01*
X142733000Y-99680000D01*
G75*
G02*
X142808000Y-99755000I0J-75000D01*
G01*
G37*
G36*
G01*
X142808000Y-99255000D02*
X142808000Y-99405000D01*
G75*
G02*
X142733000Y-99480000I-75000J0D01*
G01*
X141408000Y-99480000D01*
G75*
G02*
X141333000Y-99405000I0J75000D01*
G01*
X141333000Y-99255000D01*
G75*
G02*
X141408000Y-99180000I75000J0D01*
G01*
X142733000Y-99180000D01*
G75*
G02*
X142808000Y-99255000I0J-75000D01*
G01*
G37*
G36*
G01*
X142808000Y-98755000D02*
X142808000Y-98905000D01*
G75*
G02*
X142733000Y-98980000I-75000J0D01*
G01*
X141408000Y-98980000D01*
G75*
G02*
X141333000Y-98905000I0J75000D01*
G01*
X141333000Y-98755000D01*
G75*
G02*
X141408000Y-98680000I75000J0D01*
G01*
X142733000Y-98680000D01*
G75*
G02*
X142808000Y-98755000I0J-75000D01*
G01*
G37*
G36*
G01*
X142808000Y-98255000D02*
X142808000Y-98405000D01*
G75*
G02*
X142733000Y-98480000I-75000J0D01*
G01*
X141408000Y-98480000D01*
G75*
G02*
X141333000Y-98405000I0J75000D01*
G01*
X141333000Y-98255000D01*
G75*
G02*
X141408000Y-98180000I75000J0D01*
G01*
X142733000Y-98180000D01*
G75*
G02*
X142808000Y-98255000I0J-75000D01*
G01*
G37*
G36*
G01*
X142808000Y-97755000D02*
X142808000Y-97905000D01*
G75*
G02*
X142733000Y-97980000I-75000J0D01*
G01*
X141408000Y-97980000D01*
G75*
G02*
X141333000Y-97905000I0J75000D01*
G01*
X141333000Y-97755000D01*
G75*
G02*
X141408000Y-97680000I75000J0D01*
G01*
X142733000Y-97680000D01*
G75*
G02*
X142808000Y-97755000I0J-75000D01*
G01*
G37*
G36*
G01*
X142808000Y-97255000D02*
X142808000Y-97405000D01*
G75*
G02*
X142733000Y-97480000I-75000J0D01*
G01*
X141408000Y-97480000D01*
G75*
G02*
X141333000Y-97405000I0J75000D01*
G01*
X141333000Y-97255000D01*
G75*
G02*
X141408000Y-97180000I75000J0D01*
G01*
X142733000Y-97180000D01*
G75*
G02*
X142808000Y-97255000I0J-75000D01*
G01*
G37*
G36*
G01*
X142808000Y-96755000D02*
X142808000Y-96905000D01*
G75*
G02*
X142733000Y-96980000I-75000J0D01*
G01*
X141408000Y-96980000D01*
G75*
G02*
X141333000Y-96905000I0J75000D01*
G01*
X141333000Y-96755000D01*
G75*
G02*
X141408000Y-96680000I75000J0D01*
G01*
X142733000Y-96680000D01*
G75*
G02*
X142808000Y-96755000I0J-75000D01*
G01*
G37*
G36*
G01*
X142808000Y-96255000D02*
X142808000Y-96405000D01*
G75*
G02*
X142733000Y-96480000I-75000J0D01*
G01*
X141408000Y-96480000D01*
G75*
G02*
X141333000Y-96405000I0J75000D01*
G01*
X141333000Y-96255000D01*
G75*
G02*
X141408000Y-96180000I75000J0D01*
G01*
X142733000Y-96180000D01*
G75*
G02*
X142808000Y-96255000I0J-75000D01*
G01*
G37*
G36*
G01*
X142808000Y-95755000D02*
X142808000Y-95905000D01*
G75*
G02*
X142733000Y-95980000I-75000J0D01*
G01*
X141408000Y-95980000D01*
G75*
G02*
X141333000Y-95905000I0J75000D01*
G01*
X141333000Y-95755000D01*
G75*
G02*
X141408000Y-95680000I75000J0D01*
G01*
X142733000Y-95680000D01*
G75*
G02*
X142808000Y-95755000I0J-75000D01*
G01*
G37*
G36*
G01*
X142808000Y-95255000D02*
X142808000Y-95405000D01*
G75*
G02*
X142733000Y-95480000I-75000J0D01*
G01*
X141408000Y-95480000D01*
G75*
G02*
X141333000Y-95405000I0J75000D01*
G01*
X141333000Y-95255000D01*
G75*
G02*
X141408000Y-95180000I75000J0D01*
G01*
X142733000Y-95180000D01*
G75*
G02*
X142808000Y-95255000I0J-75000D01*
G01*
G37*
G36*
G01*
X142808000Y-94755000D02*
X142808000Y-94905000D01*
G75*
G02*
X142733000Y-94980000I-75000J0D01*
G01*
X141408000Y-94980000D01*
G75*
G02*
X141333000Y-94905000I0J75000D01*
G01*
X141333000Y-94755000D01*
G75*
G02*
X141408000Y-94680000I75000J0D01*
G01*
X142733000Y-94680000D01*
G75*
G02*
X142808000Y-94755000I0J-75000D01*
G01*
G37*
G36*
G01*
X142808000Y-94255000D02*
X142808000Y-94405000D01*
G75*
G02*
X142733000Y-94480000I-75000J0D01*
G01*
X141408000Y-94480000D01*
G75*
G02*
X141333000Y-94405000I0J75000D01*
G01*
X141333000Y-94255000D01*
G75*
G02*
X141408000Y-94180000I75000J0D01*
G01*
X142733000Y-94180000D01*
G75*
G02*
X142808000Y-94255000I0J-75000D01*
G01*
G37*
G36*
G01*
X143883000Y-92005000D02*
X143883000Y-93330000D01*
G75*
G02*
X143808000Y-93405000I-75000J0D01*
G01*
X143658000Y-93405000D01*
G75*
G02*
X143583000Y-93330000I0J75000D01*
G01*
X143583000Y-92005000D01*
G75*
G02*
X143658000Y-91930000I75000J0D01*
G01*
X143808000Y-91930000D01*
G75*
G02*
X143883000Y-92005000I0J-75000D01*
G01*
G37*
G36*
G01*
X144383000Y-92005000D02*
X144383000Y-93330000D01*
G75*
G02*
X144308000Y-93405000I-75000J0D01*
G01*
X144158000Y-93405000D01*
G75*
G02*
X144083000Y-93330000I0J75000D01*
G01*
X144083000Y-92005000D01*
G75*
G02*
X144158000Y-91930000I75000J0D01*
G01*
X144308000Y-91930000D01*
G75*
G02*
X144383000Y-92005000I0J-75000D01*
G01*
G37*
G36*
G01*
X144883000Y-92005000D02*
X144883000Y-93330000D01*
G75*
G02*
X144808000Y-93405000I-75000J0D01*
G01*
X144658000Y-93405000D01*
G75*
G02*
X144583000Y-93330000I0J75000D01*
G01*
X144583000Y-92005000D01*
G75*
G02*
X144658000Y-91930000I75000J0D01*
G01*
X144808000Y-91930000D01*
G75*
G02*
X144883000Y-92005000I0J-75000D01*
G01*
G37*
G36*
G01*
X145383000Y-92005000D02*
X145383000Y-93330000D01*
G75*
G02*
X145308000Y-93405000I-75000J0D01*
G01*
X145158000Y-93405000D01*
G75*
G02*
X145083000Y-93330000I0J75000D01*
G01*
X145083000Y-92005000D01*
G75*
G02*
X145158000Y-91930000I75000J0D01*
G01*
X145308000Y-91930000D01*
G75*
G02*
X145383000Y-92005000I0J-75000D01*
G01*
G37*
G36*
G01*
X145883000Y-92005000D02*
X145883000Y-93330000D01*
G75*
G02*
X145808000Y-93405000I-75000J0D01*
G01*
X145658000Y-93405000D01*
G75*
G02*
X145583000Y-93330000I0J75000D01*
G01*
X145583000Y-92005000D01*
G75*
G02*
X145658000Y-91930000I75000J0D01*
G01*
X145808000Y-91930000D01*
G75*
G02*
X145883000Y-92005000I0J-75000D01*
G01*
G37*
G36*
G01*
X146383000Y-92005000D02*
X146383000Y-93330000D01*
G75*
G02*
X146308000Y-93405000I-75000J0D01*
G01*
X146158000Y-93405000D01*
G75*
G02*
X146083000Y-93330000I0J75000D01*
G01*
X146083000Y-92005000D01*
G75*
G02*
X146158000Y-91930000I75000J0D01*
G01*
X146308000Y-91930000D01*
G75*
G02*
X146383000Y-92005000I0J-75000D01*
G01*
G37*
G36*
G01*
X146883000Y-92005000D02*
X146883000Y-93330000D01*
G75*
G02*
X146808000Y-93405000I-75000J0D01*
G01*
X146658000Y-93405000D01*
G75*
G02*
X146583000Y-93330000I0J75000D01*
G01*
X146583000Y-92005000D01*
G75*
G02*
X146658000Y-91930000I75000J0D01*
G01*
X146808000Y-91930000D01*
G75*
G02*
X146883000Y-92005000I0J-75000D01*
G01*
G37*
G36*
G01*
X147383000Y-92005000D02*
X147383000Y-93330000D01*
G75*
G02*
X147308000Y-93405000I-75000J0D01*
G01*
X147158000Y-93405000D01*
G75*
G02*
X147083000Y-93330000I0J75000D01*
G01*
X147083000Y-92005000D01*
G75*
G02*
X147158000Y-91930000I75000J0D01*
G01*
X147308000Y-91930000D01*
G75*
G02*
X147383000Y-92005000I0J-75000D01*
G01*
G37*
G36*
G01*
X147883000Y-92005000D02*
X147883000Y-93330000D01*
G75*
G02*
X147808000Y-93405000I-75000J0D01*
G01*
X147658000Y-93405000D01*
G75*
G02*
X147583000Y-93330000I0J75000D01*
G01*
X147583000Y-92005000D01*
G75*
G02*
X147658000Y-91930000I75000J0D01*
G01*
X147808000Y-91930000D01*
G75*
G02*
X147883000Y-92005000I0J-75000D01*
G01*
G37*
G36*
G01*
X148383000Y-92005000D02*
X148383000Y-93330000D01*
G75*
G02*
X148308000Y-93405000I-75000J0D01*
G01*
X148158000Y-93405000D01*
G75*
G02*
X148083000Y-93330000I0J75000D01*
G01*
X148083000Y-92005000D01*
G75*
G02*
X148158000Y-91930000I75000J0D01*
G01*
X148308000Y-91930000D01*
G75*
G02*
X148383000Y-92005000I0J-75000D01*
G01*
G37*
G36*
G01*
X148883000Y-92005000D02*
X148883000Y-93330000D01*
G75*
G02*
X148808000Y-93405000I-75000J0D01*
G01*
X148658000Y-93405000D01*
G75*
G02*
X148583000Y-93330000I0J75000D01*
G01*
X148583000Y-92005000D01*
G75*
G02*
X148658000Y-91930000I75000J0D01*
G01*
X148808000Y-91930000D01*
G75*
G02*
X148883000Y-92005000I0J-75000D01*
G01*
G37*
G36*
G01*
X149383000Y-92005000D02*
X149383000Y-93330000D01*
G75*
G02*
X149308000Y-93405000I-75000J0D01*
G01*
X149158000Y-93405000D01*
G75*
G02*
X149083000Y-93330000I0J75000D01*
G01*
X149083000Y-92005000D01*
G75*
G02*
X149158000Y-91930000I75000J0D01*
G01*
X149308000Y-91930000D01*
G75*
G02*
X149383000Y-92005000I0J-75000D01*
G01*
G37*
G36*
G01*
X149883000Y-92005000D02*
X149883000Y-93330000D01*
G75*
G02*
X149808000Y-93405000I-75000J0D01*
G01*
X149658000Y-93405000D01*
G75*
G02*
X149583000Y-93330000I0J75000D01*
G01*
X149583000Y-92005000D01*
G75*
G02*
X149658000Y-91930000I75000J0D01*
G01*
X149808000Y-91930000D01*
G75*
G02*
X149883000Y-92005000I0J-75000D01*
G01*
G37*
G36*
G01*
X150383000Y-92005000D02*
X150383000Y-93330000D01*
G75*
G02*
X150308000Y-93405000I-75000J0D01*
G01*
X150158000Y-93405000D01*
G75*
G02*
X150083000Y-93330000I0J75000D01*
G01*
X150083000Y-92005000D01*
G75*
G02*
X150158000Y-91930000I75000J0D01*
G01*
X150308000Y-91930000D01*
G75*
G02*
X150383000Y-92005000I0J-75000D01*
G01*
G37*
G36*
G01*
X150883000Y-92005000D02*
X150883000Y-93330000D01*
G75*
G02*
X150808000Y-93405000I-75000J0D01*
G01*
X150658000Y-93405000D01*
G75*
G02*
X150583000Y-93330000I0J75000D01*
G01*
X150583000Y-92005000D01*
G75*
G02*
X150658000Y-91930000I75000J0D01*
G01*
X150808000Y-91930000D01*
G75*
G02*
X150883000Y-92005000I0J-75000D01*
G01*
G37*
G36*
G01*
X151383000Y-92005000D02*
X151383000Y-93330000D01*
G75*
G02*
X151308000Y-93405000I-75000J0D01*
G01*
X151158000Y-93405000D01*
G75*
G02*
X151083000Y-93330000I0J75000D01*
G01*
X151083000Y-92005000D01*
G75*
G02*
X151158000Y-91930000I75000J0D01*
G01*
X151308000Y-91930000D01*
G75*
G02*
X151383000Y-92005000I0J-75000D01*
G01*
G37*
G36*
G01*
X151883000Y-92005000D02*
X151883000Y-93330000D01*
G75*
G02*
X151808000Y-93405000I-75000J0D01*
G01*
X151658000Y-93405000D01*
G75*
G02*
X151583000Y-93330000I0J75000D01*
G01*
X151583000Y-92005000D01*
G75*
G02*
X151658000Y-91930000I75000J0D01*
G01*
X151808000Y-91930000D01*
G75*
G02*
X151883000Y-92005000I0J-75000D01*
G01*
G37*
G36*
G01*
X152383000Y-92005000D02*
X152383000Y-93330000D01*
G75*
G02*
X152308000Y-93405000I-75000J0D01*
G01*
X152158000Y-93405000D01*
G75*
G02*
X152083000Y-93330000I0J75000D01*
G01*
X152083000Y-92005000D01*
G75*
G02*
X152158000Y-91930000I75000J0D01*
G01*
X152308000Y-91930000D01*
G75*
G02*
X152383000Y-92005000I0J-75000D01*
G01*
G37*
G36*
G01*
X152883000Y-92005000D02*
X152883000Y-93330000D01*
G75*
G02*
X152808000Y-93405000I-75000J0D01*
G01*
X152658000Y-93405000D01*
G75*
G02*
X152583000Y-93330000I0J75000D01*
G01*
X152583000Y-92005000D01*
G75*
G02*
X152658000Y-91930000I75000J0D01*
G01*
X152808000Y-91930000D01*
G75*
G02*
X152883000Y-92005000I0J-75000D01*
G01*
G37*
G36*
G01*
X153383000Y-92005000D02*
X153383000Y-93330000D01*
G75*
G02*
X153308000Y-93405000I-75000J0D01*
G01*
X153158000Y-93405000D01*
G75*
G02*
X153083000Y-93330000I0J75000D01*
G01*
X153083000Y-92005000D01*
G75*
G02*
X153158000Y-91930000I75000J0D01*
G01*
X153308000Y-91930000D01*
G75*
G02*
X153383000Y-92005000I0J-75000D01*
G01*
G37*
G36*
G01*
X153883000Y-92005000D02*
X153883000Y-93330000D01*
G75*
G02*
X153808000Y-93405000I-75000J0D01*
G01*
X153658000Y-93405000D01*
G75*
G02*
X153583000Y-93330000I0J75000D01*
G01*
X153583000Y-92005000D01*
G75*
G02*
X153658000Y-91930000I75000J0D01*
G01*
X153808000Y-91930000D01*
G75*
G02*
X153883000Y-92005000I0J-75000D01*
G01*
G37*
G36*
G01*
X154383000Y-92005000D02*
X154383000Y-93330000D01*
G75*
G02*
X154308000Y-93405000I-75000J0D01*
G01*
X154158000Y-93405000D01*
G75*
G02*
X154083000Y-93330000I0J75000D01*
G01*
X154083000Y-92005000D01*
G75*
G02*
X154158000Y-91930000I75000J0D01*
G01*
X154308000Y-91930000D01*
G75*
G02*
X154383000Y-92005000I0J-75000D01*
G01*
G37*
G36*
G01*
X154883000Y-92005000D02*
X154883000Y-93330000D01*
G75*
G02*
X154808000Y-93405000I-75000J0D01*
G01*
X154658000Y-93405000D01*
G75*
G02*
X154583000Y-93330000I0J75000D01*
G01*
X154583000Y-92005000D01*
G75*
G02*
X154658000Y-91930000I75000J0D01*
G01*
X154808000Y-91930000D01*
G75*
G02*
X154883000Y-92005000I0J-75000D01*
G01*
G37*
G36*
G01*
X155383000Y-92005000D02*
X155383000Y-93330000D01*
G75*
G02*
X155308000Y-93405000I-75000J0D01*
G01*
X155158000Y-93405000D01*
G75*
G02*
X155083000Y-93330000I0J75000D01*
G01*
X155083000Y-92005000D01*
G75*
G02*
X155158000Y-91930000I75000J0D01*
G01*
X155308000Y-91930000D01*
G75*
G02*
X155383000Y-92005000I0J-75000D01*
G01*
G37*
G36*
G01*
X155883000Y-92005000D02*
X155883000Y-93330000D01*
G75*
G02*
X155808000Y-93405000I-75000J0D01*
G01*
X155658000Y-93405000D01*
G75*
G02*
X155583000Y-93330000I0J75000D01*
G01*
X155583000Y-92005000D01*
G75*
G02*
X155658000Y-91930000I75000J0D01*
G01*
X155808000Y-91930000D01*
G75*
G02*
X155883000Y-92005000I0J-75000D01*
G01*
G37*
G36*
G01*
X158133000Y-94255000D02*
X158133000Y-94405000D01*
G75*
G02*
X158058000Y-94480000I-75000J0D01*
G01*
X156733000Y-94480000D01*
G75*
G02*
X156658000Y-94405000I0J75000D01*
G01*
X156658000Y-94255000D01*
G75*
G02*
X156733000Y-94180000I75000J0D01*
G01*
X158058000Y-94180000D01*
G75*
G02*
X158133000Y-94255000I0J-75000D01*
G01*
G37*
G36*
G01*
X158133000Y-94755000D02*
X158133000Y-94905000D01*
G75*
G02*
X158058000Y-94980000I-75000J0D01*
G01*
X156733000Y-94980000D01*
G75*
G02*
X156658000Y-94905000I0J75000D01*
G01*
X156658000Y-94755000D01*
G75*
G02*
X156733000Y-94680000I75000J0D01*
G01*
X158058000Y-94680000D01*
G75*
G02*
X158133000Y-94755000I0J-75000D01*
G01*
G37*
G36*
G01*
X158133000Y-95255000D02*
X158133000Y-95405000D01*
G75*
G02*
X158058000Y-95480000I-75000J0D01*
G01*
X156733000Y-95480000D01*
G75*
G02*
X156658000Y-95405000I0J75000D01*
G01*
X156658000Y-95255000D01*
G75*
G02*
X156733000Y-95180000I75000J0D01*
G01*
X158058000Y-95180000D01*
G75*
G02*
X158133000Y-95255000I0J-75000D01*
G01*
G37*
G36*
G01*
X158133000Y-95755000D02*
X158133000Y-95905000D01*
G75*
G02*
X158058000Y-95980000I-75000J0D01*
G01*
X156733000Y-95980000D01*
G75*
G02*
X156658000Y-95905000I0J75000D01*
G01*
X156658000Y-95755000D01*
G75*
G02*
X156733000Y-95680000I75000J0D01*
G01*
X158058000Y-95680000D01*
G75*
G02*
X158133000Y-95755000I0J-75000D01*
G01*
G37*
G36*
G01*
X158133000Y-96255000D02*
X158133000Y-96405000D01*
G75*
G02*
X158058000Y-96480000I-75000J0D01*
G01*
X156733000Y-96480000D01*
G75*
G02*
X156658000Y-96405000I0J75000D01*
G01*
X156658000Y-96255000D01*
G75*
G02*
X156733000Y-96180000I75000J0D01*
G01*
X158058000Y-96180000D01*
G75*
G02*
X158133000Y-96255000I0J-75000D01*
G01*
G37*
G36*
G01*
X158133000Y-96755000D02*
X158133000Y-96905000D01*
G75*
G02*
X158058000Y-96980000I-75000J0D01*
G01*
X156733000Y-96980000D01*
G75*
G02*
X156658000Y-96905000I0J75000D01*
G01*
X156658000Y-96755000D01*
G75*
G02*
X156733000Y-96680000I75000J0D01*
G01*
X158058000Y-96680000D01*
G75*
G02*
X158133000Y-96755000I0J-75000D01*
G01*
G37*
G36*
G01*
X158133000Y-97255000D02*
X158133000Y-97405000D01*
G75*
G02*
X158058000Y-97480000I-75000J0D01*
G01*
X156733000Y-97480000D01*
G75*
G02*
X156658000Y-97405000I0J75000D01*
G01*
X156658000Y-97255000D01*
G75*
G02*
X156733000Y-97180000I75000J0D01*
G01*
X158058000Y-97180000D01*
G75*
G02*
X158133000Y-97255000I0J-75000D01*
G01*
G37*
G36*
G01*
X158133000Y-97755000D02*
X158133000Y-97905000D01*
G75*
G02*
X158058000Y-97980000I-75000J0D01*
G01*
X156733000Y-97980000D01*
G75*
G02*
X156658000Y-97905000I0J75000D01*
G01*
X156658000Y-97755000D01*
G75*
G02*
X156733000Y-97680000I75000J0D01*
G01*
X158058000Y-97680000D01*
G75*
G02*
X158133000Y-97755000I0J-75000D01*
G01*
G37*
G36*
G01*
X158133000Y-98255000D02*
X158133000Y-98405000D01*
G75*
G02*
X158058000Y-98480000I-75000J0D01*
G01*
X156733000Y-98480000D01*
G75*
G02*
X156658000Y-98405000I0J75000D01*
G01*
X156658000Y-98255000D01*
G75*
G02*
X156733000Y-98180000I75000J0D01*
G01*
X158058000Y-98180000D01*
G75*
G02*
X158133000Y-98255000I0J-75000D01*
G01*
G37*
G36*
G01*
X158133000Y-98755000D02*
X158133000Y-98905000D01*
G75*
G02*
X158058000Y-98980000I-75000J0D01*
G01*
X156733000Y-98980000D01*
G75*
G02*
X156658000Y-98905000I0J75000D01*
G01*
X156658000Y-98755000D01*
G75*
G02*
X156733000Y-98680000I75000J0D01*
G01*
X158058000Y-98680000D01*
G75*
G02*
X158133000Y-98755000I0J-75000D01*
G01*
G37*
G36*
G01*
X158133000Y-99255000D02*
X158133000Y-99405000D01*
G75*
G02*
X158058000Y-99480000I-75000J0D01*
G01*
X156733000Y-99480000D01*
G75*
G02*
X156658000Y-99405000I0J75000D01*
G01*
X156658000Y-99255000D01*
G75*
G02*
X156733000Y-99180000I75000J0D01*
G01*
X158058000Y-99180000D01*
G75*
G02*
X158133000Y-99255000I0J-75000D01*
G01*
G37*
G36*
G01*
X158133000Y-99755000D02*
X158133000Y-99905000D01*
G75*
G02*
X158058000Y-99980000I-75000J0D01*
G01*
X156733000Y-99980000D01*
G75*
G02*
X156658000Y-99905000I0J75000D01*
G01*
X156658000Y-99755000D01*
G75*
G02*
X156733000Y-99680000I75000J0D01*
G01*
X158058000Y-99680000D01*
G75*
G02*
X158133000Y-99755000I0J-75000D01*
G01*
G37*
G36*
G01*
X158133000Y-100255000D02*
X158133000Y-100405000D01*
G75*
G02*
X158058000Y-100480000I-75000J0D01*
G01*
X156733000Y-100480000D01*
G75*
G02*
X156658000Y-100405000I0J75000D01*
G01*
X156658000Y-100255000D01*
G75*
G02*
X156733000Y-100180000I75000J0D01*
G01*
X158058000Y-100180000D01*
G75*
G02*
X158133000Y-100255000I0J-75000D01*
G01*
G37*
G36*
G01*
X158133000Y-100755000D02*
X158133000Y-100905000D01*
G75*
G02*
X158058000Y-100980000I-75000J0D01*
G01*
X156733000Y-100980000D01*
G75*
G02*
X156658000Y-100905000I0J75000D01*
G01*
X156658000Y-100755000D01*
G75*
G02*
X156733000Y-100680000I75000J0D01*
G01*
X158058000Y-100680000D01*
G75*
G02*
X158133000Y-100755000I0J-75000D01*
G01*
G37*
G36*
G01*
X158133000Y-101255000D02*
X158133000Y-101405000D01*
G75*
G02*
X158058000Y-101480000I-75000J0D01*
G01*
X156733000Y-101480000D01*
G75*
G02*
X156658000Y-101405000I0J75000D01*
G01*
X156658000Y-101255000D01*
G75*
G02*
X156733000Y-101180000I75000J0D01*
G01*
X158058000Y-101180000D01*
G75*
G02*
X158133000Y-101255000I0J-75000D01*
G01*
G37*
G36*
G01*
X158133000Y-101755000D02*
X158133000Y-101905000D01*
G75*
G02*
X158058000Y-101980000I-75000J0D01*
G01*
X156733000Y-101980000D01*
G75*
G02*
X156658000Y-101905000I0J75000D01*
G01*
X156658000Y-101755000D01*
G75*
G02*
X156733000Y-101680000I75000J0D01*
G01*
X158058000Y-101680000D01*
G75*
G02*
X158133000Y-101755000I0J-75000D01*
G01*
G37*
G36*
G01*
X158133000Y-102255000D02*
X158133000Y-102405000D01*
G75*
G02*
X158058000Y-102480000I-75000J0D01*
G01*
X156733000Y-102480000D01*
G75*
G02*
X156658000Y-102405000I0J75000D01*
G01*
X156658000Y-102255000D01*
G75*
G02*
X156733000Y-102180000I75000J0D01*
G01*
X158058000Y-102180000D01*
G75*
G02*
X158133000Y-102255000I0J-75000D01*
G01*
G37*
G36*
G01*
X158133000Y-102755000D02*
X158133000Y-102905000D01*
G75*
G02*
X158058000Y-102980000I-75000J0D01*
G01*
X156733000Y-102980000D01*
G75*
G02*
X156658000Y-102905000I0J75000D01*
G01*
X156658000Y-102755000D01*
G75*
G02*
X156733000Y-102680000I75000J0D01*
G01*
X158058000Y-102680000D01*
G75*
G02*
X158133000Y-102755000I0J-75000D01*
G01*
G37*
G36*
G01*
X158133000Y-103255000D02*
X158133000Y-103405000D01*
G75*
G02*
X158058000Y-103480000I-75000J0D01*
G01*
X156733000Y-103480000D01*
G75*
G02*
X156658000Y-103405000I0J75000D01*
G01*
X156658000Y-103255000D01*
G75*
G02*
X156733000Y-103180000I75000J0D01*
G01*
X158058000Y-103180000D01*
G75*
G02*
X158133000Y-103255000I0J-75000D01*
G01*
G37*
G36*
G01*
X158133000Y-103755000D02*
X158133000Y-103905000D01*
G75*
G02*
X158058000Y-103980000I-75000J0D01*
G01*
X156733000Y-103980000D01*
G75*
G02*
X156658000Y-103905000I0J75000D01*
G01*
X156658000Y-103755000D01*
G75*
G02*
X156733000Y-103680000I75000J0D01*
G01*
X158058000Y-103680000D01*
G75*
G02*
X158133000Y-103755000I0J-75000D01*
G01*
G37*
G36*
G01*
X158133000Y-104255000D02*
X158133000Y-104405000D01*
G75*
G02*
X158058000Y-104480000I-75000J0D01*
G01*
X156733000Y-104480000D01*
G75*
G02*
X156658000Y-104405000I0J75000D01*
G01*
X156658000Y-104255000D01*
G75*
G02*
X156733000Y-104180000I75000J0D01*
G01*
X158058000Y-104180000D01*
G75*
G02*
X158133000Y-104255000I0J-75000D01*
G01*
G37*
G36*
G01*
X158133000Y-104755000D02*
X158133000Y-104905000D01*
G75*
G02*
X158058000Y-104980000I-75000J0D01*
G01*
X156733000Y-104980000D01*
G75*
G02*
X156658000Y-104905000I0J75000D01*
G01*
X156658000Y-104755000D01*
G75*
G02*
X156733000Y-104680000I75000J0D01*
G01*
X158058000Y-104680000D01*
G75*
G02*
X158133000Y-104755000I0J-75000D01*
G01*
G37*
G36*
G01*
X158133000Y-105255000D02*
X158133000Y-105405000D01*
G75*
G02*
X158058000Y-105480000I-75000J0D01*
G01*
X156733000Y-105480000D01*
G75*
G02*
X156658000Y-105405000I0J75000D01*
G01*
X156658000Y-105255000D01*
G75*
G02*
X156733000Y-105180000I75000J0D01*
G01*
X158058000Y-105180000D01*
G75*
G02*
X158133000Y-105255000I0J-75000D01*
G01*
G37*
G36*
G01*
X158133000Y-105755000D02*
X158133000Y-105905000D01*
G75*
G02*
X158058000Y-105980000I-75000J0D01*
G01*
X156733000Y-105980000D01*
G75*
G02*
X156658000Y-105905000I0J75000D01*
G01*
X156658000Y-105755000D01*
G75*
G02*
X156733000Y-105680000I75000J0D01*
G01*
X158058000Y-105680000D01*
G75*
G02*
X158133000Y-105755000I0J-75000D01*
G01*
G37*
G36*
G01*
X158133000Y-106255000D02*
X158133000Y-106405000D01*
G75*
G02*
X158058000Y-106480000I-75000J0D01*
G01*
X156733000Y-106480000D01*
G75*
G02*
X156658000Y-106405000I0J75000D01*
G01*
X156658000Y-106255000D01*
G75*
G02*
X156733000Y-106180000I75000J0D01*
G01*
X158058000Y-106180000D01*
G75*
G02*
X158133000Y-106255000I0J-75000D01*
G01*
G37*
%TD*%
D16*
%TO.C,U7*%
X123063000Y-24765000D03*
D17*
X105283000Y-24765000D03*
X123063000Y-65405000D03*
X105283000Y-65405000D03*
%TD*%
D18*
%TO.C,J13*%
X184023000Y-56515000D03*
D19*
X184023000Y-51435000D03*
%TD*%
D18*
%TO.C,J12*%
X184023000Y-43815000D03*
D19*
X184023000Y-38735000D03*
%TD*%
D20*
%TO.C,U6*%
X123063000Y-118999000D03*
X115443000Y-121539000D03*
X123063000Y-121539000D03*
D21*
X115443000Y-118999000D03*
%TD*%
D20*
%TO.C,U5*%
X123063000Y-111379000D03*
X115443000Y-113919000D03*
X123063000Y-113919000D03*
D21*
X115443000Y-111379000D03*
%TD*%
D20*
%TO.C,U4*%
X123063000Y-103759000D03*
X115443000Y-106299000D03*
X123063000Y-106299000D03*
D21*
X115443000Y-103759000D03*
%TD*%
D20*
%TO.C,U3*%
X123063000Y-96139000D03*
X115443000Y-98679000D03*
X123063000Y-98679000D03*
D21*
X115443000Y-96139000D03*
%TD*%
D20*
%TO.C,U2*%
X123063000Y-88519000D03*
X115443000Y-91059000D03*
X123063000Y-91059000D03*
D21*
X115443000Y-88519000D03*
%TD*%
%TO.C,R10*%
G36*
G01*
X125543000Y-119449001D02*
X125543000Y-118548999D01*
G75*
G02*
X125792999Y-118299000I249999J0D01*
G01*
X126493001Y-118299000D01*
G75*
G02*
X126743000Y-118548999I0J-249999D01*
G01*
X126743000Y-119449001D01*
G75*
G02*
X126493001Y-119699000I-249999J0D01*
G01*
X125792999Y-119699000D01*
G75*
G02*
X125543000Y-119449001I0J249999D01*
G01*
G37*
G36*
G01*
X127543000Y-119449001D02*
X127543000Y-118548999D01*
G75*
G02*
X127792999Y-118299000I249999J0D01*
G01*
X128493001Y-118299000D01*
G75*
G02*
X128743000Y-118548999I0J-249999D01*
G01*
X128743000Y-119449001D01*
G75*
G02*
X128493001Y-119699000I-249999J0D01*
G01*
X127792999Y-119699000D01*
G75*
G02*
X127543000Y-119449001I0J249999D01*
G01*
G37*
%TD*%
%TO.C,R9*%
G36*
G01*
X125543000Y-111829001D02*
X125543000Y-110928999D01*
G75*
G02*
X125792999Y-110679000I249999J0D01*
G01*
X126493001Y-110679000D01*
G75*
G02*
X126743000Y-110928999I0J-249999D01*
G01*
X126743000Y-111829001D01*
G75*
G02*
X126493001Y-112079000I-249999J0D01*
G01*
X125792999Y-112079000D01*
G75*
G02*
X125543000Y-111829001I0J249999D01*
G01*
G37*
G36*
G01*
X127543000Y-111829001D02*
X127543000Y-110928999D01*
G75*
G02*
X127792999Y-110679000I249999J0D01*
G01*
X128493001Y-110679000D01*
G75*
G02*
X128743000Y-110928999I0J-249999D01*
G01*
X128743000Y-111829001D01*
G75*
G02*
X128493001Y-112079000I-249999J0D01*
G01*
X127792999Y-112079000D01*
G75*
G02*
X127543000Y-111829001I0J249999D01*
G01*
G37*
%TD*%
%TO.C,R8*%
G36*
G01*
X125543000Y-104209001D02*
X125543000Y-103308999D01*
G75*
G02*
X125792999Y-103059000I249999J0D01*
G01*
X126493001Y-103059000D01*
G75*
G02*
X126743000Y-103308999I0J-249999D01*
G01*
X126743000Y-104209001D01*
G75*
G02*
X126493001Y-104459000I-249999J0D01*
G01*
X125792999Y-104459000D01*
G75*
G02*
X125543000Y-104209001I0J249999D01*
G01*
G37*
G36*
G01*
X127543000Y-104209001D02*
X127543000Y-103308999D01*
G75*
G02*
X127792999Y-103059000I249999J0D01*
G01*
X128493001Y-103059000D01*
G75*
G02*
X128743000Y-103308999I0J-249999D01*
G01*
X128743000Y-104209001D01*
G75*
G02*
X128493001Y-104459000I-249999J0D01*
G01*
X127792999Y-104459000D01*
G75*
G02*
X127543000Y-104209001I0J249999D01*
G01*
G37*
%TD*%
%TO.C,R7*%
G36*
G01*
X125543000Y-96589001D02*
X125543000Y-95688999D01*
G75*
G02*
X125792999Y-95439000I249999J0D01*
G01*
X126493001Y-95439000D01*
G75*
G02*
X126743000Y-95688999I0J-249999D01*
G01*
X126743000Y-96589001D01*
G75*
G02*
X126493001Y-96839000I-249999J0D01*
G01*
X125792999Y-96839000D01*
G75*
G02*
X125543000Y-96589001I0J249999D01*
G01*
G37*
G36*
G01*
X127543000Y-96589001D02*
X127543000Y-95688999D01*
G75*
G02*
X127792999Y-95439000I249999J0D01*
G01*
X128493001Y-95439000D01*
G75*
G02*
X128743000Y-95688999I0J-249999D01*
G01*
X128743000Y-96589001D01*
G75*
G02*
X128493001Y-96839000I-249999J0D01*
G01*
X127792999Y-96839000D01*
G75*
G02*
X127543000Y-96589001I0J249999D01*
G01*
G37*
%TD*%
%TO.C,R6*%
G36*
G01*
X113233000Y-118548999D02*
X113233000Y-119449001D01*
G75*
G02*
X112983001Y-119699000I-249999J0D01*
G01*
X112282999Y-119699000D01*
G75*
G02*
X112033000Y-119449001I0J249999D01*
G01*
X112033000Y-118548999D01*
G75*
G02*
X112282999Y-118299000I249999J0D01*
G01*
X112983001Y-118299000D01*
G75*
G02*
X113233000Y-118548999I0J-249999D01*
G01*
G37*
G36*
G01*
X111233000Y-118548999D02*
X111233000Y-119449001D01*
G75*
G02*
X110983001Y-119699000I-249999J0D01*
G01*
X110282999Y-119699000D01*
G75*
G02*
X110033000Y-119449001I0J249999D01*
G01*
X110033000Y-118548999D01*
G75*
G02*
X110282999Y-118299000I249999J0D01*
G01*
X110983001Y-118299000D01*
G75*
G02*
X111233000Y-118548999I0J-249999D01*
G01*
G37*
%TD*%
%TO.C,R5*%
G36*
G01*
X112598000Y-110928999D02*
X112598000Y-111829001D01*
G75*
G02*
X112348001Y-112079000I-249999J0D01*
G01*
X111647999Y-112079000D01*
G75*
G02*
X111398000Y-111829001I0J249999D01*
G01*
X111398000Y-110928999D01*
G75*
G02*
X111647999Y-110679000I249999J0D01*
G01*
X112348001Y-110679000D01*
G75*
G02*
X112598000Y-110928999I0J-249999D01*
G01*
G37*
G36*
G01*
X110598000Y-110928999D02*
X110598000Y-111829001D01*
G75*
G02*
X110348001Y-112079000I-249999J0D01*
G01*
X109647999Y-112079000D01*
G75*
G02*
X109398000Y-111829001I0J249999D01*
G01*
X109398000Y-110928999D01*
G75*
G02*
X109647999Y-110679000I249999J0D01*
G01*
X110348001Y-110679000D01*
G75*
G02*
X110598000Y-110928999I0J-249999D01*
G01*
G37*
%TD*%
%TO.C,R4*%
G36*
G01*
X112868000Y-103308999D02*
X112868000Y-104209001D01*
G75*
G02*
X112618001Y-104459000I-249999J0D01*
G01*
X111917999Y-104459000D01*
G75*
G02*
X111668000Y-104209001I0J249999D01*
G01*
X111668000Y-103308999D01*
G75*
G02*
X111917999Y-103059000I249999J0D01*
G01*
X112618001Y-103059000D01*
G75*
G02*
X112868000Y-103308999I0J-249999D01*
G01*
G37*
G36*
G01*
X110868000Y-103308999D02*
X110868000Y-104209001D01*
G75*
G02*
X110618001Y-104459000I-249999J0D01*
G01*
X109917999Y-104459000D01*
G75*
G02*
X109668000Y-104209001I0J249999D01*
G01*
X109668000Y-103308999D01*
G75*
G02*
X109917999Y-103059000I249999J0D01*
G01*
X110618001Y-103059000D01*
G75*
G02*
X110868000Y-103308999I0J-249999D01*
G01*
G37*
%TD*%
%TO.C,R3*%
G36*
G01*
X113233000Y-95688999D02*
X113233000Y-96589001D01*
G75*
G02*
X112983001Y-96839000I-249999J0D01*
G01*
X112282999Y-96839000D01*
G75*
G02*
X112033000Y-96589001I0J249999D01*
G01*
X112033000Y-95688999D01*
G75*
G02*
X112282999Y-95439000I249999J0D01*
G01*
X112983001Y-95439000D01*
G75*
G02*
X113233000Y-95688999I0J-249999D01*
G01*
G37*
G36*
G01*
X111233000Y-95688999D02*
X111233000Y-96589001D01*
G75*
G02*
X110983001Y-96839000I-249999J0D01*
G01*
X110282999Y-96839000D01*
G75*
G02*
X110033000Y-96589001I0J249999D01*
G01*
X110033000Y-95688999D01*
G75*
G02*
X110282999Y-95439000I249999J0D01*
G01*
X110983001Y-95439000D01*
G75*
G02*
X111233000Y-95688999I0J-249999D01*
G01*
G37*
%TD*%
%TO.C,R2*%
G36*
G01*
X125638000Y-88969001D02*
X125638000Y-88068999D01*
G75*
G02*
X125887999Y-87819000I249999J0D01*
G01*
X126588001Y-87819000D01*
G75*
G02*
X126838000Y-88068999I0J-249999D01*
G01*
X126838000Y-88969001D01*
G75*
G02*
X126588001Y-89219000I-249999J0D01*
G01*
X125887999Y-89219000D01*
G75*
G02*
X125638000Y-88969001I0J249999D01*
G01*
G37*
G36*
G01*
X127638000Y-88969001D02*
X127638000Y-88068999D01*
G75*
G02*
X127887999Y-87819000I249999J0D01*
G01*
X128588001Y-87819000D01*
G75*
G02*
X128838000Y-88068999I0J-249999D01*
G01*
X128838000Y-88969001D01*
G75*
G02*
X128588001Y-89219000I-249999J0D01*
G01*
X127887999Y-89219000D01*
G75*
G02*
X127638000Y-88969001I0J249999D01*
G01*
G37*
%TD*%
%TO.C,R1*%
G36*
G01*
X113233000Y-88068999D02*
X113233000Y-88969001D01*
G75*
G02*
X112983001Y-89219000I-249999J0D01*
G01*
X112282999Y-89219000D01*
G75*
G02*
X112033000Y-88969001I0J249999D01*
G01*
X112033000Y-88068999D01*
G75*
G02*
X112282999Y-87819000I249999J0D01*
G01*
X112983001Y-87819000D01*
G75*
G02*
X113233000Y-88068999I0J-249999D01*
G01*
G37*
G36*
G01*
X111233000Y-88068999D02*
X111233000Y-88969001D01*
G75*
G02*
X110983001Y-89219000I-249999J0D01*
G01*
X110282999Y-89219000D01*
G75*
G02*
X110033000Y-88969001I0J249999D01*
G01*
X110033000Y-88068999D01*
G75*
G02*
X110282999Y-87819000I249999J0D01*
G01*
X110983001Y-87819000D01*
G75*
G02*
X111233000Y-88068999I0J-249999D01*
G01*
G37*
%TD*%
D18*
%TO.C,J10*%
X184023000Y-66675000D03*
X184023000Y-71755000D03*
D19*
X184023000Y-61595000D03*
D18*
X184023000Y-76835000D03*
%TD*%
%TO.C,J9*%
X94488000Y-115570000D03*
X94488000Y-120650000D03*
D19*
X94488000Y-125730000D03*
%TD*%
D18*
%TO.C,J8*%
X94488000Y-100330000D03*
X94488000Y-105410000D03*
D19*
X94488000Y-110490000D03*
%TD*%
D18*
%TO.C,J7*%
X94488000Y-85090000D03*
X94488000Y-90170000D03*
D19*
X94488000Y-95250000D03*
%TD*%
D18*
%TO.C,J6*%
X94488000Y-69850000D03*
X94488000Y-74930000D03*
D19*
X94488000Y-80010000D03*
%TD*%
D18*
%TO.C,J5*%
X94488000Y-54610000D03*
X94488000Y-59690000D03*
D19*
X94488000Y-64770000D03*
%TD*%
D11*
%TO.C,J4*%
X185293000Y-100965000D03*
X182753000Y-100965000D03*
X185293000Y-98425000D03*
X182753000Y-98425000D03*
X185293000Y-95885000D03*
D10*
X182753000Y-95885000D03*
%TD*%
D18*
%TO.C,J3*%
X174498000Y-56515000D03*
D19*
X174498000Y-51435000D03*
%TD*%
D18*
%TO.C,J2*%
X174498000Y-46355000D03*
D19*
X174498000Y-41275000D03*
%TD*%
D11*
%TO.C,J1*%
X131318000Y-50165000D03*
X133858000Y-50165000D03*
X131318000Y-52705000D03*
X133858000Y-52705000D03*
X131318000Y-55245000D03*
X133858000Y-55245000D03*
X131318000Y-57785000D03*
D10*
X133858000Y-57785000D03*
%TD*%
D22*
%TO.C,P1*%
X138938000Y-123825000D03*
X141478000Y-123825000D03*
X144018000Y-123825000D03*
X146558000Y-123825000D03*
X149098000Y-123825000D03*
X151638000Y-123825000D03*
X154178000Y-123825000D03*
X156718000Y-123825000D03*
%TD*%
%TO.C,P2*%
X161798000Y-123825000D03*
X164338000Y-123825000D03*
X166878000Y-123825000D03*
X169418000Y-123825000D03*
X171958000Y-123825000D03*
X174498000Y-123825000D03*
%TD*%
%TO.C,P3*%
X129794000Y-75565000D03*
X132334000Y-75565000D03*
X134874000Y-75565000D03*
X137414000Y-75565000D03*
X139954000Y-75565000D03*
X142494000Y-75565000D03*
X145034000Y-75565000D03*
X147574000Y-75565000D03*
X150114000Y-75565000D03*
X152654000Y-75565000D03*
%TD*%
%TO.C,P4*%
X156718000Y-75565000D03*
X159258000Y-75565000D03*
X161798000Y-75565000D03*
X164338000Y-75565000D03*
X166878000Y-75565000D03*
X169418000Y-75565000D03*
X171958000Y-75565000D03*
X174498000Y-75565000D03*
%TD*%
D23*
%TO.C,P6*%
X177038000Y-118745000D03*
%TD*%
%TO.C,P7*%
X126238000Y-75565000D03*
%TD*%
M02*
