%TF.GenerationSoftware,KiCad,Pcbnew,(5.1.12)-1*%
%TF.CreationDate,2022-07-12T11:00:18-05:00*%
%TF.ProjectId,mpe_v0.3,6d70655f-7630-42e3-932e-6b696361645f,rev?*%
%TF.SameCoordinates,Original*%
%TF.FileFunction,Legend,Top*%
%TF.FilePolarity,Positive*%
%FSLAX46Y46*%
G04 Gerber Fmt 4.6, Leading zero omitted, Abs format (unit mm)*
G04 Created by KiCad (PCBNEW (5.1.12)-1) date 2022-07-12 11:00:18*
%MOMM*%
%LPD*%
G01*
G04 APERTURE LIST*
%ADD10C,0.150000*%
%ADD11C,0.120000*%
G04 APERTURE END LIST*
D10*
X185928095Y-125992000D02*
X185832857Y-125944380D01*
X185690000Y-125944380D01*
X185547142Y-125992000D01*
X185451904Y-126087238D01*
X185404285Y-126182476D01*
X185356666Y-126372952D01*
X185356666Y-126515809D01*
X185404285Y-126706285D01*
X185451904Y-126801523D01*
X185547142Y-126896761D01*
X185690000Y-126944380D01*
X185785238Y-126944380D01*
X185928095Y-126896761D01*
X185975714Y-126849142D01*
X185975714Y-126515809D01*
X185785238Y-126515809D01*
X186404285Y-126944380D02*
X186404285Y-125944380D01*
X186975714Y-126944380D01*
X186975714Y-125944380D01*
X187451904Y-126944380D02*
X187451904Y-125944380D01*
X187690000Y-125944380D01*
X187832857Y-125992000D01*
X187928095Y-126087238D01*
X187975714Y-126182476D01*
X188023333Y-126372952D01*
X188023333Y-126515809D01*
X187975714Y-126706285D01*
X187928095Y-126801523D01*
X187832857Y-126896761D01*
X187690000Y-126944380D01*
X187451904Y-126944380D01*
X186142333Y-124277380D02*
X185809000Y-123801190D01*
X185570904Y-124277380D02*
X185570904Y-123277380D01*
X185951857Y-123277380D01*
X186047095Y-123325000D01*
X186094714Y-123372619D01*
X186142333Y-123467857D01*
X186142333Y-123610714D01*
X186094714Y-123705952D01*
X186047095Y-123753571D01*
X185951857Y-123801190D01*
X185570904Y-123801190D01*
X186475666Y-123277380D02*
X187142333Y-124277380D01*
X187142333Y-123277380D02*
X186475666Y-124277380D01*
X185420095Y-120737380D02*
X185991523Y-120737380D01*
X185705809Y-121737380D02*
X185705809Y-120737380D01*
X186229619Y-120737380D02*
X186896285Y-121737380D01*
X186896285Y-120737380D02*
X186229619Y-121737380D01*
X186118523Y-118324380D02*
X185642333Y-118324380D01*
X185594714Y-118800571D01*
X185642333Y-118752952D01*
X185737571Y-118705333D01*
X185975666Y-118705333D01*
X186070904Y-118752952D01*
X186118523Y-118800571D01*
X186166142Y-118895809D01*
X186166142Y-119133904D01*
X186118523Y-119229142D01*
X186070904Y-119276761D01*
X185975666Y-119324380D01*
X185737571Y-119324380D01*
X185642333Y-119276761D01*
X185594714Y-119229142D01*
X186451857Y-118324380D02*
X186785190Y-119324380D01*
X187118523Y-118324380D01*
X179051000Y-19450000D02*
X179051000Y-69450000D01*
X129051000Y-19450000D02*
X179051000Y-19450000D01*
X129051000Y-69450000D02*
X129051000Y-19450000D01*
X179051000Y-69450000D02*
X129051000Y-69450000D01*
X139390380Y-120999285D02*
X139390380Y-121570714D01*
X139390380Y-121285000D02*
X138390380Y-121285000D01*
X138533238Y-121380238D01*
X138628476Y-121475476D01*
X138676095Y-121570714D01*
D11*
%TO.C,C2*%
X156943248Y-113130000D02*
X157465752Y-113130000D01*
X156943248Y-111660000D02*
X157465752Y-111660000D01*
%TO.C,J16*%
X136398000Y-89475000D02*
X137728000Y-89475000D01*
X137728000Y-89475000D02*
X137728000Y-90805000D01*
X137728000Y-92075000D02*
X137728000Y-99755000D01*
X135068000Y-99755000D02*
X137728000Y-99755000D01*
X135068000Y-92075000D02*
X135068000Y-99755000D01*
X135068000Y-92075000D02*
X137728000Y-92075000D01*
%TO.C,J15*%
X137728000Y-114935000D02*
X135068000Y-114935000D01*
X137728000Y-114935000D02*
X137728000Y-107255000D01*
X137728000Y-107255000D02*
X135068000Y-107255000D01*
X135068000Y-114935000D02*
X135068000Y-107255000D01*
X135068000Y-117535000D02*
X135068000Y-116205000D01*
X136398000Y-117535000D02*
X135068000Y-117535000D01*
%TO.C,Y1*%
X143966000Y-85583000D02*
X150366000Y-85583000D01*
X143966000Y-80533000D02*
X150366000Y-80533000D01*
X150366000Y-85583000D02*
G75*
G03*
X150366000Y-80533000I0J2525000D01*
G01*
X143966000Y-85583000D02*
G75*
G02*
X143966000Y-80533000I0J2525000D01*
G01*
%TO.C,C8*%
X149718752Y-78386000D02*
X149196248Y-78386000D01*
X149718752Y-79856000D02*
X149196248Y-79856000D01*
%TO.C,C7*%
X144243248Y-79856000D02*
X144765752Y-79856000D01*
X144243248Y-78386000D02*
X144765752Y-78386000D01*
%TO.C,J11*%
X182058000Y-117415000D02*
X183388000Y-117415000D01*
X182058000Y-118745000D02*
X182058000Y-117415000D01*
X182058000Y-120015000D02*
X184718000Y-120015000D01*
X184718000Y-120015000D02*
X184718000Y-127695000D01*
X182058000Y-120015000D02*
X182058000Y-127695000D01*
X182058000Y-127695000D02*
X184718000Y-127695000D01*
%TO.C,C6*%
X168810000Y-99031248D02*
X168810000Y-99553752D01*
X170280000Y-99031248D02*
X170280000Y-99553752D01*
%TO.C,C5*%
X146289752Y-112930000D02*
X145767248Y-112930000D01*
X146289752Y-114400000D02*
X145767248Y-114400000D01*
%TO.C,C4*%
X154278000Y-87474248D02*
X154278000Y-87996752D01*
X152808000Y-87474248D02*
X152808000Y-87996752D01*
%TO.C,SW1*%
X182928000Y-112160000D02*
X184428000Y-112160000D01*
X186928000Y-110910000D02*
X186928000Y-106410000D01*
X184428000Y-105160000D02*
X182928000Y-105160000D01*
X180428000Y-106410000D02*
X180428000Y-110910000D01*
%TO.C,R12*%
X179170000Y-109082064D02*
X179170000Y-108627936D01*
X177700000Y-109082064D02*
X177700000Y-108627936D01*
%TO.C,C1*%
X183126748Y-115670000D02*
X183649252Y-115670000D01*
X183126748Y-114200000D02*
X183649252Y-114200000D01*
%TO.C,R11*%
X175360064Y-87530000D02*
X174905936Y-87530000D01*
X175360064Y-89000000D02*
X174905936Y-89000000D01*
%TO.C,D1*%
X186583000Y-89810000D02*
X186583000Y-86720000D01*
X186523000Y-88265000D02*
G75*
G03*
X186523000Y-88265000I-2500000J0D01*
G01*
X181033000Y-88265462D02*
G75*
G02*
X186583000Y-86720170I2990000J462D01*
G01*
X181033000Y-88264538D02*
G75*
G03*
X186583000Y-89809830I2990000J-462D01*
G01*
%TO.C,U1*%
X156843000Y-106740000D02*
X158133000Y-106740000D01*
X156843000Y-107440000D02*
X156843000Y-106740000D01*
X156143000Y-107440000D02*
X156843000Y-107440000D01*
X142623000Y-107440000D02*
X142623000Y-106740000D01*
X143323000Y-107440000D02*
X142623000Y-107440000D01*
X156843000Y-93220000D02*
X156843000Y-93920000D01*
X156143000Y-93220000D02*
X156843000Y-93220000D01*
X142623000Y-93220000D02*
X142623000Y-93920000D01*
X143323000Y-93220000D02*
X142623000Y-93220000D01*
%TO.C,U7*%
X121793000Y-26345000D02*
X121483000Y-26345000D01*
X124643000Y-23215000D02*
X124643000Y-24515000D01*
X121488000Y-23215000D02*
X121483000Y-26345000D01*
X106863000Y-23215000D02*
X106863000Y-26345000D01*
X106863000Y-26345000D02*
X103703000Y-26345000D01*
X103703000Y-23215000D02*
X103703000Y-26345000D01*
X124643000Y-63825000D02*
X124643000Y-66940000D01*
X121483000Y-63825000D02*
X121483000Y-66985000D01*
X121483000Y-63825000D02*
X124643000Y-63825000D01*
X106863000Y-63825000D02*
X106863000Y-66940000D01*
X103703000Y-63825000D02*
X103703000Y-66940000D01*
X103703000Y-63825000D02*
X106863000Y-63825000D01*
X115283406Y-34438179D02*
G75*
G03*
X115283406Y-34438179I-375000J0D01*
G01*
X107517000Y-60325000D02*
G75*
G03*
X107517000Y-60325000I-1599000J0D01*
G01*
X124026999Y-29845000D02*
G75*
G03*
X124026999Y-29845000I-1598999J0D01*
G01*
X115877204Y-51582397D02*
G75*
G03*
X115877204Y-51582397I-5250000J0D01*
G01*
X117607794Y-62794307D02*
G75*
G03*
X117607794Y-62794307I-4000000J0D01*
G01*
X118105582Y-27411666D02*
G75*
G03*
X118105582Y-27411666I-4000000J0D01*
G01*
X106268304Y-38047636D02*
X106362856Y-38047636D01*
X106779783Y-37176358D02*
X104479783Y-37176358D01*
X109366330Y-34775233D02*
X113996330Y-34775233D01*
X109366330Y-35615233D02*
X113996330Y-35615233D01*
X109366330Y-34775233D02*
X109366330Y-35615233D01*
X109366330Y-36475233D02*
X113996330Y-36475233D01*
X109366330Y-37315233D02*
X113996330Y-37315233D01*
X109366330Y-36475233D02*
X109366330Y-37315233D01*
X109366330Y-38175233D02*
X113996330Y-38175233D01*
X109366330Y-39015233D02*
X113996330Y-39015233D01*
X109366330Y-38175233D02*
X109366330Y-39015233D01*
X109366330Y-39875233D02*
X113996330Y-39875233D01*
X109366330Y-40715233D02*
X113996330Y-40715233D01*
X109366330Y-39875233D02*
X109366330Y-40715233D01*
X109366330Y-41575233D02*
X113996330Y-41575233D01*
X109366330Y-42415233D02*
X113996330Y-42415233D01*
X109366330Y-41575233D02*
X109366330Y-42415233D01*
X122058851Y-33514233D02*
X121897313Y-33514233D01*
X114073894Y-33515233D02*
X123425390Y-33515233D01*
X114073894Y-33515233D02*
X113996330Y-33592797D01*
X113996330Y-33592797D02*
X113996330Y-43597670D01*
X114073894Y-43675233D02*
X123425390Y-43675233D01*
X113996330Y-43597670D02*
X114073894Y-43675233D01*
X122636330Y-43675233D02*
X122636330Y-33515233D01*
X123425390Y-33515233D02*
X123716329Y-35165233D01*
X123716329Y-35165233D02*
X123716329Y-42025233D01*
X123716329Y-42025233D02*
X123425390Y-43675233D01*
X104479783Y-34246636D02*
X106779783Y-34246636D01*
X104379783Y-37946636D02*
X104379783Y-34346636D01*
X106779783Y-38046636D02*
X104479783Y-38046636D01*
X106879783Y-34346636D02*
X106879783Y-37946636D01*
X106504783Y-38496636D02*
X104754783Y-38496636D01*
X104754783Y-38496636D02*
X104754783Y-38046636D01*
X106504783Y-38046636D02*
X106504783Y-38496636D01*
X104754783Y-34246636D02*
X104754783Y-33796636D01*
X104754783Y-33796636D02*
X106504783Y-33796636D01*
X106504783Y-33796636D02*
X106504783Y-34246636D01*
X103448000Y-23210000D02*
X103448000Y-66960000D01*
X124898000Y-23210000D02*
X103448000Y-23210000D01*
X124898000Y-66960000D02*
X124898000Y-23210000D01*
X103448000Y-66960000D02*
X124898000Y-66960000D01*
X123682704Y-62213681D02*
X123682704Y-61413681D01*
X123362704Y-61413681D02*
X123362704Y-62213681D01*
X115477204Y-45232397D02*
X105777204Y-45232397D01*
X116977204Y-56432397D02*
X116977204Y-46732397D01*
X105777204Y-57932397D02*
X115477204Y-57932397D01*
X104277204Y-46732397D02*
X104277204Y-56432397D01*
X122580706Y-49125553D02*
X122580706Y-51204014D01*
X123080705Y-51204014D02*
X123080705Y-49125553D01*
X123112100Y-49101385D02*
X123080705Y-49125553D01*
X123055706Y-49113594D02*
X123080705Y-49125553D01*
X123055706Y-49113594D02*
X123060938Y-49089147D01*
X123055706Y-49113594D02*
X123086925Y-49120764D01*
X124430705Y-48114783D02*
X124430705Y-58014783D01*
X119480706Y-48064783D02*
X124380705Y-48064783D01*
X119430706Y-58014783D02*
X119430706Y-48114783D01*
X124380705Y-58064783D02*
X119480706Y-58064783D01*
X124431705Y-56623978D02*
X124431705Y-56579106D01*
X124431705Y-56707312D02*
X124431705Y-56673357D01*
X122402705Y-62213681D02*
X122402705Y-61413681D01*
X122082705Y-62213681D02*
X122082705Y-61413681D01*
X123682704Y-62213681D02*
X122082705Y-62213681D01*
X122082705Y-61413681D02*
X123682704Y-61413681D01*
X104379783Y-34346636D02*
G75*
G02*
X104479783Y-34246636I100000J0D01*
G01*
X104479783Y-38046636D02*
G75*
G02*
X104379783Y-37946636I0J100000D01*
G01*
X106879783Y-37946636D02*
G75*
G02*
X106779783Y-38046636I-100000J0D01*
G01*
X106779783Y-34246636D02*
G75*
G02*
X106879783Y-34346636I0J-100000D01*
G01*
X113462816Y-56584577D02*
G75*
G02*
X113596989Y-56618662I49316J-86994D01*
G01*
X105625024Y-54418011D02*
G75*
G02*
X105625024Y-48746783I5002180J2835614D01*
G01*
X107657418Y-56618663D02*
G75*
G02*
X107791590Y-56584576I84857J-52908D01*
G01*
X113462817Y-56584576D02*
G75*
G02*
X107791590Y-56584576I-2835613J5002179D01*
G01*
X105777204Y-57932397D02*
G75*
G02*
X104277204Y-56432397I0J1500000D01*
G01*
X115663469Y-54552183D02*
G75*
G02*
X113596989Y-56618662I-793625J-1272855D01*
G01*
X105590938Y-48612611D02*
G75*
G02*
X105625024Y-48746783I-52908J-84857D01*
G01*
X115477204Y-45232397D02*
G75*
G02*
X116977204Y-46732397I0J-1500000D01*
G01*
X116977204Y-56432397D02*
G75*
G02*
X115477204Y-57932397I-1500000J0D01*
G01*
X104277204Y-46732397D02*
G75*
G02*
X105777204Y-45232397I1500000J0D01*
G01*
X105625025Y-54418011D02*
G75*
G02*
X105590938Y-54552183I-86995J-49315D01*
G01*
X105590938Y-48612611D02*
G75*
G02*
X107657418Y-46546132I793625J1272855D01*
G01*
X107791590Y-46580218D02*
G75*
G02*
X113462817Y-46580218I2835614J-5002179D01*
G01*
X115629383Y-48746784D02*
G75*
G02*
X115629383Y-54418011I-5002179J-2835613D01*
G01*
X107657418Y-56618662D02*
G75*
G02*
X105590938Y-54552183I-1272855J793624D01*
G01*
X113596989Y-46546132D02*
G75*
G02*
X115663469Y-48612611I1272855J-793624D01*
G01*
X115629382Y-48746783D02*
G75*
G02*
X115663469Y-48612611I86995J49315D01*
G01*
X113596989Y-46546131D02*
G75*
G02*
X113462817Y-46580218I-84857J52908D01*
G01*
X107791591Y-46580217D02*
G75*
G02*
X107657418Y-46546132I-49316J86994D01*
G01*
X115663469Y-54552183D02*
G75*
G02*
X115629383Y-54418011I52908J84857D01*
G01*
X122600473Y-49089147D02*
G75*
G02*
X122549310Y-49101385I230233J-1075636D01*
G01*
X119480706Y-58064783D02*
G75*
G02*
X119430706Y-58014783I0J50000D01*
G01*
X124380705Y-48064783D02*
G75*
G02*
X124430705Y-48114783I0J-50000D01*
G01*
X119430706Y-48114783D02*
G75*
G02*
X119480706Y-48064783I50000J0D01*
G01*
X124430705Y-58014783D02*
G75*
G02*
X124380705Y-58064783I-50000J0D01*
G01*
%TO.C,J13*%
X181483000Y-59055000D02*
X181483000Y-48895000D01*
X180213000Y-59055000D02*
X187833000Y-59055000D01*
X187833000Y-59055000D02*
X187833000Y-48895000D01*
X187833000Y-48895000D02*
X180213000Y-48895000D01*
X180213000Y-48895000D02*
X180213000Y-59055000D01*
%TO.C,J12*%
X181483000Y-46355000D02*
X181483000Y-36195000D01*
X180213000Y-46355000D02*
X187833000Y-46355000D01*
X187833000Y-46355000D02*
X187833000Y-36195000D01*
X187833000Y-36195000D02*
X180213000Y-36195000D01*
X180213000Y-36195000D02*
X180213000Y-46355000D01*
%TO.C,U6*%
X121903000Y-117669000D02*
X120253000Y-117669000D01*
X121903000Y-122869000D02*
X121903000Y-117669000D01*
X116603000Y-122869000D02*
X121903000Y-122869000D01*
X116603000Y-117669000D02*
X116603000Y-122869000D01*
X118253000Y-117669000D02*
X116603000Y-117669000D01*
X120253000Y-117669000D02*
G75*
G02*
X118253000Y-117669000I-1000000J0D01*
G01*
%TO.C,U5*%
X121903000Y-110049000D02*
X120253000Y-110049000D01*
X121903000Y-115249000D02*
X121903000Y-110049000D01*
X116603000Y-115249000D02*
X121903000Y-115249000D01*
X116603000Y-110049000D02*
X116603000Y-115249000D01*
X118253000Y-110049000D02*
X116603000Y-110049000D01*
X120253000Y-110049000D02*
G75*
G02*
X118253000Y-110049000I-1000000J0D01*
G01*
%TO.C,U4*%
X121903000Y-102429000D02*
X120253000Y-102429000D01*
X121903000Y-107629000D02*
X121903000Y-102429000D01*
X116603000Y-107629000D02*
X121903000Y-107629000D01*
X116603000Y-102429000D02*
X116603000Y-107629000D01*
X118253000Y-102429000D02*
X116603000Y-102429000D01*
X120253000Y-102429000D02*
G75*
G02*
X118253000Y-102429000I-1000000J0D01*
G01*
%TO.C,U3*%
X121903000Y-94809000D02*
X120253000Y-94809000D01*
X121903000Y-100009000D02*
X121903000Y-94809000D01*
X116603000Y-100009000D02*
X121903000Y-100009000D01*
X116603000Y-94809000D02*
X116603000Y-100009000D01*
X118253000Y-94809000D02*
X116603000Y-94809000D01*
X120253000Y-94809000D02*
G75*
G02*
X118253000Y-94809000I-1000000J0D01*
G01*
%TO.C,U2*%
X121903000Y-87189000D02*
X120253000Y-87189000D01*
X121903000Y-92389000D02*
X121903000Y-87189000D01*
X116603000Y-92389000D02*
X121903000Y-92389000D01*
X116603000Y-87189000D02*
X116603000Y-92389000D01*
X118253000Y-87189000D02*
X116603000Y-87189000D01*
X120253000Y-87189000D02*
G75*
G02*
X118253000Y-87189000I-1000000J0D01*
G01*
%TO.C,R10*%
X126915936Y-118264000D02*
X127370064Y-118264000D01*
X126915936Y-119734000D02*
X127370064Y-119734000D01*
%TO.C,R9*%
X126915936Y-110644000D02*
X127370064Y-110644000D01*
X126915936Y-112114000D02*
X127370064Y-112114000D01*
%TO.C,R8*%
X126915936Y-103024000D02*
X127370064Y-103024000D01*
X126915936Y-104494000D02*
X127370064Y-104494000D01*
%TO.C,R7*%
X126915936Y-95404000D02*
X127370064Y-95404000D01*
X126915936Y-96874000D02*
X127370064Y-96874000D01*
%TO.C,R6*%
X111860064Y-119734000D02*
X111405936Y-119734000D01*
X111860064Y-118264000D02*
X111405936Y-118264000D01*
%TO.C,R5*%
X111225064Y-112114000D02*
X110770936Y-112114000D01*
X111225064Y-110644000D02*
X110770936Y-110644000D01*
%TO.C,R4*%
X111495064Y-104494000D02*
X111040936Y-104494000D01*
X111495064Y-103024000D02*
X111040936Y-103024000D01*
%TO.C,R3*%
X111860064Y-96874000D02*
X111405936Y-96874000D01*
X111860064Y-95404000D02*
X111405936Y-95404000D01*
%TO.C,R2*%
X127010936Y-87784000D02*
X127465064Y-87784000D01*
X127010936Y-89254000D02*
X127465064Y-89254000D01*
%TO.C,R1*%
X111860064Y-89254000D02*
X111405936Y-89254000D01*
X111860064Y-87784000D02*
X111405936Y-87784000D01*
%TO.C,J10*%
X187833000Y-59055000D02*
X180213000Y-59055000D01*
X180213000Y-79375000D02*
X187833000Y-79375000D01*
X181483000Y-79375000D02*
X181483000Y-59055000D01*
X187833000Y-59055000D02*
X187833000Y-79375000D01*
X180213000Y-59055000D02*
X180213000Y-79375000D01*
%TO.C,J9*%
X98298000Y-128270000D02*
X98298000Y-113030000D01*
X90678000Y-128270000D02*
X90678000Y-113030000D01*
X97028000Y-128270000D02*
X97028000Y-113030000D01*
X98298000Y-113030000D02*
X90678000Y-113030000D01*
X98298000Y-128270000D02*
X90678000Y-128270000D01*
%TO.C,J8*%
X98298000Y-113030000D02*
X98298000Y-97790000D01*
X90678000Y-113030000D02*
X90678000Y-97790000D01*
X97028000Y-113030000D02*
X97028000Y-97790000D01*
X98298000Y-97790000D02*
X90678000Y-97790000D01*
X98298000Y-113030000D02*
X90678000Y-113030000D01*
%TO.C,J7*%
X98298000Y-97790000D02*
X98298000Y-82550000D01*
X90678000Y-97790000D02*
X90678000Y-82550000D01*
X97028000Y-97790000D02*
X97028000Y-82550000D01*
X98298000Y-82550000D02*
X90678000Y-82550000D01*
X98298000Y-97790000D02*
X90678000Y-97790000D01*
%TO.C,J6*%
X98298000Y-82550000D02*
X98298000Y-67310000D01*
X90678000Y-82550000D02*
X90678000Y-67310000D01*
X97028000Y-82550000D02*
X97028000Y-67310000D01*
X98298000Y-67310000D02*
X90678000Y-67310000D01*
X98298000Y-82550000D02*
X90678000Y-82550000D01*
%TO.C,J5*%
X98298000Y-67310000D02*
X98298000Y-52070000D01*
X90678000Y-67310000D02*
X90678000Y-52070000D01*
X97028000Y-67310000D02*
X97028000Y-52070000D01*
X98298000Y-52070000D02*
X90678000Y-52070000D01*
X98298000Y-67310000D02*
X90678000Y-67310000D01*
%TO.C,J4*%
X181423000Y-94555000D02*
X182753000Y-94555000D01*
X181423000Y-95885000D02*
X181423000Y-94555000D01*
X184023000Y-94555000D02*
X186623000Y-94555000D01*
X184023000Y-97155000D02*
X184023000Y-94555000D01*
X181423000Y-97155000D02*
X184023000Y-97155000D01*
X186623000Y-94555000D02*
X186623000Y-102295000D01*
X181423000Y-97155000D02*
X181423000Y-102295000D01*
X181423000Y-102295000D02*
X186623000Y-102295000D01*
%TO.C,J3*%
X170688000Y-48895000D02*
X170688000Y-59055000D01*
X178308000Y-48895000D02*
X170688000Y-48895000D01*
X178308000Y-59055000D02*
X178308000Y-48895000D01*
X170688000Y-59055000D02*
X178308000Y-59055000D01*
X171958000Y-59055000D02*
X171958000Y-48895000D01*
%TO.C,J2*%
X170688000Y-38735000D02*
X170688000Y-48895000D01*
X178308000Y-38735000D02*
X170688000Y-38735000D01*
X178308000Y-48895000D02*
X178308000Y-38735000D01*
X170688000Y-48895000D02*
X178308000Y-48895000D01*
X171958000Y-48895000D02*
X171958000Y-38735000D01*
%TO.C,J1*%
X135188000Y-59115000D02*
X133858000Y-59115000D01*
X135188000Y-57785000D02*
X135188000Y-59115000D01*
X132588000Y-59115000D02*
X129988000Y-59115000D01*
X132588000Y-56515000D02*
X132588000Y-59115000D01*
X135188000Y-56515000D02*
X132588000Y-56515000D01*
X129988000Y-59115000D02*
X129988000Y-48835000D01*
X135188000Y-56515000D02*
X135188000Y-48835000D01*
X135188000Y-48835000D02*
X129988000Y-48835000D01*
D10*
%TO.C,P1*%
X140208000Y-125095000D02*
X157988000Y-125095000D01*
X157988000Y-125095000D02*
X157988000Y-122555000D01*
X157988000Y-122555000D02*
X140208000Y-122555000D01*
X137388000Y-125375000D02*
X138938000Y-125375000D01*
X140208000Y-125095000D02*
X140208000Y-122555000D01*
X138938000Y-122275000D02*
X137388000Y-122275000D01*
X137388000Y-122275000D02*
X137388000Y-125375000D01*
%TO.C,P2*%
X163068000Y-125095000D02*
X175768000Y-125095000D01*
X175768000Y-125095000D02*
X175768000Y-122555000D01*
X175768000Y-122555000D02*
X163068000Y-122555000D01*
X160248000Y-125375000D02*
X161798000Y-125375000D01*
X163068000Y-125095000D02*
X163068000Y-122555000D01*
X161798000Y-122275000D02*
X160248000Y-122275000D01*
X160248000Y-122275000D02*
X160248000Y-125375000D01*
%TO.C,P3*%
X131064000Y-76835000D02*
X153924000Y-76835000D01*
X153924000Y-76835000D02*
X153924000Y-74295000D01*
X153924000Y-74295000D02*
X131064000Y-74295000D01*
X128244000Y-77115000D02*
X129794000Y-77115000D01*
X131064000Y-76835000D02*
X131064000Y-74295000D01*
X129794000Y-74015000D02*
X128244000Y-74015000D01*
X128244000Y-74015000D02*
X128244000Y-77115000D01*
%TO.C,P4*%
X157988000Y-76835000D02*
X175768000Y-76835000D01*
X175768000Y-76835000D02*
X175768000Y-74295000D01*
X175768000Y-74295000D02*
X157988000Y-74295000D01*
X155168000Y-77115000D02*
X156718000Y-77115000D01*
X157988000Y-76835000D02*
X157988000Y-74295000D01*
X156718000Y-74015000D02*
X155168000Y-74015000D01*
X155168000Y-74015000D02*
X155168000Y-77115000D01*
%TO.C,P6*%
X179324000Y-118745000D02*
G75*
G03*
X179324000Y-118745000I-2286000J0D01*
G01*
%TO.C,P7*%
X128524000Y-75565000D02*
G75*
G03*
X128524000Y-75565000I-2286000J0D01*
G01*
%TO.C,C2*%
X157037833Y-111072142D02*
X156990214Y-111119761D01*
X156847357Y-111167380D01*
X156752119Y-111167380D01*
X156609261Y-111119761D01*
X156514023Y-111024523D01*
X156466404Y-110929285D01*
X156418785Y-110738809D01*
X156418785Y-110595952D01*
X156466404Y-110405476D01*
X156514023Y-110310238D01*
X156609261Y-110215000D01*
X156752119Y-110167380D01*
X156847357Y-110167380D01*
X156990214Y-110215000D01*
X157037833Y-110262619D01*
X157418785Y-110262619D02*
X157466404Y-110215000D01*
X157561642Y-110167380D01*
X157799738Y-110167380D01*
X157894976Y-110215000D01*
X157942595Y-110262619D01*
X157990214Y-110357857D01*
X157990214Y-110453095D01*
X157942595Y-110595952D01*
X157371166Y-111167380D01*
X157990214Y-111167380D01*
%TO.C,J16*%
X135588476Y-87487380D02*
X135588476Y-88201666D01*
X135540857Y-88344523D01*
X135445619Y-88439761D01*
X135302761Y-88487380D01*
X135207523Y-88487380D01*
X136588476Y-88487380D02*
X136017047Y-88487380D01*
X136302761Y-88487380D02*
X136302761Y-87487380D01*
X136207523Y-87630238D01*
X136112285Y-87725476D01*
X136017047Y-87773095D01*
X137445619Y-87487380D02*
X137255142Y-87487380D01*
X137159904Y-87535000D01*
X137112285Y-87582619D01*
X137017047Y-87725476D01*
X136969428Y-87915952D01*
X136969428Y-88296904D01*
X137017047Y-88392142D01*
X137064666Y-88439761D01*
X137159904Y-88487380D01*
X137350380Y-88487380D01*
X137445619Y-88439761D01*
X137493238Y-88392142D01*
X137540857Y-88296904D01*
X137540857Y-88058809D01*
X137493238Y-87963571D01*
X137445619Y-87915952D01*
X137350380Y-87868333D01*
X137159904Y-87868333D01*
X137064666Y-87915952D01*
X137017047Y-87963571D01*
X136969428Y-88058809D01*
%TO.C,J15*%
X135588476Y-118427380D02*
X135588476Y-119141666D01*
X135540857Y-119284523D01*
X135445619Y-119379761D01*
X135302761Y-119427380D01*
X135207523Y-119427380D01*
X136588476Y-119427380D02*
X136017047Y-119427380D01*
X136302761Y-119427380D02*
X136302761Y-118427380D01*
X136207523Y-118570238D01*
X136112285Y-118665476D01*
X136017047Y-118713095D01*
X137493238Y-118427380D02*
X137017047Y-118427380D01*
X136969428Y-118903571D01*
X137017047Y-118855952D01*
X137112285Y-118808333D01*
X137350380Y-118808333D01*
X137445619Y-118855952D01*
X137493238Y-118903571D01*
X137540857Y-118998809D01*
X137540857Y-119236904D01*
X137493238Y-119332142D01*
X137445619Y-119379761D01*
X137350380Y-119427380D01*
X137112285Y-119427380D01*
X137017047Y-119379761D01*
X136969428Y-119332142D01*
%TO.C,Y1*%
X146689809Y-79509190D02*
X146689809Y-79985380D01*
X146356476Y-78985380D02*
X146689809Y-79509190D01*
X147023142Y-78985380D01*
X147880285Y-79985380D02*
X147308857Y-79985380D01*
X147594571Y-79985380D02*
X147594571Y-78985380D01*
X147499333Y-79128238D01*
X147404095Y-79223476D01*
X147308857Y-79271095D01*
%TO.C,C8*%
X149290833Y-81158142D02*
X149243214Y-81205761D01*
X149100357Y-81253380D01*
X149005119Y-81253380D01*
X148862261Y-81205761D01*
X148767023Y-81110523D01*
X148719404Y-81015285D01*
X148671785Y-80824809D01*
X148671785Y-80681952D01*
X148719404Y-80491476D01*
X148767023Y-80396238D01*
X148862261Y-80301000D01*
X149005119Y-80253380D01*
X149100357Y-80253380D01*
X149243214Y-80301000D01*
X149290833Y-80348619D01*
X149862261Y-80681952D02*
X149767023Y-80634333D01*
X149719404Y-80586714D01*
X149671785Y-80491476D01*
X149671785Y-80443857D01*
X149719404Y-80348619D01*
X149767023Y-80301000D01*
X149862261Y-80253380D01*
X150052738Y-80253380D01*
X150147976Y-80301000D01*
X150195595Y-80348619D01*
X150243214Y-80443857D01*
X150243214Y-80491476D01*
X150195595Y-80586714D01*
X150147976Y-80634333D01*
X150052738Y-80681952D01*
X149862261Y-80681952D01*
X149767023Y-80729571D01*
X149719404Y-80777190D01*
X149671785Y-80872428D01*
X149671785Y-81062904D01*
X149719404Y-81158142D01*
X149767023Y-81205761D01*
X149862261Y-81253380D01*
X150052738Y-81253380D01*
X150147976Y-81205761D01*
X150195595Y-81158142D01*
X150243214Y-81062904D01*
X150243214Y-80872428D01*
X150195595Y-80777190D01*
X150147976Y-80729571D01*
X150052738Y-80681952D01*
%TO.C,C7*%
X144337833Y-77798142D02*
X144290214Y-77845761D01*
X144147357Y-77893380D01*
X144052119Y-77893380D01*
X143909261Y-77845761D01*
X143814023Y-77750523D01*
X143766404Y-77655285D01*
X143718785Y-77464809D01*
X143718785Y-77321952D01*
X143766404Y-77131476D01*
X143814023Y-77036238D01*
X143909261Y-76941000D01*
X144052119Y-76893380D01*
X144147357Y-76893380D01*
X144290214Y-76941000D01*
X144337833Y-76988619D01*
X144671166Y-76893380D02*
X145337833Y-76893380D01*
X144909261Y-77893380D01*
%TO.C,J11*%
X185753476Y-116927380D02*
X185753476Y-117641666D01*
X185705857Y-117784523D01*
X185610619Y-117879761D01*
X185467761Y-117927380D01*
X185372523Y-117927380D01*
X186753476Y-117927380D02*
X186182047Y-117927380D01*
X186467761Y-117927380D02*
X186467761Y-116927380D01*
X186372523Y-117070238D01*
X186277285Y-117165476D01*
X186182047Y-117213095D01*
X187705857Y-117927380D02*
X187134428Y-117927380D01*
X187420142Y-117927380D02*
X187420142Y-116927380D01*
X187324904Y-117070238D01*
X187229666Y-117165476D01*
X187134428Y-117213095D01*
%TO.C,C6*%
X171582142Y-99459166D02*
X171629761Y-99506785D01*
X171677380Y-99649642D01*
X171677380Y-99744880D01*
X171629761Y-99887738D01*
X171534523Y-99982976D01*
X171439285Y-100030595D01*
X171248809Y-100078214D01*
X171105952Y-100078214D01*
X170915476Y-100030595D01*
X170820238Y-99982976D01*
X170725000Y-99887738D01*
X170677380Y-99744880D01*
X170677380Y-99649642D01*
X170725000Y-99506785D01*
X170772619Y-99459166D01*
X170677380Y-98602023D02*
X170677380Y-98792500D01*
X170725000Y-98887738D01*
X170772619Y-98935357D01*
X170915476Y-99030595D01*
X171105952Y-99078214D01*
X171486904Y-99078214D01*
X171582142Y-99030595D01*
X171629761Y-98982976D01*
X171677380Y-98887738D01*
X171677380Y-98697261D01*
X171629761Y-98602023D01*
X171582142Y-98554404D01*
X171486904Y-98506785D01*
X171248809Y-98506785D01*
X171153571Y-98554404D01*
X171105952Y-98602023D01*
X171058333Y-98697261D01*
X171058333Y-98887738D01*
X171105952Y-98982976D01*
X171153571Y-99030595D01*
X171248809Y-99078214D01*
%TO.C,C5*%
X145861833Y-115702142D02*
X145814214Y-115749761D01*
X145671357Y-115797380D01*
X145576119Y-115797380D01*
X145433261Y-115749761D01*
X145338023Y-115654523D01*
X145290404Y-115559285D01*
X145242785Y-115368809D01*
X145242785Y-115225952D01*
X145290404Y-115035476D01*
X145338023Y-114940238D01*
X145433261Y-114845000D01*
X145576119Y-114797380D01*
X145671357Y-114797380D01*
X145814214Y-114845000D01*
X145861833Y-114892619D01*
X146766595Y-114797380D02*
X146290404Y-114797380D01*
X146242785Y-115273571D01*
X146290404Y-115225952D01*
X146385642Y-115178333D01*
X146623738Y-115178333D01*
X146718976Y-115225952D01*
X146766595Y-115273571D01*
X146814214Y-115368809D01*
X146814214Y-115606904D01*
X146766595Y-115702142D01*
X146718976Y-115749761D01*
X146623738Y-115797380D01*
X146385642Y-115797380D01*
X146290404Y-115749761D01*
X146242785Y-115702142D01*
%TO.C,C4*%
X155580142Y-87902166D02*
X155627761Y-87949785D01*
X155675380Y-88092642D01*
X155675380Y-88187880D01*
X155627761Y-88330738D01*
X155532523Y-88425976D01*
X155437285Y-88473595D01*
X155246809Y-88521214D01*
X155103952Y-88521214D01*
X154913476Y-88473595D01*
X154818238Y-88425976D01*
X154723000Y-88330738D01*
X154675380Y-88187880D01*
X154675380Y-88092642D01*
X154723000Y-87949785D01*
X154770619Y-87902166D01*
X155008714Y-87045023D02*
X155675380Y-87045023D01*
X154627761Y-87283119D02*
X155342047Y-87521214D01*
X155342047Y-86902166D01*
%TO.C,SW1*%
X181887761Y-109918333D02*
X181935380Y-109775476D01*
X181935380Y-109537380D01*
X181887761Y-109442142D01*
X181840142Y-109394523D01*
X181744904Y-109346904D01*
X181649666Y-109346904D01*
X181554428Y-109394523D01*
X181506809Y-109442142D01*
X181459190Y-109537380D01*
X181411571Y-109727857D01*
X181363952Y-109823095D01*
X181316333Y-109870714D01*
X181221095Y-109918333D01*
X181125857Y-109918333D01*
X181030619Y-109870714D01*
X180983000Y-109823095D01*
X180935380Y-109727857D01*
X180935380Y-109489761D01*
X180983000Y-109346904D01*
X180935380Y-109013571D02*
X181935380Y-108775476D01*
X181221095Y-108585000D01*
X181935380Y-108394523D01*
X180935380Y-108156428D01*
X181935380Y-107251666D02*
X181935380Y-107823095D01*
X181935380Y-107537380D02*
X180935380Y-107537380D01*
X181078238Y-107632619D01*
X181173476Y-107727857D01*
X181221095Y-107823095D01*
%TO.C,R12*%
X177237380Y-109497857D02*
X176761190Y-109831190D01*
X177237380Y-110069285D02*
X176237380Y-110069285D01*
X176237380Y-109688333D01*
X176285000Y-109593095D01*
X176332619Y-109545476D01*
X176427857Y-109497857D01*
X176570714Y-109497857D01*
X176665952Y-109545476D01*
X176713571Y-109593095D01*
X176761190Y-109688333D01*
X176761190Y-110069285D01*
X177237380Y-108545476D02*
X177237380Y-109116904D01*
X177237380Y-108831190D02*
X176237380Y-108831190D01*
X176380238Y-108926428D01*
X176475476Y-109021666D01*
X176523095Y-109116904D01*
X176332619Y-108164523D02*
X176285000Y-108116904D01*
X176237380Y-108021666D01*
X176237380Y-107783571D01*
X176285000Y-107688333D01*
X176332619Y-107640714D01*
X176427857Y-107593095D01*
X176523095Y-107593095D01*
X176665952Y-107640714D01*
X177237380Y-108212142D01*
X177237380Y-107593095D01*
%TO.C,C1*%
X180448833Y-115292142D02*
X180401214Y-115339761D01*
X180258357Y-115387380D01*
X180163119Y-115387380D01*
X180020261Y-115339761D01*
X179925023Y-115244523D01*
X179877404Y-115149285D01*
X179829785Y-114958809D01*
X179829785Y-114815952D01*
X179877404Y-114625476D01*
X179925023Y-114530238D01*
X180020261Y-114435000D01*
X180163119Y-114387380D01*
X180258357Y-114387380D01*
X180401214Y-114435000D01*
X180448833Y-114482619D01*
X181401214Y-115387380D02*
X180829785Y-115387380D01*
X181115500Y-115387380D02*
X181115500Y-114387380D01*
X181020261Y-114530238D01*
X180925023Y-114625476D01*
X180829785Y-114673095D01*
%TO.C,R11*%
X174490142Y-90367380D02*
X174156809Y-89891190D01*
X173918714Y-90367380D02*
X173918714Y-89367380D01*
X174299666Y-89367380D01*
X174394904Y-89415000D01*
X174442523Y-89462619D01*
X174490142Y-89557857D01*
X174490142Y-89700714D01*
X174442523Y-89795952D01*
X174394904Y-89843571D01*
X174299666Y-89891190D01*
X173918714Y-89891190D01*
X175442523Y-90367380D02*
X174871095Y-90367380D01*
X175156809Y-90367380D02*
X175156809Y-89367380D01*
X175061571Y-89510238D01*
X174966333Y-89605476D01*
X174871095Y-89653095D01*
X176394904Y-90367380D02*
X175823476Y-90367380D01*
X176109190Y-90367380D02*
X176109190Y-89367380D01*
X176013952Y-89510238D01*
X175918714Y-89605476D01*
X175823476Y-89653095D01*
%TO.C,D1*%
X183284904Y-92677380D02*
X183284904Y-91677380D01*
X183523000Y-91677380D01*
X183665857Y-91725000D01*
X183761095Y-91820238D01*
X183808714Y-91915476D01*
X183856333Y-92105952D01*
X183856333Y-92248809D01*
X183808714Y-92439285D01*
X183761095Y-92534523D01*
X183665857Y-92629761D01*
X183523000Y-92677380D01*
X183284904Y-92677380D01*
X184808714Y-92677380D02*
X184237285Y-92677380D01*
X184523000Y-92677380D02*
X184523000Y-91677380D01*
X184427761Y-91820238D01*
X184332523Y-91915476D01*
X184237285Y-91963095D01*
%TO.C,U1*%
X148971095Y-109132380D02*
X148971095Y-109941904D01*
X149018714Y-110037142D01*
X149066333Y-110084761D01*
X149161571Y-110132380D01*
X149352047Y-110132380D01*
X149447285Y-110084761D01*
X149494904Y-110037142D01*
X149542523Y-109941904D01*
X149542523Y-109132380D01*
X150542523Y-110132380D02*
X149971095Y-110132380D01*
X150256809Y-110132380D02*
X150256809Y-109132380D01*
X150161571Y-109275238D01*
X150066333Y-109370476D01*
X149971095Y-109418095D01*
%TO.C,U7*%
X126325380Y-47116904D02*
X127134904Y-47116904D01*
X127230142Y-47069285D01*
X127277761Y-47021666D01*
X127325380Y-46926428D01*
X127325380Y-46735952D01*
X127277761Y-46640714D01*
X127230142Y-46593095D01*
X127134904Y-46545476D01*
X126325380Y-46545476D01*
X126325380Y-46164523D02*
X126325380Y-45497857D01*
X127325380Y-45926428D01*
%TO.C,J13*%
X188555380Y-54784523D02*
X189269666Y-54784523D01*
X189412523Y-54832142D01*
X189507761Y-54927380D01*
X189555380Y-55070238D01*
X189555380Y-55165476D01*
X189555380Y-53784523D02*
X189555380Y-54355952D01*
X189555380Y-54070238D02*
X188555380Y-54070238D01*
X188698238Y-54165476D01*
X188793476Y-54260714D01*
X188841095Y-54355952D01*
X188555380Y-53451190D02*
X188555380Y-52832142D01*
X188936333Y-53165476D01*
X188936333Y-53022619D01*
X188983952Y-52927380D01*
X189031571Y-52879761D01*
X189126809Y-52832142D01*
X189364904Y-52832142D01*
X189460142Y-52879761D01*
X189507761Y-52927380D01*
X189555380Y-53022619D01*
X189555380Y-53308333D01*
X189507761Y-53403571D01*
X189460142Y-53451190D01*
%TO.C,J12*%
X188555380Y-42084523D02*
X189269666Y-42084523D01*
X189412523Y-42132142D01*
X189507761Y-42227380D01*
X189555380Y-42370238D01*
X189555380Y-42465476D01*
X189555380Y-41084523D02*
X189555380Y-41655952D01*
X189555380Y-41370238D02*
X188555380Y-41370238D01*
X188698238Y-41465476D01*
X188793476Y-41560714D01*
X188841095Y-41655952D01*
X188650619Y-40703571D02*
X188603000Y-40655952D01*
X188555380Y-40560714D01*
X188555380Y-40322619D01*
X188603000Y-40227380D01*
X188650619Y-40179761D01*
X188745857Y-40132142D01*
X188841095Y-40132142D01*
X188983952Y-40179761D01*
X189555380Y-40751190D01*
X189555380Y-40132142D01*
%TO.C,U6*%
X118491095Y-116546380D02*
X118491095Y-117355904D01*
X118538714Y-117451142D01*
X118586333Y-117498761D01*
X118681571Y-117546380D01*
X118872047Y-117546380D01*
X118967285Y-117498761D01*
X119014904Y-117451142D01*
X119062523Y-117355904D01*
X119062523Y-116546380D01*
X119967285Y-116546380D02*
X119776809Y-116546380D01*
X119681571Y-116594000D01*
X119633952Y-116641619D01*
X119538714Y-116784476D01*
X119491095Y-116974952D01*
X119491095Y-117355904D01*
X119538714Y-117451142D01*
X119586333Y-117498761D01*
X119681571Y-117546380D01*
X119872047Y-117546380D01*
X119967285Y-117498761D01*
X120014904Y-117451142D01*
X120062523Y-117355904D01*
X120062523Y-117117809D01*
X120014904Y-117022571D01*
X119967285Y-116974952D01*
X119872047Y-116927333D01*
X119681571Y-116927333D01*
X119586333Y-116974952D01*
X119538714Y-117022571D01*
X119491095Y-117117809D01*
%TO.C,U5*%
X118491095Y-108926380D02*
X118491095Y-109735904D01*
X118538714Y-109831142D01*
X118586333Y-109878761D01*
X118681571Y-109926380D01*
X118872047Y-109926380D01*
X118967285Y-109878761D01*
X119014904Y-109831142D01*
X119062523Y-109735904D01*
X119062523Y-108926380D01*
X120014904Y-108926380D02*
X119538714Y-108926380D01*
X119491095Y-109402571D01*
X119538714Y-109354952D01*
X119633952Y-109307333D01*
X119872047Y-109307333D01*
X119967285Y-109354952D01*
X120014904Y-109402571D01*
X120062523Y-109497809D01*
X120062523Y-109735904D01*
X120014904Y-109831142D01*
X119967285Y-109878761D01*
X119872047Y-109926380D01*
X119633952Y-109926380D01*
X119538714Y-109878761D01*
X119491095Y-109831142D01*
%TO.C,U4*%
X118491095Y-101306380D02*
X118491095Y-102115904D01*
X118538714Y-102211142D01*
X118586333Y-102258761D01*
X118681571Y-102306380D01*
X118872047Y-102306380D01*
X118967285Y-102258761D01*
X119014904Y-102211142D01*
X119062523Y-102115904D01*
X119062523Y-101306380D01*
X119967285Y-101639714D02*
X119967285Y-102306380D01*
X119729190Y-101258761D02*
X119491095Y-101973047D01*
X120110142Y-101973047D01*
%TO.C,U3*%
X118491095Y-93686380D02*
X118491095Y-94495904D01*
X118538714Y-94591142D01*
X118586333Y-94638761D01*
X118681571Y-94686380D01*
X118872047Y-94686380D01*
X118967285Y-94638761D01*
X119014904Y-94591142D01*
X119062523Y-94495904D01*
X119062523Y-93686380D01*
X119443476Y-93686380D02*
X120062523Y-93686380D01*
X119729190Y-94067333D01*
X119872047Y-94067333D01*
X119967285Y-94114952D01*
X120014904Y-94162571D01*
X120062523Y-94257809D01*
X120062523Y-94495904D01*
X120014904Y-94591142D01*
X119967285Y-94638761D01*
X119872047Y-94686380D01*
X119586333Y-94686380D01*
X119491095Y-94638761D01*
X119443476Y-94591142D01*
%TO.C,U2*%
X118491095Y-86066380D02*
X118491095Y-86875904D01*
X118538714Y-86971142D01*
X118586333Y-87018761D01*
X118681571Y-87066380D01*
X118872047Y-87066380D01*
X118967285Y-87018761D01*
X119014904Y-86971142D01*
X119062523Y-86875904D01*
X119062523Y-86066380D01*
X119491095Y-86161619D02*
X119538714Y-86114000D01*
X119633952Y-86066380D01*
X119872047Y-86066380D01*
X119967285Y-86114000D01*
X120014904Y-86161619D01*
X120062523Y-86256857D01*
X120062523Y-86352095D01*
X120014904Y-86494952D01*
X119443476Y-87066380D01*
X120062523Y-87066380D01*
%TO.C,R10*%
X126500142Y-117801380D02*
X126166809Y-117325190D01*
X125928714Y-117801380D02*
X125928714Y-116801380D01*
X126309666Y-116801380D01*
X126404904Y-116849000D01*
X126452523Y-116896619D01*
X126500142Y-116991857D01*
X126500142Y-117134714D01*
X126452523Y-117229952D01*
X126404904Y-117277571D01*
X126309666Y-117325190D01*
X125928714Y-117325190D01*
X127452523Y-117801380D02*
X126881095Y-117801380D01*
X127166809Y-117801380D02*
X127166809Y-116801380D01*
X127071571Y-116944238D01*
X126976333Y-117039476D01*
X126881095Y-117087095D01*
X128071571Y-116801380D02*
X128166809Y-116801380D01*
X128262047Y-116849000D01*
X128309666Y-116896619D01*
X128357285Y-116991857D01*
X128404904Y-117182333D01*
X128404904Y-117420428D01*
X128357285Y-117610904D01*
X128309666Y-117706142D01*
X128262047Y-117753761D01*
X128166809Y-117801380D01*
X128071571Y-117801380D01*
X127976333Y-117753761D01*
X127928714Y-117706142D01*
X127881095Y-117610904D01*
X127833476Y-117420428D01*
X127833476Y-117182333D01*
X127881095Y-116991857D01*
X127928714Y-116896619D01*
X127976333Y-116849000D01*
X128071571Y-116801380D01*
%TO.C,R9*%
X126976333Y-110181380D02*
X126643000Y-109705190D01*
X126404904Y-110181380D02*
X126404904Y-109181380D01*
X126785857Y-109181380D01*
X126881095Y-109229000D01*
X126928714Y-109276619D01*
X126976333Y-109371857D01*
X126976333Y-109514714D01*
X126928714Y-109609952D01*
X126881095Y-109657571D01*
X126785857Y-109705190D01*
X126404904Y-109705190D01*
X127452523Y-110181380D02*
X127643000Y-110181380D01*
X127738238Y-110133761D01*
X127785857Y-110086142D01*
X127881095Y-109943285D01*
X127928714Y-109752809D01*
X127928714Y-109371857D01*
X127881095Y-109276619D01*
X127833476Y-109229000D01*
X127738238Y-109181380D01*
X127547761Y-109181380D01*
X127452523Y-109229000D01*
X127404904Y-109276619D01*
X127357285Y-109371857D01*
X127357285Y-109609952D01*
X127404904Y-109705190D01*
X127452523Y-109752809D01*
X127547761Y-109800428D01*
X127738238Y-109800428D01*
X127833476Y-109752809D01*
X127881095Y-109705190D01*
X127928714Y-109609952D01*
%TO.C,R8*%
X126976333Y-102561380D02*
X126643000Y-102085190D01*
X126404904Y-102561380D02*
X126404904Y-101561380D01*
X126785857Y-101561380D01*
X126881095Y-101609000D01*
X126928714Y-101656619D01*
X126976333Y-101751857D01*
X126976333Y-101894714D01*
X126928714Y-101989952D01*
X126881095Y-102037571D01*
X126785857Y-102085190D01*
X126404904Y-102085190D01*
X127547761Y-101989952D02*
X127452523Y-101942333D01*
X127404904Y-101894714D01*
X127357285Y-101799476D01*
X127357285Y-101751857D01*
X127404904Y-101656619D01*
X127452523Y-101609000D01*
X127547761Y-101561380D01*
X127738238Y-101561380D01*
X127833476Y-101609000D01*
X127881095Y-101656619D01*
X127928714Y-101751857D01*
X127928714Y-101799476D01*
X127881095Y-101894714D01*
X127833476Y-101942333D01*
X127738238Y-101989952D01*
X127547761Y-101989952D01*
X127452523Y-102037571D01*
X127404904Y-102085190D01*
X127357285Y-102180428D01*
X127357285Y-102370904D01*
X127404904Y-102466142D01*
X127452523Y-102513761D01*
X127547761Y-102561380D01*
X127738238Y-102561380D01*
X127833476Y-102513761D01*
X127881095Y-102466142D01*
X127928714Y-102370904D01*
X127928714Y-102180428D01*
X127881095Y-102085190D01*
X127833476Y-102037571D01*
X127738238Y-101989952D01*
%TO.C,R7*%
X126976333Y-94941380D02*
X126643000Y-94465190D01*
X126404904Y-94941380D02*
X126404904Y-93941380D01*
X126785857Y-93941380D01*
X126881095Y-93989000D01*
X126928714Y-94036619D01*
X126976333Y-94131857D01*
X126976333Y-94274714D01*
X126928714Y-94369952D01*
X126881095Y-94417571D01*
X126785857Y-94465190D01*
X126404904Y-94465190D01*
X127309666Y-93941380D02*
X127976333Y-93941380D01*
X127547761Y-94941380D01*
%TO.C,R6*%
X111466333Y-121101380D02*
X111133000Y-120625190D01*
X110894904Y-121101380D02*
X110894904Y-120101380D01*
X111275857Y-120101380D01*
X111371095Y-120149000D01*
X111418714Y-120196619D01*
X111466333Y-120291857D01*
X111466333Y-120434714D01*
X111418714Y-120529952D01*
X111371095Y-120577571D01*
X111275857Y-120625190D01*
X110894904Y-120625190D01*
X112323476Y-120101380D02*
X112133000Y-120101380D01*
X112037761Y-120149000D01*
X111990142Y-120196619D01*
X111894904Y-120339476D01*
X111847285Y-120529952D01*
X111847285Y-120910904D01*
X111894904Y-121006142D01*
X111942523Y-121053761D01*
X112037761Y-121101380D01*
X112228238Y-121101380D01*
X112323476Y-121053761D01*
X112371095Y-121006142D01*
X112418714Y-120910904D01*
X112418714Y-120672809D01*
X112371095Y-120577571D01*
X112323476Y-120529952D01*
X112228238Y-120482333D01*
X112037761Y-120482333D01*
X111942523Y-120529952D01*
X111894904Y-120577571D01*
X111847285Y-120672809D01*
%TO.C,R5*%
X110831333Y-113481380D02*
X110498000Y-113005190D01*
X110259904Y-113481380D02*
X110259904Y-112481380D01*
X110640857Y-112481380D01*
X110736095Y-112529000D01*
X110783714Y-112576619D01*
X110831333Y-112671857D01*
X110831333Y-112814714D01*
X110783714Y-112909952D01*
X110736095Y-112957571D01*
X110640857Y-113005190D01*
X110259904Y-113005190D01*
X111736095Y-112481380D02*
X111259904Y-112481380D01*
X111212285Y-112957571D01*
X111259904Y-112909952D01*
X111355142Y-112862333D01*
X111593238Y-112862333D01*
X111688476Y-112909952D01*
X111736095Y-112957571D01*
X111783714Y-113052809D01*
X111783714Y-113290904D01*
X111736095Y-113386142D01*
X111688476Y-113433761D01*
X111593238Y-113481380D01*
X111355142Y-113481380D01*
X111259904Y-113433761D01*
X111212285Y-113386142D01*
%TO.C,R4*%
X111101333Y-105861380D02*
X110768000Y-105385190D01*
X110529904Y-105861380D02*
X110529904Y-104861380D01*
X110910857Y-104861380D01*
X111006095Y-104909000D01*
X111053714Y-104956619D01*
X111101333Y-105051857D01*
X111101333Y-105194714D01*
X111053714Y-105289952D01*
X111006095Y-105337571D01*
X110910857Y-105385190D01*
X110529904Y-105385190D01*
X111958476Y-105194714D02*
X111958476Y-105861380D01*
X111720380Y-104813761D02*
X111482285Y-105528047D01*
X112101333Y-105528047D01*
%TO.C,R3*%
X111466333Y-98241380D02*
X111133000Y-97765190D01*
X110894904Y-98241380D02*
X110894904Y-97241380D01*
X111275857Y-97241380D01*
X111371095Y-97289000D01*
X111418714Y-97336619D01*
X111466333Y-97431857D01*
X111466333Y-97574714D01*
X111418714Y-97669952D01*
X111371095Y-97717571D01*
X111275857Y-97765190D01*
X110894904Y-97765190D01*
X111799666Y-97241380D02*
X112418714Y-97241380D01*
X112085380Y-97622333D01*
X112228238Y-97622333D01*
X112323476Y-97669952D01*
X112371095Y-97717571D01*
X112418714Y-97812809D01*
X112418714Y-98050904D01*
X112371095Y-98146142D01*
X112323476Y-98193761D01*
X112228238Y-98241380D01*
X111942523Y-98241380D01*
X111847285Y-98193761D01*
X111799666Y-98146142D01*
%TO.C,R2*%
X127071333Y-87321380D02*
X126738000Y-86845190D01*
X126499904Y-87321380D02*
X126499904Y-86321380D01*
X126880857Y-86321380D01*
X126976095Y-86369000D01*
X127023714Y-86416619D01*
X127071333Y-86511857D01*
X127071333Y-86654714D01*
X127023714Y-86749952D01*
X126976095Y-86797571D01*
X126880857Y-86845190D01*
X126499904Y-86845190D01*
X127452285Y-86416619D02*
X127499904Y-86369000D01*
X127595142Y-86321380D01*
X127833238Y-86321380D01*
X127928476Y-86369000D01*
X127976095Y-86416619D01*
X128023714Y-86511857D01*
X128023714Y-86607095D01*
X127976095Y-86749952D01*
X127404666Y-87321380D01*
X128023714Y-87321380D01*
%TO.C,R1*%
X111466333Y-90621380D02*
X111133000Y-90145190D01*
X110894904Y-90621380D02*
X110894904Y-89621380D01*
X111275857Y-89621380D01*
X111371095Y-89669000D01*
X111418714Y-89716619D01*
X111466333Y-89811857D01*
X111466333Y-89954714D01*
X111418714Y-90049952D01*
X111371095Y-90097571D01*
X111275857Y-90145190D01*
X110894904Y-90145190D01*
X112418714Y-90621380D02*
X111847285Y-90621380D01*
X112133000Y-90621380D02*
X112133000Y-89621380D01*
X112037761Y-89764238D01*
X111942523Y-89859476D01*
X111847285Y-89907095D01*
%TO.C,J10*%
X188275380Y-70004523D02*
X188989666Y-70004523D01*
X189132523Y-70052142D01*
X189227761Y-70147380D01*
X189275380Y-70290238D01*
X189275380Y-70385476D01*
X189275380Y-69004523D02*
X189275380Y-69575952D01*
X189275380Y-69290238D02*
X188275380Y-69290238D01*
X188418238Y-69385476D01*
X188513476Y-69480714D01*
X188561095Y-69575952D01*
X188275380Y-68385476D02*
X188275380Y-68290238D01*
X188323000Y-68195000D01*
X188370619Y-68147380D01*
X188465857Y-68099761D01*
X188656333Y-68052142D01*
X188894428Y-68052142D01*
X189084904Y-68099761D01*
X189180142Y-68147380D01*
X189227761Y-68195000D01*
X189275380Y-68290238D01*
X189275380Y-68385476D01*
X189227761Y-68480714D01*
X189180142Y-68528333D01*
X189084904Y-68575952D01*
X188894428Y-68623571D01*
X188656333Y-68623571D01*
X188465857Y-68575952D01*
X188370619Y-68528333D01*
X188323000Y-68480714D01*
X188275380Y-68385476D01*
%TO.C,J9*%
X89290380Y-121013333D02*
X90004666Y-121013333D01*
X90147523Y-121060952D01*
X90242761Y-121156190D01*
X90290380Y-121299047D01*
X90290380Y-121394285D01*
X90290380Y-120489523D02*
X90290380Y-120299047D01*
X90242761Y-120203809D01*
X90195142Y-120156190D01*
X90052285Y-120060952D01*
X89861809Y-120013333D01*
X89480857Y-120013333D01*
X89385619Y-120060952D01*
X89338000Y-120108571D01*
X89290380Y-120203809D01*
X89290380Y-120394285D01*
X89338000Y-120489523D01*
X89385619Y-120537142D01*
X89480857Y-120584761D01*
X89718952Y-120584761D01*
X89814190Y-120537142D01*
X89861809Y-120489523D01*
X89909428Y-120394285D01*
X89909428Y-120203809D01*
X89861809Y-120108571D01*
X89814190Y-120060952D01*
X89718952Y-120013333D01*
%TO.C,J8*%
X89290380Y-105773333D02*
X90004666Y-105773333D01*
X90147523Y-105820952D01*
X90242761Y-105916190D01*
X90290380Y-106059047D01*
X90290380Y-106154285D01*
X89718952Y-105154285D02*
X89671333Y-105249523D01*
X89623714Y-105297142D01*
X89528476Y-105344761D01*
X89480857Y-105344761D01*
X89385619Y-105297142D01*
X89338000Y-105249523D01*
X89290380Y-105154285D01*
X89290380Y-104963809D01*
X89338000Y-104868571D01*
X89385619Y-104820952D01*
X89480857Y-104773333D01*
X89528476Y-104773333D01*
X89623714Y-104820952D01*
X89671333Y-104868571D01*
X89718952Y-104963809D01*
X89718952Y-105154285D01*
X89766571Y-105249523D01*
X89814190Y-105297142D01*
X89909428Y-105344761D01*
X90099904Y-105344761D01*
X90195142Y-105297142D01*
X90242761Y-105249523D01*
X90290380Y-105154285D01*
X90290380Y-104963809D01*
X90242761Y-104868571D01*
X90195142Y-104820952D01*
X90099904Y-104773333D01*
X89909428Y-104773333D01*
X89814190Y-104820952D01*
X89766571Y-104868571D01*
X89718952Y-104963809D01*
%TO.C,J7*%
X89290380Y-90533333D02*
X90004666Y-90533333D01*
X90147523Y-90580952D01*
X90242761Y-90676190D01*
X90290380Y-90819047D01*
X90290380Y-90914285D01*
X89290380Y-90152380D02*
X89290380Y-89485714D01*
X90290380Y-89914285D01*
%TO.C,J6*%
X89290380Y-75293333D02*
X90004666Y-75293333D01*
X90147523Y-75340952D01*
X90242761Y-75436190D01*
X90290380Y-75579047D01*
X90290380Y-75674285D01*
X89290380Y-74388571D02*
X89290380Y-74579047D01*
X89338000Y-74674285D01*
X89385619Y-74721904D01*
X89528476Y-74817142D01*
X89718952Y-74864761D01*
X90099904Y-74864761D01*
X90195142Y-74817142D01*
X90242761Y-74769523D01*
X90290380Y-74674285D01*
X90290380Y-74483809D01*
X90242761Y-74388571D01*
X90195142Y-74340952D01*
X90099904Y-74293333D01*
X89861809Y-74293333D01*
X89766571Y-74340952D01*
X89718952Y-74388571D01*
X89671333Y-74483809D01*
X89671333Y-74674285D01*
X89718952Y-74769523D01*
X89766571Y-74817142D01*
X89861809Y-74864761D01*
%TO.C,J5*%
X89290380Y-60053333D02*
X90004666Y-60053333D01*
X90147523Y-60100952D01*
X90242761Y-60196190D01*
X90290380Y-60339047D01*
X90290380Y-60434285D01*
X89290380Y-59100952D02*
X89290380Y-59577142D01*
X89766571Y-59624761D01*
X89718952Y-59577142D01*
X89671333Y-59481904D01*
X89671333Y-59243809D01*
X89718952Y-59148571D01*
X89766571Y-59100952D01*
X89861809Y-59053333D01*
X90099904Y-59053333D01*
X90195142Y-59100952D01*
X90242761Y-59148571D01*
X90290380Y-59243809D01*
X90290380Y-59481904D01*
X90242761Y-59577142D01*
X90195142Y-59624761D01*
%TO.C,J4*%
X183689666Y-93007380D02*
X183689666Y-93721666D01*
X183642047Y-93864523D01*
X183546809Y-93959761D01*
X183403952Y-94007380D01*
X183308714Y-94007380D01*
X184594428Y-93340714D02*
X184594428Y-94007380D01*
X184356333Y-92959761D02*
X184118238Y-93674047D01*
X184737285Y-93674047D01*
%TO.C,J3*%
X179030380Y-54308333D02*
X179744666Y-54308333D01*
X179887523Y-54355952D01*
X179982761Y-54451190D01*
X180030380Y-54594047D01*
X180030380Y-54689285D01*
X179030380Y-53927380D02*
X179030380Y-53308333D01*
X179411333Y-53641666D01*
X179411333Y-53498809D01*
X179458952Y-53403571D01*
X179506571Y-53355952D01*
X179601809Y-53308333D01*
X179839904Y-53308333D01*
X179935142Y-53355952D01*
X179982761Y-53403571D01*
X180030380Y-53498809D01*
X180030380Y-53784523D01*
X179982761Y-53879761D01*
X179935142Y-53927380D01*
%TO.C,J2*%
X179030380Y-44148333D02*
X179744666Y-44148333D01*
X179887523Y-44195952D01*
X179982761Y-44291190D01*
X180030380Y-44434047D01*
X180030380Y-44529285D01*
X179125619Y-43719761D02*
X179078000Y-43672142D01*
X179030380Y-43576904D01*
X179030380Y-43338809D01*
X179078000Y-43243571D01*
X179125619Y-43195952D01*
X179220857Y-43148333D01*
X179316095Y-43148333D01*
X179458952Y-43195952D01*
X180030380Y-43767380D01*
X180030380Y-43148333D01*
%TO.C,J1*%
X132254666Y-59567380D02*
X132254666Y-60281666D01*
X132207047Y-60424523D01*
X132111809Y-60519761D01*
X131968952Y-60567380D01*
X131873714Y-60567380D01*
X133254666Y-60567380D02*
X132683238Y-60567380D01*
X132968952Y-60567380D02*
X132968952Y-59567380D01*
X132873714Y-59710238D01*
X132778476Y-59805476D01*
X132683238Y-59853095D01*
%TO.C,P1*%
X147089904Y-121737380D02*
X147089904Y-120737380D01*
X147470857Y-120737380D01*
X147566095Y-120785000D01*
X147613714Y-120832619D01*
X147661333Y-120927857D01*
X147661333Y-121070714D01*
X147613714Y-121165952D01*
X147566095Y-121213571D01*
X147470857Y-121261190D01*
X147089904Y-121261190D01*
X148613714Y-121737380D02*
X148042285Y-121737380D01*
X148328000Y-121737380D02*
X148328000Y-120737380D01*
X148232761Y-120880238D01*
X148137523Y-120975476D01*
X148042285Y-121023095D01*
%TO.C,P2*%
X167663904Y-121737380D02*
X167663904Y-120737380D01*
X168044857Y-120737380D01*
X168140095Y-120785000D01*
X168187714Y-120832619D01*
X168235333Y-120927857D01*
X168235333Y-121070714D01*
X168187714Y-121165952D01*
X168140095Y-121213571D01*
X168044857Y-121261190D01*
X167663904Y-121261190D01*
X168616285Y-120832619D02*
X168663904Y-120785000D01*
X168759142Y-120737380D01*
X168997238Y-120737380D01*
X169092476Y-120785000D01*
X169140095Y-120832619D01*
X169187714Y-120927857D01*
X169187714Y-121023095D01*
X169140095Y-121165952D01*
X168568666Y-121737380D01*
X169187714Y-121737380D01*
%TO.C,P3*%
X140485904Y-78811380D02*
X140485904Y-77811380D01*
X140866857Y-77811380D01*
X140962095Y-77859000D01*
X141009714Y-77906619D01*
X141057333Y-78001857D01*
X141057333Y-78144714D01*
X141009714Y-78239952D01*
X140962095Y-78287571D01*
X140866857Y-78335190D01*
X140485904Y-78335190D01*
X141390666Y-77811380D02*
X142009714Y-77811380D01*
X141676380Y-78192333D01*
X141819238Y-78192333D01*
X141914476Y-78239952D01*
X141962095Y-78287571D01*
X142009714Y-78382809D01*
X142009714Y-78620904D01*
X141962095Y-78716142D01*
X141914476Y-78763761D01*
X141819238Y-78811380D01*
X141533523Y-78811380D01*
X141438285Y-78763761D01*
X141390666Y-78716142D01*
%TO.C,P4*%
X164869904Y-78811380D02*
X164869904Y-77811380D01*
X165250857Y-77811380D01*
X165346095Y-77859000D01*
X165393714Y-77906619D01*
X165441333Y-78001857D01*
X165441333Y-78144714D01*
X165393714Y-78239952D01*
X165346095Y-78287571D01*
X165250857Y-78335190D01*
X164869904Y-78335190D01*
X166298476Y-78144714D02*
X166298476Y-78811380D01*
X166060380Y-77763761D02*
X165822285Y-78478047D01*
X166441333Y-78478047D01*
%TD*%
M02*
