M48
; DRILL file {KiCad (5.1.12)-1} date 07/12/22 11:02:18
; FORMAT={-:-/ absolute / inch / decimal}
; #@! TF.CreationDate,2022-07-12T11:02:18-05:00
; #@! TF.GenerationSoftware,Kicad,Pcbnew,(5.1.12)-1
FMAT,2
INCH
T1C0.0157
T2C0.0315
T3C0.0354
T4C0.0394
T5C0.0400
T6C0.0433
T7C0.0598
T8C0.1200
%
G90
G05
T1
X5.125Y-3.485
X5.125Y-3.785
X5.125Y-4.085
X5.125Y-4.385
X5.245Y-4.695
X5.71Y-4.695
X5.79Y-3.115
X5.85Y-4.535
X6.045Y-3.3
X6.08Y-3.81
X6.08Y-3.925
X6.145Y-4.485
X6.2Y-3.54
X6.245Y-3.14
X6.27Y-3.86
X6.3Y-4.425
X6.345Y-3.865
X6.39Y-3.475
X6.4875Y-3.9275
X6.5475Y-3.9275
X6.675Y-4.015
X6.89Y-3.9
X6.985Y-3.905
X7.025Y-4.06
T2
X4.545Y-3.485
X4.545Y-3.585
X4.545Y-3.785
X4.545Y-3.885
X4.545Y-4.085
X4.545Y-4.185
X4.545Y-4.385
X4.545Y-4.485
X4.545Y-4.685
X4.545Y-4.785
X4.845Y-3.485
X4.845Y-3.585
X4.845Y-3.785
X4.845Y-3.885
X4.845Y-4.085
X4.845Y-4.185
X4.845Y-4.385
X4.845Y-4.485
X4.845Y-4.685
X4.845Y-4.785
X5.6979Y-3.27
X5.89Y-3.27
T3
X7.195Y-3.475
X7.295Y-3.475
T4
X4.145Y-0.975
X4.145Y-2.575
X4.845Y-0.975
X4.845Y-2.575
X5.17Y-1.975
X5.17Y-2.075
X5.17Y-2.175
X5.17Y-2.275
X5.27Y-1.975
X5.27Y-2.075
X5.27Y-2.175
X5.27Y-2.275
X5.37Y-3.575
X5.37Y-3.675
X5.37Y-3.775
X5.37Y-3.875
X5.37Y-4.275
X5.37Y-4.375
X5.37Y-4.475
X5.37Y-4.575
X7.195Y-3.775
X7.195Y-3.875
X7.195Y-3.975
X7.22Y-4.675
X7.22Y-4.775
X7.22Y-4.875
X7.22Y-4.975
X7.295Y-3.775
X7.295Y-3.875
X7.295Y-3.975
T5
X5.11Y-2.975
X5.21Y-2.975
X5.31Y-2.975
X5.41Y-2.975
X5.47Y-4.875
X5.51Y-2.975
X5.57Y-4.875
X5.61Y-2.975
X5.67Y-4.875
X5.71Y-2.975
X5.77Y-4.875
X5.81Y-2.975
X5.87Y-4.875
X5.91Y-2.975
X5.97Y-4.875
X6.01Y-2.975
X6.07Y-4.875
X6.17Y-2.975
X6.17Y-4.875
X6.27Y-2.975
X6.37Y-2.975
X6.37Y-4.875
X6.47Y-2.975
X6.47Y-4.875
X6.57Y-2.975
X6.57Y-4.875
X6.67Y-2.975
X6.67Y-4.875
X6.77Y-2.975
X6.77Y-4.875
X6.87Y-2.975
X6.87Y-4.875
T6
X7.1428Y-4.15
X7.1428Y-4.4059
X7.32Y-4.15
X7.32Y-4.4059
T7
X3.72Y-2.15
X3.72Y-2.35
X3.72Y-2.55
X3.72Y-2.75
X3.72Y-2.95
X3.72Y-3.15
X3.72Y-3.35
X3.72Y-3.55
X3.72Y-3.75
X3.72Y-3.95
X3.72Y-4.15
X3.72Y-4.35
X3.72Y-4.55
X3.72Y-4.75
X3.72Y-4.95
X6.87Y-1.625
X6.87Y-1.825
X6.87Y-2.025
X6.87Y-2.225
X7.245Y-1.525
X7.245Y-1.725
X7.245Y-2.025
X7.245Y-2.225
X7.245Y-2.425
X7.245Y-2.625
X7.245Y-2.825
X7.245Y-3.025
T8
X4.97Y-2.975
X6.97Y-4.675
T0
M30
