%TF.GenerationSoftware,KiCad,Pcbnew,(5.1.12)-1*%
%TF.CreationDate,2022-07-12T11:00:18-05:00*%
%TF.ProjectId,mpe_v0.3,6d70655f-7630-42e3-932e-6b696361645f,rev?*%
%TF.SameCoordinates,Original*%
%TF.FileFunction,Soldermask,Bot*%
%TF.FilePolarity,Negative*%
%FSLAX46Y46*%
G04 Gerber Fmt 4.6, Leading zero omitted, Abs format (unit mm)*
G04 Created by KiCad (PCBNEW (5.1.12)-1) date 2022-07-12 11:00:18*
%MOMM*%
%LPD*%
G01*
G04 APERTURE LIST*
%ADD10R,1.700000X1.700000*%
%ADD11O,1.700000X1.700000*%
%ADD12C,1.500000*%
%ADD13C,2.000000*%
%ADD14C,1.800000*%
%ADD15R,1.800000X1.800000*%
%ADD16R,2.540000X2.540000*%
%ADD17C,2.540000*%
%ADD18C,3.000000*%
%ADD19R,3.000000X3.000000*%
%ADD20O,1.600000X1.600000*%
%ADD21R,1.600000X1.600000*%
%ADD22O,1.727200X2.032000*%
%ADD23C,4.064000*%
G04 APERTURE END LIST*
D10*
%TO.C,J16*%
X136398000Y-90805000D03*
D11*
X136398000Y-93345000D03*
X136398000Y-95885000D03*
X136398000Y-98425000D03*
%TD*%
%TO.C,J15*%
X136398000Y-108585000D03*
X136398000Y-111125000D03*
X136398000Y-113665000D03*
D10*
X136398000Y-116205000D03*
%TD*%
D12*
%TO.C,Y1*%
X149606000Y-83058000D03*
X144726000Y-83058000D03*
%TD*%
D11*
%TO.C,J11*%
X183388000Y-126365000D03*
X183388000Y-123825000D03*
X183388000Y-121285000D03*
D10*
X183388000Y-118745000D03*
%TD*%
D13*
%TO.C,SW1*%
X185928000Y-111910000D03*
X181428000Y-111910000D03*
X185928000Y-105410000D03*
X181428000Y-105410000D03*
%TD*%
D14*
%TO.C,D1*%
X182753000Y-88265000D03*
D15*
X185293000Y-88265000D03*
%TD*%
D16*
%TO.C,U7*%
X123063000Y-24765000D03*
D17*
X105283000Y-24765000D03*
X123063000Y-65405000D03*
X105283000Y-65405000D03*
%TD*%
D18*
%TO.C,J13*%
X184023000Y-56515000D03*
D19*
X184023000Y-51435000D03*
%TD*%
D18*
%TO.C,J12*%
X184023000Y-43815000D03*
D19*
X184023000Y-38735000D03*
%TD*%
D20*
%TO.C,U6*%
X123063000Y-118999000D03*
X115443000Y-121539000D03*
X123063000Y-121539000D03*
D21*
X115443000Y-118999000D03*
%TD*%
D20*
%TO.C,U5*%
X123063000Y-111379000D03*
X115443000Y-113919000D03*
X123063000Y-113919000D03*
D21*
X115443000Y-111379000D03*
%TD*%
D20*
%TO.C,U4*%
X123063000Y-103759000D03*
X115443000Y-106299000D03*
X123063000Y-106299000D03*
D21*
X115443000Y-103759000D03*
%TD*%
D20*
%TO.C,U3*%
X123063000Y-96139000D03*
X115443000Y-98679000D03*
X123063000Y-98679000D03*
D21*
X115443000Y-96139000D03*
%TD*%
D20*
%TO.C,U2*%
X123063000Y-88519000D03*
X115443000Y-91059000D03*
X123063000Y-91059000D03*
D21*
X115443000Y-88519000D03*
%TD*%
D18*
%TO.C,J10*%
X184023000Y-66675000D03*
X184023000Y-71755000D03*
D19*
X184023000Y-61595000D03*
D18*
X184023000Y-76835000D03*
%TD*%
%TO.C,J9*%
X94488000Y-115570000D03*
X94488000Y-120650000D03*
D19*
X94488000Y-125730000D03*
%TD*%
D18*
%TO.C,J8*%
X94488000Y-100330000D03*
X94488000Y-105410000D03*
D19*
X94488000Y-110490000D03*
%TD*%
D18*
%TO.C,J7*%
X94488000Y-85090000D03*
X94488000Y-90170000D03*
D19*
X94488000Y-95250000D03*
%TD*%
D18*
%TO.C,J6*%
X94488000Y-69850000D03*
X94488000Y-74930000D03*
D19*
X94488000Y-80010000D03*
%TD*%
D18*
%TO.C,J5*%
X94488000Y-54610000D03*
X94488000Y-59690000D03*
D19*
X94488000Y-64770000D03*
%TD*%
D11*
%TO.C,J4*%
X185293000Y-100965000D03*
X182753000Y-100965000D03*
X185293000Y-98425000D03*
X182753000Y-98425000D03*
X185293000Y-95885000D03*
D10*
X182753000Y-95885000D03*
%TD*%
D18*
%TO.C,J3*%
X174498000Y-56515000D03*
D19*
X174498000Y-51435000D03*
%TD*%
D18*
%TO.C,J2*%
X174498000Y-46355000D03*
D19*
X174498000Y-41275000D03*
%TD*%
D11*
%TO.C,J1*%
X131318000Y-50165000D03*
X133858000Y-50165000D03*
X131318000Y-52705000D03*
X133858000Y-52705000D03*
X131318000Y-55245000D03*
X133858000Y-55245000D03*
X131318000Y-57785000D03*
D10*
X133858000Y-57785000D03*
%TD*%
D22*
%TO.C,P1*%
X138938000Y-123825000D03*
X141478000Y-123825000D03*
X144018000Y-123825000D03*
X146558000Y-123825000D03*
X149098000Y-123825000D03*
X151638000Y-123825000D03*
X154178000Y-123825000D03*
X156718000Y-123825000D03*
%TD*%
%TO.C,P2*%
X161798000Y-123825000D03*
X164338000Y-123825000D03*
X166878000Y-123825000D03*
X169418000Y-123825000D03*
X171958000Y-123825000D03*
X174498000Y-123825000D03*
%TD*%
%TO.C,P3*%
X129794000Y-75565000D03*
X132334000Y-75565000D03*
X134874000Y-75565000D03*
X137414000Y-75565000D03*
X139954000Y-75565000D03*
X142494000Y-75565000D03*
X145034000Y-75565000D03*
X147574000Y-75565000D03*
X150114000Y-75565000D03*
X152654000Y-75565000D03*
%TD*%
%TO.C,P4*%
X156718000Y-75565000D03*
X159258000Y-75565000D03*
X161798000Y-75565000D03*
X164338000Y-75565000D03*
X166878000Y-75565000D03*
X169418000Y-75565000D03*
X171958000Y-75565000D03*
X174498000Y-75565000D03*
%TD*%
D23*
%TO.C,P6*%
X177038000Y-118745000D03*
%TD*%
%TO.C,P7*%
X126238000Y-75565000D03*
%TD*%
M02*
