  0
SECTION
  2
HEADER
  9
$ACADVER
  1
AC1014
  9
$HANDSEED
  5
FFFF
  9
$MEASUREMENT
 70
     1
  0
ENDSEC
  0
SECTION
  2
TABLES
  0
TABLE
  2
VPORT
  5
8
330
0
100
AcDbSymbolTable
 70
     4
  0
VPORT
  5
2E
330
8
100
AcDbSymbolTableRecord
100
AcDbViewportTableRecord
  2
*ACTIVE
 70
     0
 10
0.0
 20
0.0
 11
1.0
 21
1.0
 12
210.0
 22
148.5
 13
0.0
 23
0.0
 14
10.0
 24
10.0
 15
10.0
 25
10.0
 16
0.0
 26
0.0
 36
1.0
 17
0.0
 27
0.0
 37
0.0
 40
341.0
 41
1.24
 42
50.0
 43
0.0
 44
0.0
 50
0.0
 51
0.0
 71
     0
 72
   100
 73
     1
 74
     3
 75
     0
 76
     0
 77
     0
 78
     0
  0
ENDTAB
  0
TABLE
  2
LTYPE
  5
5
330
0
100
AcDbSymbolTable
 70
     1
  0
LTYPE
  5
14
330
5
100
AcDbSymbolTableRecord
100
AcDbLinetypeTableRecord
  2
BYBLOCK
 70
     0
  3

 72
    65
 73
     0
 40
0.0
  0
LTYPE
  5
15
330
5
100
AcDbSymbolTableRecord
100
AcDbLinetypeTableRecord
  2
BYLAYER
 70
     0
  3

 72
    65
 73
     0
 40
0.0
  0
LTYPE
  5
16
330
5
100
AcDbSymbolTableRecord
100
AcDbLinetypeTableRecord
  2
CONTINUOUS
 70
     0
  3
Solid line
 72
    65
 73
     0
 40
0.0
  0
ENDTAB
  0
TABLE
  2
LAYER
  5
2
100
AcDbSymbolTable
 70
3
  0
LAYER
  5
50
100
AcDbSymbolTableRecord
100
AcDbLayerTableRecord
  2
0
 70
0
  6
CONTINUOUS
  0
LAYER
  5
51
100
AcDbSymbolTableRecord
100
AcDbLayerTableRecord
  2
Ref
 70
0
  6
CONTINUOUS
  0
LAYER
  5
52
100
AcDbSymbolTableRecord
100
AcDbLayerTableRecord
  2
BottomCopper
 70
0
  6
CONTINUOUS
  0
ENDTAB
  0
TABLE
  2
STYLE
  5
3
330
0
100
AcDbSymbolTable
 70
     1
  0
STYLE
  5
11
330
3
100
AcDbSymbolTableRecord
100
AcDbTextStyleTableRecord
  2
STANDARD
 70
     0
 40
0.0
 41
1.0
 50
0.0
 71
     0
 42
2.5
  3
txt
  4

  0
ENDTAB
  0
TABLE
  2
VIEW
  5
6
330
0
100
AcDbSymbolTable
 70
     0
  0
ENDTAB
  0
TABLE
  2
UCS
  5
7
330
0
100
AcDbSymbolTable
 70
     0
  0
ENDTAB
  0
TABLE
  2
APPID
  5
9
330
0
100
AcDbSymbolTable
 70
     2
  0
APPID
  5
12
330
9
100
AcDbSymbolTableRecord
100
AcDbRegAppTableRecord
  2
ACAD
 70
     0
  0
ENDTAB
  0
TABLE
  2
DIMSTYLE
  5
A
330
0
100
AcDbSymbolTable
 70
     1
  0
DIMSTYLE
105
27
330
A
100
AcDbSymbolTableRecord
100
AcDbDimStyleTableRecord
  2
ISO-25
 70
     0
  3

  4

  5

  6

  7

 40
1.0
 41
2.5
 42
0.625
 43
3.75
 44
1.25
 45
0.0
 46
0.0
 47
0.0
 48
0.0
140
2.5
141
2.5
142
0.0
143
0.03937007874016
144
1.0
145
0.0
146
1.0
147
0.625
 71
     0
 72
     0
 73
     0
 74
     0
 75
     0
 76
     0
 77
     1
 78
     8
170
     0
171
     3
172
     1
173
     0
174
     0
175
     0
176
     0
177
     0
178
     0
270
     2
271
     2
272
     2
273
     2
274
     3
340
11
275
     0
280
     0
281
     0
282
     0
283
     0
284
     8
285
     0
286
     0
287
     3
288
     0
  0
ENDTAB
  0
TABLE
  2
BLOCK_RECORD
  5
1
330
0
100
AcDbSymbolTable
 70
     1
  0
BLOCK_RECORD
  5
1F
330
1
100
AcDbSymbolTableRecord
100
AcDbBlockTableRecord
  2
*MODEL_SPACE
  0
BLOCK_RECORD
  5
1B
330
1
100
AcDbSymbolTableRecord
100
AcDbBlockTableRecord
  2
*PAPER_SPACE
  0
ENDTAB
  0
ENDSEC
  0
SECTION
  2
BLOCKS
  0
BLOCK
  5
20
330
1F
100
AcDbEntity
  8
0
100
AcDbBlockBegin
  2
*MODEL_SPACE
 70
     0
 10
0.0
 20
0.0
 30
0.0
  3
*MODEL_SPACE
  1

  0
ENDBLK
  5
21
330
1F
100
AcDbEntity
  8
0
100
AcDbBlockEnd
  0
BLOCK
  5
1C
330
1B
100
AcDbEntity
 67
     1
  8
0
100
AcDbBlockBegin
  2
*PAPER_SPACE
  1

  0
ENDBLK
  5
1D
330
1B
100
AcDbEntity
 67
     1
  8
0
100
AcDbBlockEnd
  0
ENDSEC
  0
SECTION
  2
ENTITIES
  0
LWPOLYLINE
  5
100
100
AcDbEntity
  8
BottomCopper
 62
4
100
AcDbPolyline
 90
7
 70
0
 10
55.775809
 20
47.640166
 30
0.0
 10
55.775809
 20
51.014444
 30
0.0
 10
112.720920
 20
51.014444
 30
0.0
 10
112.720920
 20
3.824667
 30
0.0
 10
84.858073
 20
3.824667
 30
0.0
 10
84.858073
 20
22.277936
 30
0.0
 10
91.297817
 20
22.277936
 30
0.0
  0
LWPOLYLINE
  5
101
100
AcDbEntity
  8
BottomCopper
 62
4
100
AcDbPolyline
 90
2
 70
0
 10
108.912330
 20
41.041950
 30
0.0
 10
108.912330
 20
51.031148
 30
0.0
  0
LWPOLYLINE
  5
102
100
AcDbEntity
  8
BottomCopper
 62
4
100
AcDbPolyline
 90
3
 70
0
 10
108.668150
 20
3.808036
 30
0.0
 10
108.668150
 20
5.934153
 30
0.0
 10
112.771040
 20
5.934153
 30
0.0
  0
LWPOLYLINE
  5
103
100
AcDbEntity
  8
BottomCopper
 62
4
100
AcDbPolyline
 90
4
 70
0
 10
89.802561
 20
51.031148
 30
0.0
 10
89.802561
 20
48.158000
 30
0.0
 10
89.802561
 20
44.182366
 30
0.0
 10
85.960560
 20
44.182366
 30
0.0
  0
LWPOLYLINE
  5
104
100
AcDbEntity
  8
BottomCopper
 62
4
100
AcDbPolyline
 90
4
 70
0
 10
89.568699
 20
31.119568
 30
0.0
 10
86.728960
 20
31.119568
 30
0.0
 10
85.843630
 20
32.305577
 30
0.0
 10
85.843630
 20
50.997739
 30
0.0
  0
LWPOLYLINE
  5
105
100
AcDbEntity
  8
BottomCopper
 62
4
100
AcDbPolyline
 90
7
 70
0
 10
96.784976
 20
25.941221
 30
0.0
 10
97.553377
 20
28.480282
 30
0.0
 10
97.553377
 20
31.219794
 30
0.0
 10
97.553377
 20
34.026124
 30
0.0
 10
97.553377
 20
37.868124
 30
0.0
 10
106.707360
 20
37.868124
 30
0.0
 10
108.912330
 20
41.041950
 30
0.0
  0
LWPOLYLINE
  5
106
100
AcDbEntity
  8
BottomCopper
 62
4
100
AcDbPolyline
 90
2
 70
0
 10
96.384072
 20
10.439589
 30
0.0
 10
96.384072
 20
3.824667
 30
0.0
  0
LWPOLYLINE
  5
107
100
AcDbEntity
  8
BottomCopper
 62
4
100
AcDbPolyline
 90
3
 70
0
 10
102.531270
 20
3.824667
 30
0.0
 10
102.531270
 20
8.368251
 30
0.0
 10
96.384072
 20
8.368251
 30
0.0
  0
LWPOLYLINE
  5
108
100
AcDbEntity
  8
BottomCopper
 62
4
100
AcDbPolyline
 90
2
 70
0
 10
84.832030
 20
13.092077
 30
0.0
 10
91.517485
 20
13.092077
 30
0.0
  0
LWPOLYLINE
  5
109
100
AcDbEntity
  8
BottomCopper
 62
4
100
AcDbPolyline
 90
7
 70
0
 10
6.147199
 20
31.553881
 30
0.0
 10
9.955790
 20
31.553881
 30
0.0
 10
16.203215
 20
37.801307
 30
0.0
 10
27.796029
 20
37.801307
 30
0.0
 10
27.796029
 20
40.941723
 30
0.0
 10
32.189274
 20
45.334966
 30
0.0
 10
36.382065
 20
45.334966
 30
0.0
  0
LWPOLYLINE
  5
10a
100
AcDbEntity
  8
BottomCopper
 62
4
100
AcDbPolyline
 90
13
 70
1
 10
2.031622
 20
39.574033
 30
0.0
 10
3.945126
 20
41.487537
 30
0.0
 10
24.237723
 20
41.487537
 30
0.0
 10
29.588449
 20
46.838263
 30
0.0
 10
36.143972
 20
46.838263
 30
0.0
 10
36.143972
 20
43.779018
 30
0.0
 10
32.458705
 20
43.779018
 30
0.0
 10
28.631697
 20
39.952009
 30
0.0
 10
28.631697
 20
36.502976
 30
0.0
 10
19.654762
 20
36.502976
 30
0.0
 10
12.496838
 20
29.345052
 30
0.0
 10
3.732515
 20
29.345052
 30
0.0
 10
1.878069
 20
31.199498
 30
0.0
  0
LWPOLYLINE
  5
10b
100
AcDbEntity
  8
BottomCopper
 62
4
100
AcDbPolyline
 90
4
 70
0
 10
5.716890
 20
21.856400
 30
0.0
 10
10.819568
 20
21.856400
 30
0.0
 10
31.041295
 20
21.856400
 30
0.0
 10
32.411458
 20
20.486236
 30
0.0
  0
LWPOLYLINE
  5
10c
100
AcDbEntity
  8
BottomCopper
 62
4
100
AcDbPolyline
 90
11
 70
0
 10
10.223059
 20
15.985430
 30
0.0
 10
6.080382
 20
15.985430
 30
0.0
 10
0.801809
 20
15.985430
 30
0.0
 10
0.801809
 20
6.564182
 30
0.0
 10
2.271791
 20
5.094199
 30
0.0
 10
10.824416
 20
5.094199
 30
0.0
 10
14.900276
 20
1.018338
 30
0.0
 10
42.028133
 20
1.018338
 30
0.0
 10
45.435818
 20
4.426025
 30
0.0
 10
48.509419
 20
4.292390
 30
0.0
 10
50.814618
 20
1.987189
 30
0.0
  0
LWPOLYLINE
  5
10d
100
AcDbEntity
  8
BottomCopper
 62
4
100
AcDbPolyline
 90
5
 70
0
 10
6.180608
 20
10.105502
 30
0.0
 10
9.855564
 20
10.105502
 30
0.0
 10
15.301180
 20
10.105502
 30
0.0
 10
19.644310
 20
14.448633
 30
0.0
 10
28.063301
 20
14.448633
 30
0.0
  0
LWPOLYLINE
  5
10e
100
AcDbEntity
  8
BottomCopper
 62
4
100
AcDbPolyline
 90
3
 70
0
 10
39.021350
 20
4.826930
 30
0.0
 10
21.648831
 20
4.826930
 30
0.0
 10
15.919241
 20
10.556519
 30
0.0
  0
LWPOLYLINE
  5
10f
100
AcDbEntity
  8
BottomCopper
 62
4
100
AcDbPolyline
 90
5
 70
0
 10
27.796029
 20
32.656368
 30
0.0
 10
27.796029
 20
30.885708
 30
0.0
 10
36.682743
 20
21.998997
 30
0.0
 10
36.682743
 20
19.159258
 30
0.0
 10
35.680483
 20
18.156995
 30
0.0
  0
LWPOLYLINE
  5
110
100
AcDbEntity
  8
BottomCopper
 62
4
100
AcDbPolyline
 90
6
 70
0
 10
27.829438
 20
9.570962
 30
0.0
 10
29.366239
 20
8.034164
 30
0.0
 10
55.257974
 20
8.034164
 30
0.0
 10
62.006529
 20
1.285607
 30
0.0
 10
74.367746
 20
1.285607
 30
0.0
 10
78.477014
 20
5.394877
 30
0.0
  0
LWPOLYLINE
  5
111
100
AcDbEntity
  8
BottomCopper
 62
4
100
AcDbPolyline
 90
9
 70
0
 10
32.406431
 20
35.262246
 30
0.0
 10
36.950012
 20
35.262246
 30
0.0
 10
38.887717
 20
35.262246
 30
0.0
 10
41.393369
 20
32.756594
 30
0.0
 10
41.393369
 20
23.669430
 30
0.0
 10
41.393369
 20
17.221553
 30
0.0
 10
39.271916
 20
15.100100
 30
0.0
 10
36.181612
 20
12.009799
 30
0.0
 10
32.673700
 20
12.009799
 30
0.0
  0
LWPOLYLINE
  5
112
100
AcDbEntity
  8
BottomCopper
 62
4
100
AcDbPolyline
 90
4
 70
0
 10
66.282842
 20
5.094199
 30
0.0
 10
60.503138
 20
10.873903
 30
0.0
 10
43.030393
 20
10.873903
 30
0.0
 10
39.071465
 20
14.832831
 30
0.0
  0
LWPOLYLINE
  5
113
100
AcDbEntity
  8
BottomCopper
 62
4
100
AcDbPolyline
 90
4
 70
0
 10
78.176336
 20
19.593569
 30
0.0
 10
77.107258
 20
19.593569
 30
0.0
 10
74.100475
 20
16.586789
 30
0.0
 10
67.351920
 20
16.586789
 30
0.0
  0
LWPOLYLINE
  5
114
100
AcDbEntity
  8
BottomCopper
 62
4
100
AcDbPolyline
 90
4
 70
0
 10
62.206983
 20
16.586789
 30
0.0
 10
51.583018
 20
16.586789
 30
0.0
 10
45.569454
 20
22.600352
 30
0.0
 10
41.293142
 20
22.600352
 30
0.0
  0
LWPOLYLINE
  5
115
100
AcDbEntity
  8
BottomCopper
 62
4
100
AcDbPolyline
 90
4
 70
0
 10
45.435818
 20
17.455413
 30
0.0
 10
48.676461
 20
14.214770
 30
0.0
 10
77.107258
 20
14.214770
 30
0.0
 10
78.774374
 20
14.661474
 30
0.0
  0
LWPOLYLINE
  5
116
100
AcDbEntity
  8
BottomCopper
 62
4
100
AcDbPolyline
 90
5
 70
0
 10
78.241072
 20
10.375372
 30
0.0
 10
76.965402
 20
10.375372
 30
0.0
 10
73.634485
 20
7.044459
 30
0.0
 10
71.154017
 20
7.044459
 30
0.0
 10
67.527807
 20
10.670666
 30
0.0
  0
LWPOLYLINE
  5
117
100
AcDbEntity
  8
BottomCopper
 62
4
100
AcDbPolyline
 90
2
 70
0
 10
62.741521
 20
10.706858
 30
0.0
 10
60.670183
 20
10.706858
 30
0.0
  0
LWPOLYLINE
  5
118
100
AcDbEntity
  8
BottomCopper
 62
4
100
AcDbPolyline
 90
3
 70
0
 10
79.516739
 20
31.211310
 30
0.0
 10
79.516739
 20
34.235119
 30
0.0
 10
79.516739
 20
37.022694
 30
0.0
  0
LWPOLYLINE
  5
119
100
AcDbEntity
  8
BottomCopper
 62
4
100
AcDbPolyline
 90
5
 70
0
 10
45.498884
 20
27.006325
 30
0.0
 10
50.034597
 20
22.470611
 30
0.0
 10
51.546503
 20
20.958705
 30
0.0
 10
66.665551
 20
20.958705
 30
0.0
 10
79.469492
 20
33.762649
 30
0.0
  0
LWPOLYLINE
  5
11a
100
AcDbEntity
  8
BottomCopper
 62
4
100
AcDbPolyline
 90
2
 70
0
 10
48.542828
 20
26.910073
 30
0.0
 10
48.542828
 20
23.936699
 30
0.0
  0
LWPOLYLINE
  5
11b
100
AcDbEntity
  8
BottomCopper
 62
4
100
AcDbPolyline
 90
8
 70
0
 10
45.546131
 20
49.212426
 30
0.0
 10
45.546131
 20
42.314360
 30
0.0
 10
45.546131
 20
39.007069
 30
0.0
 10
57.901228
 20
26.651972
 30
0.0
 10
65.862350
 20
26.651972
 30
0.0
 10
65.862350
 20
31.589286
 30
0.0
 10
64.019718
 20
31.589286
 30
0.0
 10
53.105655
 20
31.589286
 30
0.0
  0
LWPOLYLINE
  5
11c
100
AcDbEntity
  8
BottomCopper
 62
4
100
AcDbPolyline
 90
2
 70
0
 10
48.569940
 20
32.250744
 30
0.0
 10
48.569940
 20
36.030506
 30
0.0
  0
LWPOLYLINE
  5
11d
100
AcDbEntity
  8
BottomCopper
 62
4
100
AcDbPolyline
 90
12
 70
0
 10
57.429540
 20
41.509671
 30
0.0
 10
64.211503
 20
41.509671
 30
0.0
 10
67.652598
 20
41.509671
 30
0.0
 10
68.588042
 20
40.574228
 30
0.0
 10
68.588042
 20
38.803567
 30
0.0
 10
69.974501
 20
37.417107
 30
0.0
 10
74.367746
 20
37.417107
 30
0.0
 10
75.862785
 20
38.912145
 30
0.0
 10
75.862785
 20
42.745793
 30
0.0
 10
77.320240
 20
44.203247
 30
0.0
 10
79.813361
 20
44.203247
 30
0.0
 10
79.813361
 20
41.075358
 30
0.0
  0
LWPOLYLINE
  5
11e
100
AcDbEntity
  8
BottomCopper
 62
4
100
AcDbPolyline
 90
6
 70
0
 10
59.667922
 20
48.124592
 30
0.0
 10
77.508163
 20
48.124592
 30
0.0
 10
84.056267
 20
48.124592
 30
0.0
 10
84.056267
 20
30.885708
 30
0.0
 10
89.568699
 20
25.373273
 30
0.0
 10
93.945238
 20
25.373273
 30
0.0
  0
LWPOLYLINE
  5
11f
100
AcDbEntity
  8
BottomCopper
 62
4
100
AcDbPolyline
 90
9
 70
0
 10
108.101190
 20
26.037761
 30
0.0
 10
105.136440
 20
23.073009
 30
0.0
 10
102.478790
 20
23.073009
 30
0.0
 10
99.667596
 20
23.073009
 30
0.0
 10
96.927267
 20
23.073009
 30
0.0
 10
94.108544
 20
25.264090
 30
0.0
 10
94.151124
 20
27.765008
 30
0.0
 10
95.311659
 20
29.272315
 30
0.0
 10
95.444896
 20
45.078311
 30
0.0
  0
LWPOLYLINE
  5
120
100
AcDbEntity
  8
BottomCopper
 62
4
100
AcDbPolyline
 90
6
 70
0
 10
89.668926
 20
41.309219
 30
0.0
 10
87.096456
 20
41.309219
 30
0.0
 10
87.096456
 20
34.928159
 30
0.0
 10
87.831447
 20
34.193168
 30
0.0
 10
89.902786
 20
34.193168
 30
0.0
 10
95.281585
 20
34.193168
 30
0.0
  0
LWPOLYLINE
  5
121
100
AcDbEntity
  8
BottomCopper
 62
4
100
AcDbPolyline
 90
5
 70
0
 10
95.314994
 20
47.890731
 30
0.0
 10
92.942978
 20
47.890731
 30
0.0
 10
92.942978
 20
39.906054
 30
0.0
 10
92.942978
 20
36.832454
 30
0.0
 10
89.568699
 20
36.832454
 30
0.0
  0
ENDSEC
  0
SECTION
  2
OBJECTS
  0
DICTIONARY
  5
C
330
0
100
AcDbDictionary
  3
ACAD_GROUP
350
D
  3
ACAD_MLINESTYLE
350
17
  0
DICTIONARY
  5
D
330
C
100
AcDbDictionary
  0
DICTIONARY
  5
1A
330
C
100
AcDbDictionary
  0
DICTIONARY
  5
17
330
C
100
AcDbDictionary
  3
STANDARD
350
18
  0
DICTIONARY
  5
19
330
C
100
AcDbDictionary
  0
ENDSEC
  0
EOF
