%TF.GenerationSoftware,KiCad,Pcbnew,(6.0.6)*%
%TF.CreationDate,2022-08-31T19:42:32-05:00*%
%TF.ProjectId,Lavadora,4c617661-646f-4726-912e-6b696361645f,rev?*%
%TF.SameCoordinates,Original*%
%TF.FileFunction,Copper,L1,Top*%
%TF.FilePolarity,Positive*%
%FSLAX46Y46*%
G04 Gerber Fmt 4.6, Leading zero omitted, Abs format (unit mm)*
G04 Created by KiCad (PCBNEW (6.0.6)) date 2022-08-31 19:42:32*
%MOMM*%
%LPD*%
G01*
G04 APERTURE LIST*
G04 Aperture macros list*
%AMRoundRect*
0 Rectangle with rounded corners*
0 $1 Rounding radius*
0 $2 $3 $4 $5 $6 $7 $8 $9 X,Y pos of 4 corners*
0 Add a 4 corners polygon primitive as box body*
4,1,4,$2,$3,$4,$5,$6,$7,$8,$9,$2,$3,0*
0 Add four circle primitives for the rounded corners*
1,1,$1+$1,$2,$3*
1,1,$1+$1,$4,$5*
1,1,$1+$1,$6,$7*
1,1,$1+$1,$8,$9*
0 Add four rect primitives between the rounded corners*
20,1,$1+$1,$2,$3,$4,$5,0*
20,1,$1+$1,$4,$5,$6,$7,0*
20,1,$1+$1,$6,$7,$8,$9,0*
20,1,$1+$1,$8,$9,$2,$3,0*%
G04 Aperture macros list end*
%TA.AperFunction,ComponentPad*%
%ADD10C,2.600000*%
%TD*%
%TA.AperFunction,ComponentPad*%
%ADD11RoundRect,0.650000X-0.650000X-0.650000X0.650000X-0.650000X0.650000X0.650000X-0.650000X0.650000X0*%
%TD*%
%TA.AperFunction,ComponentPad*%
%ADD12C,2.000000*%
%TD*%
%TA.AperFunction,ComponentPad*%
%ADD13R,2.000000X2.000000*%
%TD*%
%TA.AperFunction,ComponentPad*%
%ADD14O,2.000000X2.000000*%
%TD*%
%TA.AperFunction,ComponentPad*%
%ADD15C,3.000000*%
%TD*%
%TA.AperFunction,ComponentPad*%
%ADD16C,1.500000*%
%TD*%
%TA.AperFunction,ComponentPad*%
%ADD17O,1.600000X1.600000*%
%TD*%
%TA.AperFunction,ComponentPad*%
%ADD18C,1.600000*%
%TD*%
%TA.AperFunction,ComponentPad*%
%ADD19O,2.400000X2.400000*%
%TD*%
%TA.AperFunction,ComponentPad*%
%ADD20C,2.400000*%
%TD*%
%TA.AperFunction,ComponentPad*%
%ADD21R,1.800000X1.800000*%
%TD*%
%TA.AperFunction,ComponentPad*%
%ADD22O,1.800000X1.800000*%
%TD*%
%TA.AperFunction,ComponentPad*%
%ADD23R,1.730000X2.030000*%
%TD*%
%TA.AperFunction,ComponentPad*%
%ADD24O,1.730000X2.030000*%
%TD*%
%TA.AperFunction,ComponentPad*%
%ADD25R,1.600000X1.600000*%
%TD*%
%TA.AperFunction,ComponentPad*%
%ADD26R,2.400000X1.600000*%
%TD*%
%TA.AperFunction,ComponentPad*%
%ADD27O,2.400000X1.600000*%
%TD*%
%TA.AperFunction,ComponentPad*%
%ADD28C,2.200000*%
%TD*%
%TA.AperFunction,ComponentPad*%
%ADD29R,1.600000X2.400000*%
%TD*%
%TA.AperFunction,ComponentPad*%
%ADD30O,1.600000X2.400000*%
%TD*%
G04 APERTURE END LIST*
D10*
%TO.P,P4,2*%
%TO.N,N/C*%
X107950000Y-40640000D03*
D11*
%TO.P,P4,1*%
X102870000Y-40640000D03*
%TD*%
%TO.P,P3,1*%
%TO.N,N/C*%
X102870000Y-35560000D03*
D10*
%TO.P,P3,2*%
X107950000Y-35560000D03*
%TD*%
%TO.P,P2,2*%
%TO.N,N/C*%
X107950000Y-30480000D03*
D11*
%TO.P,P2,1*%
X102870000Y-30480000D03*
%TD*%
D10*
%TO.P,P1,2*%
%TO.N,ISLA3*%
X107950000Y-20320000D03*
D11*
%TO.P,P1,1*%
X102870000Y-20320000D03*
%TD*%
D12*
%TO.P,PADSW2,1*%
%TO.N,N/C*%
X81280000Y-16510000D03*
%TD*%
D13*
%TO.P,SW1,1*%
%TO.N,ISLA3*%
X86360000Y-13970000D03*
D14*
%TO.P,SW1,2*%
%TO.N,N/C*%
X86360000Y-19050000D03*
%TD*%
D15*
%TO.P,E,1*%
%TO.N,N/C*%
X72390000Y-30480000D03*
%TD*%
%TO.P,D,1*%
%TO.N,N/C*%
X82550000Y-30480000D03*
%TD*%
D16*
%TO.P,PAD2J1,1*%
%TO.N,N/C*%
X68580000Y-34290000D03*
%TD*%
%TO.P,PAD1J1,1*%
%TO.N,N/C*%
X78740000Y-34290000D03*
%TD*%
D12*
%TO.P,PADSW2,1*%
%TO.N,N/C*%
X81280000Y-39370000D03*
%TD*%
D13*
%TO.P,SW2,1*%
%TO.N,N/C*%
X86360000Y-36830000D03*
D14*
%TO.P,SW2,2*%
X86360000Y-41910000D03*
%TD*%
D12*
%TO.P,CRF2,1*%
%TO.N,N/C*%
X77470000Y-16510000D03*
%TO.P,CRF2,2*%
%TO.N,ISLA3*%
X77470000Y-6510000D03*
%TD*%
%TO.P,VAR1,2*%
%TO.N,N/C*%
X68580000Y-40760000D03*
%TO.P,VAR1,1*%
X68580000Y-48260000D03*
%TD*%
%TO.P,CRF3,2*%
%TO.N,N/C*%
X74930000Y-36990000D03*
%TO.P,CRF3,1*%
X74930000Y-46990000D03*
%TD*%
D17*
%TO.P,R11,2*%
%TO.N,ISLA4*%
X16510000Y-17780000D03*
D18*
%TO.P,R11,1*%
%TO.N,N/C*%
X6350000Y-17780000D03*
%TD*%
D19*
%TO.P,R01,2*%
%TO.N,ISLA2*%
X48260000Y-26670000D03*
D20*
%TO.P,R01,1*%
%TO.N,N/C*%
X48260000Y-46990000D03*
%TD*%
D18*
%TO.P,R02,1*%
%TO.N,ISLA2*%
X50800000Y-21590000D03*
D17*
%TO.P,R02,2*%
%TO.N,N/C*%
X50800000Y-11430000D03*
%TD*%
D21*
%TO.P,D02,1*%
%TO.N,ISLA4*%
X24130000Y-20320000D03*
D22*
%TO.P,D02,2*%
%TO.N,N/C*%
X34290000Y-20320000D03*
%TD*%
D23*
%TO.P,CN1,1*%
%TO.N,ISLA1*%
X6350000Y-39370000D03*
D24*
%TO.P,CN1,2*%
%TO.N,N/C*%
X8890000Y-39370000D03*
%TO.P,CN1,3*%
X11430000Y-39370000D03*
%TD*%
D25*
%TO.P,CE1,1*%
%TO.N,ISLA4*%
X58420000Y-5080000D03*
D18*
%TO.P,CE1,2*%
%TO.N,ISLA1*%
X54620000Y-5080000D03*
%TD*%
D26*
%TO.P,MOC2,1*%
%TO.N,N/C*%
X27940000Y-41910000D03*
D27*
%TO.P,MOC2,2*%
X27940000Y-44450000D03*
%TO.P,MOC2,3*%
X27940000Y-46990000D03*
%TO.P,MOC2,4*%
X35560000Y-46990000D03*
%TO.P,MOC2,5*%
X35560000Y-44450000D03*
%TO.P,MOC2,6*%
X35560000Y-41910000D03*
%TD*%
D21*
%TO.P,D01,1*%
%TO.N,ISLA4*%
X24130000Y-8890000D03*
D22*
%TO.P,D01,2*%
%TO.N,N/C*%
X34290000Y-8890000D03*
%TD*%
D26*
%TO.P,MOC1,1*%
%TO.N,N/C*%
X27924989Y-31765011D03*
D27*
%TO.P,MOC1,2*%
X27924989Y-34305011D03*
%TO.P,MOC1,3*%
X27924989Y-36845011D03*
%TO.P,MOC1,4*%
X35544989Y-36845011D03*
%TO.P,MOC1,5*%
X35544989Y-34305011D03*
%TO.P,MOC1,6*%
X35544989Y-31765011D03*
%TD*%
D21*
%TO.P,D06,1*%
%TO.N,ISLA4*%
X16510000Y-20320000D03*
D22*
%TO.P,D06,2*%
%TO.N,N/C*%
X6350000Y-20320000D03*
%TD*%
D18*
%TO.P,R06,1*%
%TO.N,N/C*%
X24130000Y-15240000D03*
D17*
%TO.P,R06,2*%
X34290000Y-15240000D03*
%TD*%
D21*
%TO.P,D03,1*%
%TO.N,N/C*%
X34290000Y-11430000D03*
D22*
%TO.P,D03,2*%
%TO.N,ISLA1*%
X24130000Y-11430000D03*
%TD*%
D21*
%TO.P,D04,1*%
%TO.N,ISLA1*%
X24130000Y-17780000D03*
D22*
%TO.P,D04,2*%
%TO.N,N/C*%
X34290000Y-17780000D03*
%TD*%
D20*
%TO.P,CRF1,2*%
%TO.N,ISLA2*%
X68580000Y-2900000D03*
%TO.P,CRF1,1*%
%TO.N,N/C*%
X68580000Y-25400000D03*
%TD*%
D21*
%TO.P,D05,1*%
%TO.N,N/C*%
X21590000Y-12700000D03*
D22*
%TO.P,D05,2*%
%TO.N,ISLA1*%
X11430000Y-12700000D03*
%TD*%
D20*
%TO.P,R03,1*%
%TO.N,N/C*%
X63500000Y-49530000D03*
D19*
%TO.P,R03,2*%
X63500000Y-29210000D03*
%TD*%
D14*
%TO.P,DZ1,2*%
%TO.N,ISLA1*%
X36830000Y-5080000D03*
D13*
%TO.P,DZ1,1*%
%TO.N,ISLA4*%
X24130000Y-5080000D03*
%TD*%
D28*
%TO.P,CP1,1*%
%TO.N,ISLA2*%
X55880000Y-26670000D03*
%TO.P,CP1,2*%
%TO.N,N/C*%
X55880000Y-11670000D03*
%TD*%
D29*
%TO.P,U01,1*%
%TO.N,ISLA4*%
X16510000Y-24130000D03*
D30*
%TO.P,U01,2*%
%TO.N,N/C*%
X13970000Y-24130000D03*
%TO.P,U01,3*%
X11430000Y-24130000D03*
%TO.P,U01,4*%
X8890000Y-24130000D03*
%TO.P,U01,5*%
X8890000Y-31750000D03*
%TO.P,U01,6*%
X11430000Y-31750000D03*
%TO.P,U01,7*%
X13970000Y-31750000D03*
%TO.P,U01,8*%
%TO.N,ISLA1*%
X16510000Y-31750000D03*
%TD*%
M02*
