%TF.GenerationSoftware,KiCad,Pcbnew,(6.0.6)*%
%TF.CreationDate,2022-08-31T19:42:32-05:00*%
%TF.ProjectId,Lavadora,4c617661-646f-4726-912e-6b696361645f,rev?*%
%TF.SameCoordinates,Original*%
%TF.FileFunction,Legend,Bot*%
%TF.FilePolarity,Positive*%
%FSLAX46Y46*%
G04 Gerber Fmt 4.6, Leading zero omitted, Abs format (unit mm)*
G04 Created by KiCad (PCBNEW (6.0.6)) date 2022-08-31 19:42:32*
%MOMM*%
%LPD*%
G01*
G04 APERTURE LIST*
%ADD10C,0.150000*%
%ADD11C,0.120000*%
G04 APERTURE END LIST*
D10*
X18415000Y-26035000D02*
X19685000Y-25400000D01*
X24765000Y-26035000D02*
X18415000Y-26035000D01*
%TO.C,R04*%
X67762380Y-19677142D02*
X67286190Y-19343809D01*
X67762380Y-19105714D02*
X66762380Y-19105714D01*
X66762380Y-19486666D01*
X66810000Y-19581904D01*
X66857619Y-19629523D01*
X66952857Y-19677142D01*
X67095714Y-19677142D01*
X67190952Y-19629523D01*
X67238571Y-19581904D01*
X67286190Y-19486666D01*
X67286190Y-19105714D01*
X66762380Y-20296190D02*
X66762380Y-20391428D01*
X66810000Y-20486666D01*
X66857619Y-20534285D01*
X66952857Y-20581904D01*
X67143333Y-20629523D01*
X67381428Y-20629523D01*
X67571904Y-20581904D01*
X67667142Y-20534285D01*
X67714761Y-20486666D01*
X67762380Y-20391428D01*
X67762380Y-20296190D01*
X67714761Y-20200952D01*
X67667142Y-20153333D01*
X67571904Y-20105714D01*
X67381428Y-20058095D01*
X67143333Y-20058095D01*
X66952857Y-20105714D01*
X66857619Y-20153333D01*
X66810000Y-20200952D01*
X66762380Y-20296190D01*
X67095714Y-21486666D02*
X67762380Y-21486666D01*
X66714761Y-21248571D02*
X67429047Y-21010476D01*
X67429047Y-21629523D01*
%TO.C,R13*%
X53982857Y-43632380D02*
X54316190Y-43156190D01*
X54554285Y-43632380D02*
X54554285Y-42632380D01*
X54173333Y-42632380D01*
X54078095Y-42680000D01*
X54030476Y-42727619D01*
X53982857Y-42822857D01*
X53982857Y-42965714D01*
X54030476Y-43060952D01*
X54078095Y-43108571D01*
X54173333Y-43156190D01*
X54554285Y-43156190D01*
X53030476Y-43632380D02*
X53601904Y-43632380D01*
X53316190Y-43632380D02*
X53316190Y-42632380D01*
X53411428Y-42775238D01*
X53506666Y-42870476D01*
X53601904Y-42918095D01*
X52697142Y-42632380D02*
X52078095Y-42632380D01*
X52411428Y-43013333D01*
X52268571Y-43013333D01*
X52173333Y-43060952D01*
X52125714Y-43108571D01*
X52078095Y-43203809D01*
X52078095Y-43441904D01*
X52125714Y-43537142D01*
X52173333Y-43584761D01*
X52268571Y-43632380D01*
X52554285Y-43632380D01*
X52649523Y-43584761D01*
X52697142Y-43537142D01*
%TO.C,R08*%
X53982857Y-36012380D02*
X54316190Y-35536190D01*
X54554285Y-36012380D02*
X54554285Y-35012380D01*
X54173333Y-35012380D01*
X54078095Y-35060000D01*
X54030476Y-35107619D01*
X53982857Y-35202857D01*
X53982857Y-35345714D01*
X54030476Y-35440952D01*
X54078095Y-35488571D01*
X54173333Y-35536190D01*
X54554285Y-35536190D01*
X53363809Y-35012380D02*
X53268571Y-35012380D01*
X53173333Y-35060000D01*
X53125714Y-35107619D01*
X53078095Y-35202857D01*
X53030476Y-35393333D01*
X53030476Y-35631428D01*
X53078095Y-35821904D01*
X53125714Y-35917142D01*
X53173333Y-35964761D01*
X53268571Y-36012380D01*
X53363809Y-36012380D01*
X53459047Y-35964761D01*
X53506666Y-35917142D01*
X53554285Y-35821904D01*
X53601904Y-35631428D01*
X53601904Y-35393333D01*
X53554285Y-35202857D01*
X53506666Y-35107619D01*
X53459047Y-35060000D01*
X53363809Y-35012380D01*
X52459047Y-35440952D02*
X52554285Y-35393333D01*
X52601904Y-35345714D01*
X52649523Y-35250476D01*
X52649523Y-35202857D01*
X52601904Y-35107619D01*
X52554285Y-35060000D01*
X52459047Y-35012380D01*
X52268571Y-35012380D01*
X52173333Y-35060000D01*
X52125714Y-35107619D01*
X52078095Y-35202857D01*
X52078095Y-35250476D01*
X52125714Y-35345714D01*
X52173333Y-35393333D01*
X52268571Y-35440952D01*
X52459047Y-35440952D01*
X52554285Y-35488571D01*
X52601904Y-35536190D01*
X52649523Y-35631428D01*
X52649523Y-35821904D01*
X52601904Y-35917142D01*
X52554285Y-35964761D01*
X52459047Y-36012380D01*
X52268571Y-36012380D01*
X52173333Y-35964761D01*
X52125714Y-35917142D01*
X52078095Y-35821904D01*
X52078095Y-35631428D01*
X52125714Y-35536190D01*
X52173333Y-35488571D01*
X52268571Y-35440952D01*
%TO.C,C02*%
X10517142Y-8247142D02*
X10564761Y-8199523D01*
X10612380Y-8056666D01*
X10612380Y-7961428D01*
X10564761Y-7818571D01*
X10469523Y-7723333D01*
X10374285Y-7675714D01*
X10183809Y-7628095D01*
X10040952Y-7628095D01*
X9850476Y-7675714D01*
X9755238Y-7723333D01*
X9660000Y-7818571D01*
X9612380Y-7961428D01*
X9612380Y-8056666D01*
X9660000Y-8199523D01*
X9707619Y-8247142D01*
X9612380Y-8866190D02*
X9612380Y-8961428D01*
X9660000Y-9056666D01*
X9707619Y-9104285D01*
X9802857Y-9151904D01*
X9993333Y-9199523D01*
X10231428Y-9199523D01*
X10421904Y-9151904D01*
X10517142Y-9104285D01*
X10564761Y-9056666D01*
X10612380Y-8961428D01*
X10612380Y-8866190D01*
X10564761Y-8770952D01*
X10517142Y-8723333D01*
X10421904Y-8675714D01*
X10231428Y-8628095D01*
X9993333Y-8628095D01*
X9802857Y-8675714D01*
X9707619Y-8723333D01*
X9660000Y-8770952D01*
X9612380Y-8866190D01*
X9707619Y-9580476D02*
X9660000Y-9628095D01*
X9612380Y-9723333D01*
X9612380Y-9961428D01*
X9660000Y-10056666D01*
X9707619Y-10104285D01*
X9802857Y-10151904D01*
X9898095Y-10151904D01*
X10040952Y-10104285D01*
X10612380Y-9532857D01*
X10612380Y-10151904D01*
%TO.C,C03*%
X18137142Y-8247142D02*
X18184761Y-8199523D01*
X18232380Y-8056666D01*
X18232380Y-7961428D01*
X18184761Y-7818571D01*
X18089523Y-7723333D01*
X17994285Y-7675714D01*
X17803809Y-7628095D01*
X17660952Y-7628095D01*
X17470476Y-7675714D01*
X17375238Y-7723333D01*
X17280000Y-7818571D01*
X17232380Y-7961428D01*
X17232380Y-8056666D01*
X17280000Y-8199523D01*
X17327619Y-8247142D01*
X17232380Y-8866190D02*
X17232380Y-8961428D01*
X17280000Y-9056666D01*
X17327619Y-9104285D01*
X17422857Y-9151904D01*
X17613333Y-9199523D01*
X17851428Y-9199523D01*
X18041904Y-9151904D01*
X18137142Y-9104285D01*
X18184761Y-9056666D01*
X18232380Y-8961428D01*
X18232380Y-8866190D01*
X18184761Y-8770952D01*
X18137142Y-8723333D01*
X18041904Y-8675714D01*
X17851428Y-8628095D01*
X17613333Y-8628095D01*
X17422857Y-8675714D01*
X17327619Y-8723333D01*
X17280000Y-8770952D01*
X17232380Y-8866190D01*
X17232380Y-9532857D02*
X17232380Y-10151904D01*
X17613333Y-9818571D01*
X17613333Y-9961428D01*
X17660952Y-10056666D01*
X17708571Y-10104285D01*
X17803809Y-10151904D01*
X18041904Y-10151904D01*
X18137142Y-10104285D01*
X18184761Y-10056666D01*
X18232380Y-9961428D01*
X18232380Y-9675714D01*
X18184761Y-9580476D01*
X18137142Y-9532857D01*
%TO.C,C07*%
X22582142Y-27297142D02*
X22629761Y-27249523D01*
X22677380Y-27106666D01*
X22677380Y-27011428D01*
X22629761Y-26868571D01*
X22534523Y-26773333D01*
X22439285Y-26725714D01*
X22248809Y-26678095D01*
X22105952Y-26678095D01*
X21915476Y-26725714D01*
X21820238Y-26773333D01*
X21725000Y-26868571D01*
X21677380Y-27011428D01*
X21677380Y-27106666D01*
X21725000Y-27249523D01*
X21772619Y-27297142D01*
X21677380Y-27916190D02*
X21677380Y-28011428D01*
X21725000Y-28106666D01*
X21772619Y-28154285D01*
X21867857Y-28201904D01*
X22058333Y-28249523D01*
X22296428Y-28249523D01*
X22486904Y-28201904D01*
X22582142Y-28154285D01*
X22629761Y-28106666D01*
X22677380Y-28011428D01*
X22677380Y-27916190D01*
X22629761Y-27820952D01*
X22582142Y-27773333D01*
X22486904Y-27725714D01*
X22296428Y-27678095D01*
X22058333Y-27678095D01*
X21867857Y-27725714D01*
X21772619Y-27773333D01*
X21725000Y-27820952D01*
X21677380Y-27916190D01*
X21677380Y-28582857D02*
X21677380Y-29249523D01*
X22677380Y-28820952D01*
%TO.C,Q01*%
X5651428Y-3087619D02*
X5746666Y-3040000D01*
X5841904Y-2944761D01*
X5984761Y-2801904D01*
X6080000Y-2754285D01*
X6175238Y-2754285D01*
X6127619Y-2992380D02*
X6222857Y-2944761D01*
X6318095Y-2849523D01*
X6365714Y-2659047D01*
X6365714Y-2325714D01*
X6318095Y-2135238D01*
X6222857Y-2040000D01*
X6127619Y-1992380D01*
X5937142Y-1992380D01*
X5841904Y-2040000D01*
X5746666Y-2135238D01*
X5699047Y-2325714D01*
X5699047Y-2659047D01*
X5746666Y-2849523D01*
X5841904Y-2944761D01*
X5937142Y-2992380D01*
X6127619Y-2992380D01*
X5080000Y-1992380D02*
X4984761Y-1992380D01*
X4889523Y-2040000D01*
X4841904Y-2087619D01*
X4794285Y-2182857D01*
X4746666Y-2373333D01*
X4746666Y-2611428D01*
X4794285Y-2801904D01*
X4841904Y-2897142D01*
X4889523Y-2944761D01*
X4984761Y-2992380D01*
X5080000Y-2992380D01*
X5175238Y-2944761D01*
X5222857Y-2897142D01*
X5270476Y-2801904D01*
X5318095Y-2611428D01*
X5318095Y-2373333D01*
X5270476Y-2182857D01*
X5222857Y-2087619D01*
X5175238Y-2040000D01*
X5080000Y-1992380D01*
X3794285Y-2992380D02*
X4365714Y-2992380D01*
X4080000Y-2992380D02*
X4080000Y-1992380D01*
X4175238Y-2135238D01*
X4270476Y-2230476D01*
X4365714Y-2278095D01*
%TO.C,R16*%
X15692380Y-43807142D02*
X15216190Y-43473809D01*
X15692380Y-43235714D02*
X14692380Y-43235714D01*
X14692380Y-43616666D01*
X14740000Y-43711904D01*
X14787619Y-43759523D01*
X14882857Y-43807142D01*
X15025714Y-43807142D01*
X15120952Y-43759523D01*
X15168571Y-43711904D01*
X15216190Y-43616666D01*
X15216190Y-43235714D01*
X15692380Y-44759523D02*
X15692380Y-44188095D01*
X15692380Y-44473809D02*
X14692380Y-44473809D01*
X14835238Y-44378571D01*
X14930476Y-44283333D01*
X14978095Y-44188095D01*
X14692380Y-45616666D02*
X14692380Y-45426190D01*
X14740000Y-45330952D01*
X14787619Y-45283333D01*
X14930476Y-45188095D01*
X15120952Y-45140476D01*
X15501904Y-45140476D01*
X15597142Y-45188095D01*
X15644761Y-45235714D01*
X15692380Y-45330952D01*
X15692380Y-45521428D01*
X15644761Y-45616666D01*
X15597142Y-45664285D01*
X15501904Y-45711904D01*
X15263809Y-45711904D01*
X15168571Y-45664285D01*
X15120952Y-45616666D01*
X15073333Y-45521428D01*
X15073333Y-45330952D01*
X15120952Y-45235714D01*
X15168571Y-45188095D01*
X15263809Y-45140476D01*
%TO.C,C01*%
X23852142Y-27297142D02*
X23899761Y-27249523D01*
X23947380Y-27106666D01*
X23947380Y-27011428D01*
X23899761Y-26868571D01*
X23804523Y-26773333D01*
X23709285Y-26725714D01*
X23518809Y-26678095D01*
X23375952Y-26678095D01*
X23185476Y-26725714D01*
X23090238Y-26773333D01*
X22995000Y-26868571D01*
X22947380Y-27011428D01*
X22947380Y-27106666D01*
X22995000Y-27249523D01*
X23042619Y-27297142D01*
X22947380Y-27916190D02*
X22947380Y-28011428D01*
X22995000Y-28106666D01*
X23042619Y-28154285D01*
X23137857Y-28201904D01*
X23328333Y-28249523D01*
X23566428Y-28249523D01*
X23756904Y-28201904D01*
X23852142Y-28154285D01*
X23899761Y-28106666D01*
X23947380Y-28011428D01*
X23947380Y-27916190D01*
X23899761Y-27820952D01*
X23852142Y-27773333D01*
X23756904Y-27725714D01*
X23566428Y-27678095D01*
X23328333Y-27678095D01*
X23137857Y-27725714D01*
X23042619Y-27773333D01*
X22995000Y-27820952D01*
X22947380Y-27916190D01*
X23947380Y-29201904D02*
X23947380Y-28630476D01*
X23947380Y-28916190D02*
X22947380Y-28916190D01*
X23090238Y-28820952D01*
X23185476Y-28725714D01*
X23233095Y-28630476D01*
%TO.C,C04*%
X4802142Y-27297142D02*
X4849761Y-27249523D01*
X4897380Y-27106666D01*
X4897380Y-27011428D01*
X4849761Y-26868571D01*
X4754523Y-26773333D01*
X4659285Y-26725714D01*
X4468809Y-26678095D01*
X4325952Y-26678095D01*
X4135476Y-26725714D01*
X4040238Y-26773333D01*
X3945000Y-26868571D01*
X3897380Y-27011428D01*
X3897380Y-27106666D01*
X3945000Y-27249523D01*
X3992619Y-27297142D01*
X3897380Y-27916190D02*
X3897380Y-28011428D01*
X3945000Y-28106666D01*
X3992619Y-28154285D01*
X4087857Y-28201904D01*
X4278333Y-28249523D01*
X4516428Y-28249523D01*
X4706904Y-28201904D01*
X4802142Y-28154285D01*
X4849761Y-28106666D01*
X4897380Y-28011428D01*
X4897380Y-27916190D01*
X4849761Y-27820952D01*
X4802142Y-27773333D01*
X4706904Y-27725714D01*
X4516428Y-27678095D01*
X4278333Y-27678095D01*
X4087857Y-27725714D01*
X3992619Y-27773333D01*
X3945000Y-27820952D01*
X3897380Y-27916190D01*
X4230714Y-29106666D02*
X4897380Y-29106666D01*
X3849761Y-28868571D02*
X4564047Y-28630476D01*
X4564047Y-29249523D01*
%TO.C,R14*%
X18232380Y-43807142D02*
X17756190Y-43473809D01*
X18232380Y-43235714D02*
X17232380Y-43235714D01*
X17232380Y-43616666D01*
X17280000Y-43711904D01*
X17327619Y-43759523D01*
X17422857Y-43807142D01*
X17565714Y-43807142D01*
X17660952Y-43759523D01*
X17708571Y-43711904D01*
X17756190Y-43616666D01*
X17756190Y-43235714D01*
X18232380Y-44759523D02*
X18232380Y-44188095D01*
X18232380Y-44473809D02*
X17232380Y-44473809D01*
X17375238Y-44378571D01*
X17470476Y-44283333D01*
X17518095Y-44188095D01*
X17565714Y-45616666D02*
X18232380Y-45616666D01*
X17184761Y-45378571D02*
X17899047Y-45140476D01*
X17899047Y-45759523D01*
%TO.C,R12*%
X23312380Y-43807142D02*
X22836190Y-43473809D01*
X23312380Y-43235714D02*
X22312380Y-43235714D01*
X22312380Y-43616666D01*
X22360000Y-43711904D01*
X22407619Y-43759523D01*
X22502857Y-43807142D01*
X22645714Y-43807142D01*
X22740952Y-43759523D01*
X22788571Y-43711904D01*
X22836190Y-43616666D01*
X22836190Y-43235714D01*
X23312380Y-44759523D02*
X23312380Y-44188095D01*
X23312380Y-44473809D02*
X22312380Y-44473809D01*
X22455238Y-44378571D01*
X22550476Y-44283333D01*
X22598095Y-44188095D01*
X22407619Y-45140476D02*
X22360000Y-45188095D01*
X22312380Y-45283333D01*
X22312380Y-45521428D01*
X22360000Y-45616666D01*
X22407619Y-45664285D01*
X22502857Y-45711904D01*
X22598095Y-45711904D01*
X22740952Y-45664285D01*
X23312380Y-45092857D01*
X23312380Y-45711904D01*
%TO.C,R07*%
X2992380Y-12057142D02*
X2516190Y-11723809D01*
X2992380Y-11485714D02*
X1992380Y-11485714D01*
X1992380Y-11866666D01*
X2040000Y-11961904D01*
X2087619Y-12009523D01*
X2182857Y-12057142D01*
X2325714Y-12057142D01*
X2420952Y-12009523D01*
X2468571Y-11961904D01*
X2516190Y-11866666D01*
X2516190Y-11485714D01*
X1992380Y-12676190D02*
X1992380Y-12771428D01*
X2040000Y-12866666D01*
X2087619Y-12914285D01*
X2182857Y-12961904D01*
X2373333Y-13009523D01*
X2611428Y-13009523D01*
X2801904Y-12961904D01*
X2897142Y-12914285D01*
X2944761Y-12866666D01*
X2992380Y-12771428D01*
X2992380Y-12676190D01*
X2944761Y-12580952D01*
X2897142Y-12533333D01*
X2801904Y-12485714D01*
X2611428Y-12438095D01*
X2373333Y-12438095D01*
X2182857Y-12485714D01*
X2087619Y-12533333D01*
X2040000Y-12580952D01*
X1992380Y-12676190D01*
X1992380Y-13342857D02*
X1992380Y-14009523D01*
X2992380Y-13580952D01*
%TO.C,C05*%
X21312142Y-27297142D02*
X21359761Y-27249523D01*
X21407380Y-27106666D01*
X21407380Y-27011428D01*
X21359761Y-26868571D01*
X21264523Y-26773333D01*
X21169285Y-26725714D01*
X20978809Y-26678095D01*
X20835952Y-26678095D01*
X20645476Y-26725714D01*
X20550238Y-26773333D01*
X20455000Y-26868571D01*
X20407380Y-27011428D01*
X20407380Y-27106666D01*
X20455000Y-27249523D01*
X20502619Y-27297142D01*
X20407380Y-27916190D02*
X20407380Y-28011428D01*
X20455000Y-28106666D01*
X20502619Y-28154285D01*
X20597857Y-28201904D01*
X20788333Y-28249523D01*
X21026428Y-28249523D01*
X21216904Y-28201904D01*
X21312142Y-28154285D01*
X21359761Y-28106666D01*
X21407380Y-28011428D01*
X21407380Y-27916190D01*
X21359761Y-27820952D01*
X21312142Y-27773333D01*
X21216904Y-27725714D01*
X21026428Y-27678095D01*
X20788333Y-27678095D01*
X20597857Y-27725714D01*
X20502619Y-27773333D01*
X20455000Y-27820952D01*
X20407380Y-27916190D01*
X20407380Y-29154285D02*
X20407380Y-28678095D01*
X20883571Y-28630476D01*
X20835952Y-28678095D01*
X20788333Y-28773333D01*
X20788333Y-29011428D01*
X20835952Y-29106666D01*
X20883571Y-29154285D01*
X20978809Y-29201904D01*
X21216904Y-29201904D01*
X21312142Y-29154285D01*
X21359761Y-29106666D01*
X21407380Y-29011428D01*
X21407380Y-28773333D01*
X21359761Y-28678095D01*
X21312142Y-28630476D01*
%TO.C,R09*%
X13152380Y-8247142D02*
X12676190Y-7913809D01*
X13152380Y-7675714D02*
X12152380Y-7675714D01*
X12152380Y-8056666D01*
X12200000Y-8151904D01*
X12247619Y-8199523D01*
X12342857Y-8247142D01*
X12485714Y-8247142D01*
X12580952Y-8199523D01*
X12628571Y-8151904D01*
X12676190Y-8056666D01*
X12676190Y-7675714D01*
X12152380Y-8866190D02*
X12152380Y-8961428D01*
X12200000Y-9056666D01*
X12247619Y-9104285D01*
X12342857Y-9151904D01*
X12533333Y-9199523D01*
X12771428Y-9199523D01*
X12961904Y-9151904D01*
X13057142Y-9104285D01*
X13104761Y-9056666D01*
X13152380Y-8961428D01*
X13152380Y-8866190D01*
X13104761Y-8770952D01*
X13057142Y-8723333D01*
X12961904Y-8675714D01*
X12771428Y-8628095D01*
X12533333Y-8628095D01*
X12342857Y-8675714D01*
X12247619Y-8723333D01*
X12200000Y-8770952D01*
X12152380Y-8866190D01*
X13152380Y-9675714D02*
X13152380Y-9866190D01*
X13104761Y-9961428D01*
X13057142Y-10009047D01*
X12914285Y-10104285D01*
X12723809Y-10151904D01*
X12342857Y-10151904D01*
X12247619Y-10104285D01*
X12200000Y-10056666D01*
X12152380Y-9961428D01*
X12152380Y-9770952D01*
X12200000Y-9675714D01*
X12247619Y-9628095D01*
X12342857Y-9580476D01*
X12580952Y-9580476D01*
X12676190Y-9628095D01*
X12723809Y-9675714D01*
X12771428Y-9770952D01*
X12771428Y-9961428D01*
X12723809Y-10056666D01*
X12676190Y-10104285D01*
X12580952Y-10151904D01*
%TO.C,R15*%
X5532380Y-47617142D02*
X5056190Y-47283809D01*
X5532380Y-47045714D02*
X4532380Y-47045714D01*
X4532380Y-47426666D01*
X4580000Y-47521904D01*
X4627619Y-47569523D01*
X4722857Y-47617142D01*
X4865714Y-47617142D01*
X4960952Y-47569523D01*
X5008571Y-47521904D01*
X5056190Y-47426666D01*
X5056190Y-47045714D01*
X5532380Y-48569523D02*
X5532380Y-47998095D01*
X5532380Y-48283809D02*
X4532380Y-48283809D01*
X4675238Y-48188571D01*
X4770476Y-48093333D01*
X4818095Y-47998095D01*
X4532380Y-49474285D02*
X4532380Y-48998095D01*
X5008571Y-48950476D01*
X4960952Y-48998095D01*
X4913333Y-49093333D01*
X4913333Y-49331428D01*
X4960952Y-49426666D01*
X5008571Y-49474285D01*
X5103809Y-49521904D01*
X5341904Y-49521904D01*
X5437142Y-49474285D01*
X5484761Y-49426666D01*
X5532380Y-49331428D01*
X5532380Y-49093333D01*
X5484761Y-48998095D01*
X5437142Y-48950476D01*
%TO.C,R10*%
X15692380Y-8247142D02*
X15216190Y-7913809D01*
X15692380Y-7675714D02*
X14692380Y-7675714D01*
X14692380Y-8056666D01*
X14740000Y-8151904D01*
X14787619Y-8199523D01*
X14882857Y-8247142D01*
X15025714Y-8247142D01*
X15120952Y-8199523D01*
X15168571Y-8151904D01*
X15216190Y-8056666D01*
X15216190Y-7675714D01*
X15692380Y-9199523D02*
X15692380Y-8628095D01*
X15692380Y-8913809D02*
X14692380Y-8913809D01*
X14835238Y-8818571D01*
X14930476Y-8723333D01*
X14978095Y-8628095D01*
X14692380Y-9818571D02*
X14692380Y-9913809D01*
X14740000Y-10009047D01*
X14787619Y-10056666D01*
X14882857Y-10104285D01*
X15073333Y-10151904D01*
X15311428Y-10151904D01*
X15501904Y-10104285D01*
X15597142Y-10056666D01*
X15644761Y-10009047D01*
X15692380Y-9913809D01*
X15692380Y-9818571D01*
X15644761Y-9723333D01*
X15597142Y-9675714D01*
X15501904Y-9628095D01*
X15311428Y-9580476D01*
X15073333Y-9580476D01*
X14882857Y-9628095D01*
X14787619Y-9675714D01*
X14740000Y-9723333D01*
X14692380Y-9818571D01*
%TO.C,R17*%
X9342380Y-47617142D02*
X8866190Y-47283809D01*
X9342380Y-47045714D02*
X8342380Y-47045714D01*
X8342380Y-47426666D01*
X8390000Y-47521904D01*
X8437619Y-47569523D01*
X8532857Y-47617142D01*
X8675714Y-47617142D01*
X8770952Y-47569523D01*
X8818571Y-47521904D01*
X8866190Y-47426666D01*
X8866190Y-47045714D01*
X9342380Y-48569523D02*
X9342380Y-47998095D01*
X9342380Y-48283809D02*
X8342380Y-48283809D01*
X8485238Y-48188571D01*
X8580476Y-48093333D01*
X8628095Y-47998095D01*
X8342380Y-48902857D02*
X8342380Y-49569523D01*
X9342380Y-49140952D01*
%TO.C,C06*%
X20042142Y-27297142D02*
X20089761Y-27249523D01*
X20137380Y-27106666D01*
X20137380Y-27011428D01*
X20089761Y-26868571D01*
X19994523Y-26773333D01*
X19899285Y-26725714D01*
X19708809Y-26678095D01*
X19565952Y-26678095D01*
X19375476Y-26725714D01*
X19280238Y-26773333D01*
X19185000Y-26868571D01*
X19137380Y-27011428D01*
X19137380Y-27106666D01*
X19185000Y-27249523D01*
X19232619Y-27297142D01*
X19137380Y-27916190D02*
X19137380Y-28011428D01*
X19185000Y-28106666D01*
X19232619Y-28154285D01*
X19327857Y-28201904D01*
X19518333Y-28249523D01*
X19756428Y-28249523D01*
X19946904Y-28201904D01*
X20042142Y-28154285D01*
X20089761Y-28106666D01*
X20137380Y-28011428D01*
X20137380Y-27916190D01*
X20089761Y-27820952D01*
X20042142Y-27773333D01*
X19946904Y-27725714D01*
X19756428Y-27678095D01*
X19518333Y-27678095D01*
X19327857Y-27725714D01*
X19232619Y-27773333D01*
X19185000Y-27820952D01*
X19137380Y-27916190D01*
X19137380Y-29106666D02*
X19137380Y-28916190D01*
X19185000Y-28820952D01*
X19232619Y-28773333D01*
X19375476Y-28678095D01*
X19565952Y-28630476D01*
X19946904Y-28630476D01*
X20042142Y-28678095D01*
X20089761Y-28725714D01*
X20137380Y-28820952D01*
X20137380Y-29011428D01*
X20089761Y-29106666D01*
X20042142Y-29154285D01*
X19946904Y-29201904D01*
X19708809Y-29201904D01*
X19613571Y-29154285D01*
X19565952Y-29106666D01*
X19518333Y-29011428D01*
X19518333Y-28820952D01*
X19565952Y-28725714D01*
X19613571Y-28678095D01*
X19708809Y-28630476D01*
%TO.C,R05*%
X23312380Y-34917142D02*
X22836190Y-34583809D01*
X23312380Y-34345714D02*
X22312380Y-34345714D01*
X22312380Y-34726666D01*
X22360000Y-34821904D01*
X22407619Y-34869523D01*
X22502857Y-34917142D01*
X22645714Y-34917142D01*
X22740952Y-34869523D01*
X22788571Y-34821904D01*
X22836190Y-34726666D01*
X22836190Y-34345714D01*
X22312380Y-35536190D02*
X22312380Y-35631428D01*
X22360000Y-35726666D01*
X22407619Y-35774285D01*
X22502857Y-35821904D01*
X22693333Y-35869523D01*
X22931428Y-35869523D01*
X23121904Y-35821904D01*
X23217142Y-35774285D01*
X23264761Y-35726666D01*
X23312380Y-35631428D01*
X23312380Y-35536190D01*
X23264761Y-35440952D01*
X23217142Y-35393333D01*
X23121904Y-35345714D01*
X22931428Y-35298095D01*
X22693333Y-35298095D01*
X22502857Y-35345714D01*
X22407619Y-35393333D01*
X22360000Y-35440952D01*
X22312380Y-35536190D01*
X22312380Y-36774285D02*
X22312380Y-36298095D01*
X22788571Y-36250476D01*
X22740952Y-36298095D01*
X22693333Y-36393333D01*
X22693333Y-36631428D01*
X22740952Y-36726666D01*
X22788571Y-36774285D01*
X22883809Y-36821904D01*
X23121904Y-36821904D01*
X23217142Y-36774285D01*
X23264761Y-36726666D01*
X23312380Y-36631428D01*
X23312380Y-36393333D01*
X23264761Y-36298095D01*
X23217142Y-36250476D01*
D11*
%TO.C,R04*%
X66130000Y-21332936D02*
X66130000Y-24387064D01*
X63410000Y-21332936D02*
X63410000Y-24387064D01*
%TO.C,R13*%
X49787064Y-40550000D02*
X46732936Y-40550000D01*
X49787064Y-43270000D02*
X46732936Y-43270000D01*
%TO.C,R08*%
X49787064Y-35650000D02*
X46732936Y-35650000D01*
X49787064Y-32930000D02*
X46732936Y-32930000D01*
%TO.C,C02*%
X9425000Y-5341252D02*
X9425000Y-4818748D01*
X10895000Y-5341252D02*
X10895000Y-4818748D01*
%TO.C,C03*%
X18515000Y-5341252D02*
X18515000Y-4818748D01*
X17045000Y-5341252D02*
X17045000Y-4818748D01*
%TO.C,C07*%
X13235000Y-28201252D02*
X13235000Y-27678748D01*
X14705000Y-28201252D02*
X14705000Y-27678748D01*
%TO.C,Q01*%
X4130000Y-3580000D02*
X4130000Y-4580000D01*
X4130000Y-6630000D02*
X5980000Y-6630000D01*
X4130000Y-5580000D02*
X4130000Y-6630000D01*
X4150000Y-3570000D02*
X6580000Y-3570000D01*
%TO.C,R16*%
X14505000Y-40867064D02*
X14505000Y-40412936D01*
X15975000Y-40867064D02*
X15975000Y-40412936D01*
%TO.C,C01*%
X17245000Y-28201252D02*
X17245000Y-27678748D01*
X15775000Y-28201252D02*
X15775000Y-27678748D01*
%TO.C,C04*%
X7085000Y-28201252D02*
X7085000Y-27678748D01*
X5615000Y-28201252D02*
X5615000Y-27678748D01*
%TO.C,R14*%
X17045000Y-40867064D02*
X17045000Y-40412936D01*
X18515000Y-40867064D02*
X18515000Y-40412936D01*
%TO.C,R12*%
X23595000Y-40867064D02*
X23595000Y-40412936D01*
X22125000Y-40867064D02*
X22125000Y-40412936D01*
%TO.C,R07*%
X5815000Y-12927064D02*
X5815000Y-12472936D01*
X4345000Y-12927064D02*
X4345000Y-12472936D01*
%TO.C,C05*%
X10695000Y-28201252D02*
X10695000Y-27678748D01*
X12165000Y-28201252D02*
X12165000Y-27678748D01*
%TO.C,R09*%
X11965000Y-5307064D02*
X11965000Y-4852936D01*
X13435000Y-5307064D02*
X13435000Y-4852936D01*
%TO.C,R15*%
X5815000Y-44677064D02*
X5815000Y-44222936D01*
X4345000Y-44677064D02*
X4345000Y-44222936D01*
%TO.C,R10*%
X15975000Y-5307064D02*
X15975000Y-4852936D01*
X14505000Y-5307064D02*
X14505000Y-4852936D01*
%TO.C,R17*%
X9625000Y-44677064D02*
X9625000Y-44222936D01*
X8155000Y-44677064D02*
X8155000Y-44222936D01*
%TO.C,C06*%
X8155000Y-28201252D02*
X8155000Y-27678748D01*
X9625000Y-28201252D02*
X9625000Y-27678748D01*
%TO.C,R05*%
X22125000Y-31977064D02*
X22125000Y-31522936D01*
X23595000Y-31977064D02*
X23595000Y-31522936D01*
%TD*%
M02*
