M48
; DRILL file {KiCad (6.0.6)} date Wed Aug 31 19:36:34 2022
; FORMAT={-:-/ absolute / inch / decimal}
; #@! TF.CreationDate,2022-08-31T19:36:34-05:00
; #@! TF.GenerationSoftware,Kicad,Pcbnew,(6.0.6)
; #@! TF.FileFunction,MixedPlating,1,2
FMAT,2
INCH
; #@! TA.AperFunction,Plated,PTH,ComponentDrill
T1C0.0276
; #@! TA.AperFunction,Plated,PTH,ComponentDrill
T2C0.0315
; #@! TA.AperFunction,Plated,PTH,ComponentDrill
T3C0.0354
; #@! TA.AperFunction,Plated,PTH,ComponentDrill
T4C0.0394
; #@! TA.AperFunction,Plated,PTH,ComponentDrill
T5C0.0402
; #@! TA.AperFunction,Plated,PTH,ComponentDrill
T6C0.0433
; #@! TA.AperFunction,Plated,PTH,ComponentDrill
T7C0.0472
; #@! TA.AperFunction,Plated,PTH,ComponentDrill
T8C0.0512
; #@! TA.AperFunction,Plated,PTH,ComponentDrill
T9C0.0591
%
G90
G05
T1
X2.7Y-1.35
X3.1Y-1.35
T2
X0.25Y-0.7
X0.35Y-0.95
X0.35Y-1.25
X0.45Y-0.95
X0.45Y-1.25
X0.55Y-0.95
X0.55Y-1.25
X0.65Y-0.7
X0.65Y-0.95
X0.65Y-1.25
X0.95Y-0.6
X1.0994Y-1.2506
X1.0994Y-1.3506
X1.0994Y-1.4506
X1.1Y-1.65
X1.1Y-1.75
X1.1Y-1.85
X1.35Y-0.6
X1.3994Y-1.2506
X1.3994Y-1.3506
X1.3994Y-1.4506
X1.4Y-1.65
X1.4Y-1.75
X1.4Y-1.85
X2.0Y-0.45
X2.0Y-0.85
X2.1504Y-0.2
X2.3Y-0.2
T3
X0.25Y-0.8
X0.45Y-0.5
X0.65Y-0.8
X0.85Y-0.5
X0.95Y-0.35
X0.95Y-0.45
X0.95Y-0.7
X0.95Y-0.8
X1.35Y-0.35
X1.35Y-0.45
X1.35Y-0.7
X1.35Y-0.8
T4
X0.95Y-0.2
X1.45Y-0.2
X2.7Y-1.6047
X2.7Y-1.9
X2.95Y-1.4563
X2.95Y-1.85
X3.05Y-0.2563
X3.05Y-0.65
X3.2Y-0.65
X3.2Y-1.55
T5
X0.25Y-1.55
X0.35Y-1.55
X0.45Y-1.55
T6
X2.2Y-0.4594
X2.2Y-1.05
X3.4Y-0.55
X3.4Y-0.75
X3.4Y-1.45
X3.4Y-1.65
T7
X1.9Y-1.05
X1.9Y-1.85
X2.5Y-1.15
X2.5Y-1.95
X2.7Y-0.1142
X2.7Y-1.0
T8
X4.05Y-0.8
X4.05Y-1.2
X4.05Y-1.4
X4.05Y-1.6
X4.25Y-0.8
X4.25Y-1.2
X4.25Y-1.4
X4.25Y-1.6
T9
X2.85Y-1.2
X3.25Y-1.2
T0
M30
