%TF.GenerationSoftware,KiCad,Pcbnew,(6.0.6)*%
%TF.CreationDate,2022-08-31T19:42:32-05:00*%
%TF.ProjectId,Lavadora,4c617661-646f-4726-912e-6b696361645f,rev?*%
%TF.SameCoordinates,Original*%
%TF.FileFunction,Legend,Top*%
%TF.FilePolarity,Positive*%
%FSLAX46Y46*%
G04 Gerber Fmt 4.6, Leading zero omitted, Abs format (unit mm)*
G04 Created by KiCad (PCBNEW (6.0.6)) date 2022-08-31 19:42:32*
%MOMM*%
%LPD*%
G01*
G04 APERTURE LIST*
%ADD10C,0.150000*%
%ADD11C,0.120000*%
G04 APERTURE END LIST*
D10*
X80946666Y-33742380D02*
X80946666Y-34456666D01*
X80899047Y-34599523D01*
X80803809Y-34694761D01*
X80660952Y-34742380D01*
X80565714Y-34742380D01*
X81946666Y-34742380D02*
X81375238Y-34742380D01*
X81660952Y-34742380D02*
X81660952Y-33742380D01*
X81565714Y-33885238D01*
X81470476Y-33980476D01*
X81375238Y-34028095D01*
%TO.C,P4*%
X111021904Y-41092380D02*
X111021904Y-40092380D01*
X111402857Y-40092380D01*
X111498095Y-40140000D01*
X111545714Y-40187619D01*
X111593333Y-40282857D01*
X111593333Y-40425714D01*
X111545714Y-40520952D01*
X111498095Y-40568571D01*
X111402857Y-40616190D01*
X111021904Y-40616190D01*
X112450476Y-40425714D02*
X112450476Y-41092380D01*
X112212380Y-40044761D02*
X111974285Y-40759047D01*
X112593333Y-40759047D01*
%TO.C,P3*%
X111021904Y-36012380D02*
X111021904Y-35012380D01*
X111402857Y-35012380D01*
X111498095Y-35060000D01*
X111545714Y-35107619D01*
X111593333Y-35202857D01*
X111593333Y-35345714D01*
X111545714Y-35440952D01*
X111498095Y-35488571D01*
X111402857Y-35536190D01*
X111021904Y-35536190D01*
X111926666Y-35012380D02*
X112545714Y-35012380D01*
X112212380Y-35393333D01*
X112355238Y-35393333D01*
X112450476Y-35440952D01*
X112498095Y-35488571D01*
X112545714Y-35583809D01*
X112545714Y-35821904D01*
X112498095Y-35917142D01*
X112450476Y-35964761D01*
X112355238Y-36012380D01*
X112069523Y-36012380D01*
X111974285Y-35964761D01*
X111926666Y-35917142D01*
%TO.C,P2*%
X111021904Y-30932380D02*
X111021904Y-29932380D01*
X111402857Y-29932380D01*
X111498095Y-29980000D01*
X111545714Y-30027619D01*
X111593333Y-30122857D01*
X111593333Y-30265714D01*
X111545714Y-30360952D01*
X111498095Y-30408571D01*
X111402857Y-30456190D01*
X111021904Y-30456190D01*
X111974285Y-30027619D02*
X112021904Y-29980000D01*
X112117142Y-29932380D01*
X112355238Y-29932380D01*
X112450476Y-29980000D01*
X112498095Y-30027619D01*
X112545714Y-30122857D01*
X112545714Y-30218095D01*
X112498095Y-30360952D01*
X111926666Y-30932380D01*
X112545714Y-30932380D01*
%TO.C,P1*%
X111021904Y-20772380D02*
X111021904Y-19772380D01*
X111402857Y-19772380D01*
X111498095Y-19820000D01*
X111545714Y-19867619D01*
X111593333Y-19962857D01*
X111593333Y-20105714D01*
X111545714Y-20200952D01*
X111498095Y-20248571D01*
X111402857Y-20296190D01*
X111021904Y-20296190D01*
X112545714Y-20772380D02*
X111974285Y-20772380D01*
X112260000Y-20772380D02*
X112260000Y-19772380D01*
X112164761Y-19915238D01*
X112069523Y-20010476D01*
X111974285Y-20058095D01*
%TO.C,SW1*%
X81216666Y-19454761D02*
X81359523Y-19502380D01*
X81597619Y-19502380D01*
X81692857Y-19454761D01*
X81740476Y-19407142D01*
X81788095Y-19311904D01*
X81788095Y-19216666D01*
X81740476Y-19121428D01*
X81692857Y-19073809D01*
X81597619Y-19026190D01*
X81407142Y-18978571D01*
X81311904Y-18930952D01*
X81264285Y-18883333D01*
X81216666Y-18788095D01*
X81216666Y-18692857D01*
X81264285Y-18597619D01*
X81311904Y-18550000D01*
X81407142Y-18502380D01*
X81645238Y-18502380D01*
X81788095Y-18550000D01*
X82121428Y-18502380D02*
X82359523Y-19502380D01*
X82550000Y-18788095D01*
X82740476Y-19502380D01*
X82978571Y-18502380D01*
X83883333Y-19502380D02*
X83311904Y-19502380D01*
X83597619Y-19502380D02*
X83597619Y-18502380D01*
X83502380Y-18645238D01*
X83407142Y-18740476D01*
X83311904Y-18788095D01*
%TO.C,E*%
X74715714Y-30408571D02*
X75049047Y-30408571D01*
X75191904Y-30932380D02*
X74715714Y-30932380D01*
X74715714Y-29932380D01*
X75191904Y-29932380D01*
%TO.C,D*%
X79748095Y-30932380D02*
X79748095Y-29932380D01*
X79986190Y-29932380D01*
X80129047Y-29980000D01*
X80224285Y-30075238D01*
X80271904Y-30170476D01*
X80319523Y-30360952D01*
X80319523Y-30503809D01*
X80271904Y-30694285D01*
X80224285Y-30789523D01*
X80129047Y-30884761D01*
X79986190Y-30932380D01*
X79748095Y-30932380D01*
%TO.C,SW2*%
X81216666Y-42314761D02*
X81359523Y-42362380D01*
X81597619Y-42362380D01*
X81692857Y-42314761D01*
X81740476Y-42267142D01*
X81788095Y-42171904D01*
X81788095Y-42076666D01*
X81740476Y-41981428D01*
X81692857Y-41933809D01*
X81597619Y-41886190D01*
X81407142Y-41838571D01*
X81311904Y-41790952D01*
X81264285Y-41743333D01*
X81216666Y-41648095D01*
X81216666Y-41552857D01*
X81264285Y-41457619D01*
X81311904Y-41410000D01*
X81407142Y-41362380D01*
X81645238Y-41362380D01*
X81788095Y-41410000D01*
X82121428Y-41362380D02*
X82359523Y-42362380D01*
X82550000Y-41648095D01*
X82740476Y-42362380D01*
X82978571Y-41362380D01*
X83311904Y-41457619D02*
X83359523Y-41410000D01*
X83454761Y-41362380D01*
X83692857Y-41362380D01*
X83788095Y-41410000D01*
X83835714Y-41457619D01*
X83883333Y-41552857D01*
X83883333Y-41648095D01*
X83835714Y-41790952D01*
X83264285Y-42362380D01*
X83883333Y-42362380D01*
%TO.C,CRF2*%
X76374761Y-4167142D02*
X76327142Y-4214761D01*
X76184285Y-4262380D01*
X76089047Y-4262380D01*
X75946190Y-4214761D01*
X75850952Y-4119523D01*
X75803333Y-4024285D01*
X75755714Y-3833809D01*
X75755714Y-3690952D01*
X75803333Y-3500476D01*
X75850952Y-3405238D01*
X75946190Y-3310000D01*
X76089047Y-3262380D01*
X76184285Y-3262380D01*
X76327142Y-3310000D01*
X76374761Y-3357619D01*
X77374761Y-4262380D02*
X77041428Y-3786190D01*
X76803333Y-4262380D02*
X76803333Y-3262380D01*
X77184285Y-3262380D01*
X77279523Y-3310000D01*
X77327142Y-3357619D01*
X77374761Y-3452857D01*
X77374761Y-3595714D01*
X77327142Y-3690952D01*
X77279523Y-3738571D01*
X77184285Y-3786190D01*
X76803333Y-3786190D01*
X78136666Y-3738571D02*
X77803333Y-3738571D01*
X77803333Y-4262380D02*
X77803333Y-3262380D01*
X78279523Y-3262380D01*
X78612857Y-3357619D02*
X78660476Y-3310000D01*
X78755714Y-3262380D01*
X78993809Y-3262380D01*
X79089047Y-3310000D01*
X79136666Y-3357619D01*
X79184285Y-3452857D01*
X79184285Y-3548095D01*
X79136666Y-3690952D01*
X78565238Y-4262380D01*
X79184285Y-4262380D01*
%TO.C,VAR1*%
X71921904Y-48982380D02*
X72255238Y-49982380D01*
X72588571Y-48982380D01*
X72874285Y-49696666D02*
X73350476Y-49696666D01*
X72779047Y-49982380D02*
X73112380Y-48982380D01*
X73445714Y-49982380D01*
X74350476Y-49982380D02*
X74017142Y-49506190D01*
X73779047Y-49982380D02*
X73779047Y-48982380D01*
X74160000Y-48982380D01*
X74255238Y-49030000D01*
X74302857Y-49077619D01*
X74350476Y-49172857D01*
X74350476Y-49315714D01*
X74302857Y-49410952D01*
X74255238Y-49458571D01*
X74160000Y-49506190D01*
X73779047Y-49506190D01*
X75302857Y-49982380D02*
X74731428Y-49982380D01*
X75017142Y-49982380D02*
X75017142Y-48982380D01*
X74921904Y-49125238D01*
X74826666Y-49220476D01*
X74731428Y-49268095D01*
%TO.C,CRF3*%
X78914761Y-46077142D02*
X78867142Y-46124761D01*
X78724285Y-46172380D01*
X78629047Y-46172380D01*
X78486190Y-46124761D01*
X78390952Y-46029523D01*
X78343333Y-45934285D01*
X78295714Y-45743809D01*
X78295714Y-45600952D01*
X78343333Y-45410476D01*
X78390952Y-45315238D01*
X78486190Y-45220000D01*
X78629047Y-45172380D01*
X78724285Y-45172380D01*
X78867142Y-45220000D01*
X78914761Y-45267619D01*
X79914761Y-46172380D02*
X79581428Y-45696190D01*
X79343333Y-46172380D02*
X79343333Y-45172380D01*
X79724285Y-45172380D01*
X79819523Y-45220000D01*
X79867142Y-45267619D01*
X79914761Y-45362857D01*
X79914761Y-45505714D01*
X79867142Y-45600952D01*
X79819523Y-45648571D01*
X79724285Y-45696190D01*
X79343333Y-45696190D01*
X80676666Y-45648571D02*
X80343333Y-45648571D01*
X80343333Y-46172380D02*
X80343333Y-45172380D01*
X80819523Y-45172380D01*
X81105238Y-45172380D02*
X81724285Y-45172380D01*
X81390952Y-45553333D01*
X81533809Y-45553333D01*
X81629047Y-45600952D01*
X81676666Y-45648571D01*
X81724285Y-45743809D01*
X81724285Y-45981904D01*
X81676666Y-46077142D01*
X81629047Y-46124761D01*
X81533809Y-46172380D01*
X81248095Y-46172380D01*
X81152857Y-46124761D01*
X81105238Y-46077142D01*
%TO.C,R11*%
X3167142Y-18232380D02*
X2833809Y-17756190D01*
X2595714Y-18232380D02*
X2595714Y-17232380D01*
X2976666Y-17232380D01*
X3071904Y-17280000D01*
X3119523Y-17327619D01*
X3167142Y-17422857D01*
X3167142Y-17565714D01*
X3119523Y-17660952D01*
X3071904Y-17708571D01*
X2976666Y-17756190D01*
X2595714Y-17756190D01*
X4119523Y-18232380D02*
X3548095Y-18232380D01*
X3833809Y-18232380D02*
X3833809Y-17232380D01*
X3738571Y-17375238D01*
X3643333Y-17470476D01*
X3548095Y-17518095D01*
X5071904Y-18232380D02*
X4500476Y-18232380D01*
X4786190Y-18232380D02*
X4786190Y-17232380D01*
X4690952Y-17375238D01*
X4595714Y-17470476D01*
X4500476Y-17518095D01*
%TO.C,R01*%
X52522380Y-33662857D02*
X52046190Y-33996190D01*
X52522380Y-34234285D02*
X51522380Y-34234285D01*
X51522380Y-33853333D01*
X51570000Y-33758095D01*
X51617619Y-33710476D01*
X51712857Y-33662857D01*
X51855714Y-33662857D01*
X51950952Y-33710476D01*
X51998571Y-33758095D01*
X52046190Y-33853333D01*
X52046190Y-34234285D01*
X51522380Y-33043809D02*
X51522380Y-32948571D01*
X51570000Y-32853333D01*
X51617619Y-32805714D01*
X51712857Y-32758095D01*
X51903333Y-32710476D01*
X52141428Y-32710476D01*
X52331904Y-32758095D01*
X52427142Y-32805714D01*
X52474761Y-32853333D01*
X52522380Y-32948571D01*
X52522380Y-33043809D01*
X52474761Y-33139047D01*
X52427142Y-33186666D01*
X52331904Y-33234285D01*
X52141428Y-33281904D01*
X51903333Y-33281904D01*
X51712857Y-33234285D01*
X51617619Y-33186666D01*
X51570000Y-33139047D01*
X51522380Y-33043809D01*
X52522380Y-31758095D02*
X52522380Y-32329523D01*
X52522380Y-32043809D02*
X51522380Y-32043809D01*
X51665238Y-32139047D01*
X51760476Y-32234285D01*
X51808095Y-32329523D01*
%TO.C,R02*%
X51252380Y-9532857D02*
X50776190Y-9866190D01*
X51252380Y-10104285D02*
X50252380Y-10104285D01*
X50252380Y-9723333D01*
X50300000Y-9628095D01*
X50347619Y-9580476D01*
X50442857Y-9532857D01*
X50585714Y-9532857D01*
X50680952Y-9580476D01*
X50728571Y-9628095D01*
X50776190Y-9723333D01*
X50776190Y-10104285D01*
X50252380Y-8913809D02*
X50252380Y-8818571D01*
X50300000Y-8723333D01*
X50347619Y-8675714D01*
X50442857Y-8628095D01*
X50633333Y-8580476D01*
X50871428Y-8580476D01*
X51061904Y-8628095D01*
X51157142Y-8675714D01*
X51204761Y-8723333D01*
X51252380Y-8818571D01*
X51252380Y-8913809D01*
X51204761Y-9009047D01*
X51157142Y-9056666D01*
X51061904Y-9104285D01*
X50871428Y-9151904D01*
X50633333Y-9151904D01*
X50442857Y-9104285D01*
X50347619Y-9056666D01*
X50300000Y-9009047D01*
X50252380Y-8913809D01*
X50347619Y-8199523D02*
X50300000Y-8151904D01*
X50252380Y-8056666D01*
X50252380Y-7818571D01*
X50300000Y-7723333D01*
X50347619Y-7675714D01*
X50442857Y-7628095D01*
X50538095Y-7628095D01*
X50680952Y-7675714D01*
X51252380Y-8247142D01*
X51252380Y-7628095D01*
%TO.C,D02*%
X35615714Y-20772380D02*
X35615714Y-19772380D01*
X35853809Y-19772380D01*
X35996666Y-19820000D01*
X36091904Y-19915238D01*
X36139523Y-20010476D01*
X36187142Y-20200952D01*
X36187142Y-20343809D01*
X36139523Y-20534285D01*
X36091904Y-20629523D01*
X35996666Y-20724761D01*
X35853809Y-20772380D01*
X35615714Y-20772380D01*
X36806190Y-19772380D02*
X36901428Y-19772380D01*
X36996666Y-19820000D01*
X37044285Y-19867619D01*
X37091904Y-19962857D01*
X37139523Y-20153333D01*
X37139523Y-20391428D01*
X37091904Y-20581904D01*
X37044285Y-20677142D01*
X36996666Y-20724761D01*
X36901428Y-20772380D01*
X36806190Y-20772380D01*
X36710952Y-20724761D01*
X36663333Y-20677142D01*
X36615714Y-20581904D01*
X36568095Y-20391428D01*
X36568095Y-20153333D01*
X36615714Y-19962857D01*
X36663333Y-19867619D01*
X36710952Y-19820000D01*
X36806190Y-19772380D01*
X37520476Y-19867619D02*
X37568095Y-19820000D01*
X37663333Y-19772380D01*
X37901428Y-19772380D01*
X37996666Y-19820000D01*
X38044285Y-19867619D01*
X38091904Y-19962857D01*
X38091904Y-20058095D01*
X38044285Y-20200952D01*
X37472857Y-20772380D01*
X38091904Y-20772380D01*
%TO.C,CN1*%
X8159523Y-36327142D02*
X8111904Y-36374761D01*
X7969047Y-36422380D01*
X7873809Y-36422380D01*
X7730952Y-36374761D01*
X7635714Y-36279523D01*
X7588095Y-36184285D01*
X7540476Y-35993809D01*
X7540476Y-35850952D01*
X7588095Y-35660476D01*
X7635714Y-35565238D01*
X7730952Y-35470000D01*
X7873809Y-35422380D01*
X7969047Y-35422380D01*
X8111904Y-35470000D01*
X8159523Y-35517619D01*
X8588095Y-36422380D02*
X8588095Y-35422380D01*
X9159523Y-36422380D01*
X9159523Y-35422380D01*
X10159523Y-36422380D02*
X9588095Y-36422380D01*
X9873809Y-36422380D02*
X9873809Y-35422380D01*
X9778571Y-35565238D01*
X9683333Y-35660476D01*
X9588095Y-35708095D01*
%TO.C,CE1*%
X50180952Y-2897142D02*
X50133333Y-2944761D01*
X49990476Y-2992380D01*
X49895238Y-2992380D01*
X49752380Y-2944761D01*
X49657142Y-2849523D01*
X49609523Y-2754285D01*
X49561904Y-2563809D01*
X49561904Y-2420952D01*
X49609523Y-2230476D01*
X49657142Y-2135238D01*
X49752380Y-2040000D01*
X49895238Y-1992380D01*
X49990476Y-1992380D01*
X50133333Y-2040000D01*
X50180952Y-2087619D01*
X50609523Y-2468571D02*
X50942857Y-2468571D01*
X51085714Y-2992380D02*
X50609523Y-2992380D01*
X50609523Y-1992380D01*
X51085714Y-1992380D01*
X52038095Y-2992380D02*
X51466666Y-2992380D01*
X51752380Y-2992380D02*
X51752380Y-1992380D01*
X51657142Y-2135238D01*
X51561904Y-2230476D01*
X51466666Y-2278095D01*
%TO.C,MOC2*%
X37536666Y-44902380D02*
X37536666Y-43902380D01*
X37870000Y-44616666D01*
X38203333Y-43902380D01*
X38203333Y-44902380D01*
X38870000Y-43902380D02*
X39060476Y-43902380D01*
X39155714Y-43950000D01*
X39250952Y-44045238D01*
X39298571Y-44235714D01*
X39298571Y-44569047D01*
X39250952Y-44759523D01*
X39155714Y-44854761D01*
X39060476Y-44902380D01*
X38870000Y-44902380D01*
X38774761Y-44854761D01*
X38679523Y-44759523D01*
X38631904Y-44569047D01*
X38631904Y-44235714D01*
X38679523Y-44045238D01*
X38774761Y-43950000D01*
X38870000Y-43902380D01*
X40298571Y-44807142D02*
X40250952Y-44854761D01*
X40108095Y-44902380D01*
X40012857Y-44902380D01*
X39870000Y-44854761D01*
X39774761Y-44759523D01*
X39727142Y-44664285D01*
X39679523Y-44473809D01*
X39679523Y-44330952D01*
X39727142Y-44140476D01*
X39774761Y-44045238D01*
X39870000Y-43950000D01*
X40012857Y-43902380D01*
X40108095Y-43902380D01*
X40250952Y-43950000D01*
X40298571Y-43997619D01*
X40679523Y-43997619D02*
X40727142Y-43950000D01*
X40822380Y-43902380D01*
X41060476Y-43902380D01*
X41155714Y-43950000D01*
X41203333Y-43997619D01*
X41250952Y-44092857D01*
X41250952Y-44188095D01*
X41203333Y-44330952D01*
X40631904Y-44902380D01*
X41250952Y-44902380D01*
%TO.C,D01*%
X35615714Y-9342380D02*
X35615714Y-8342380D01*
X35853809Y-8342380D01*
X35996666Y-8390000D01*
X36091904Y-8485238D01*
X36139523Y-8580476D01*
X36187142Y-8770952D01*
X36187142Y-8913809D01*
X36139523Y-9104285D01*
X36091904Y-9199523D01*
X35996666Y-9294761D01*
X35853809Y-9342380D01*
X35615714Y-9342380D01*
X36806190Y-8342380D02*
X36901428Y-8342380D01*
X36996666Y-8390000D01*
X37044285Y-8437619D01*
X37091904Y-8532857D01*
X37139523Y-8723333D01*
X37139523Y-8961428D01*
X37091904Y-9151904D01*
X37044285Y-9247142D01*
X36996666Y-9294761D01*
X36901428Y-9342380D01*
X36806190Y-9342380D01*
X36710952Y-9294761D01*
X36663333Y-9247142D01*
X36615714Y-9151904D01*
X36568095Y-8961428D01*
X36568095Y-8723333D01*
X36615714Y-8532857D01*
X36663333Y-8437619D01*
X36710952Y-8390000D01*
X36806190Y-8342380D01*
X38091904Y-9342380D02*
X37520476Y-9342380D01*
X37806190Y-9342380D02*
X37806190Y-8342380D01*
X37710952Y-8485238D01*
X37615714Y-8580476D01*
X37520476Y-8628095D01*
%TO.C,MOC1*%
X37521655Y-34757391D02*
X37521655Y-33757391D01*
X37854989Y-34471677D01*
X38188322Y-33757391D01*
X38188322Y-34757391D01*
X38854989Y-33757391D02*
X39045465Y-33757391D01*
X39140703Y-33805011D01*
X39235941Y-33900249D01*
X39283560Y-34090725D01*
X39283560Y-34424058D01*
X39235941Y-34614534D01*
X39140703Y-34709772D01*
X39045465Y-34757391D01*
X38854989Y-34757391D01*
X38759750Y-34709772D01*
X38664512Y-34614534D01*
X38616893Y-34424058D01*
X38616893Y-34090725D01*
X38664512Y-33900249D01*
X38759750Y-33805011D01*
X38854989Y-33757391D01*
X40283560Y-34662153D02*
X40235941Y-34709772D01*
X40093084Y-34757391D01*
X39997846Y-34757391D01*
X39854989Y-34709772D01*
X39759750Y-34614534D01*
X39712131Y-34519296D01*
X39664512Y-34328820D01*
X39664512Y-34185963D01*
X39712131Y-33995487D01*
X39759750Y-33900249D01*
X39854989Y-33805011D01*
X39997846Y-33757391D01*
X40093084Y-33757391D01*
X40235941Y-33805011D01*
X40283560Y-33852630D01*
X41235941Y-34757391D02*
X40664512Y-34757391D01*
X40950227Y-34757391D02*
X40950227Y-33757391D01*
X40854989Y-33900249D01*
X40759750Y-33995487D01*
X40664512Y-34043106D01*
%TO.C,D06*%
X2595714Y-20772380D02*
X2595714Y-19772380D01*
X2833809Y-19772380D01*
X2976666Y-19820000D01*
X3071904Y-19915238D01*
X3119523Y-20010476D01*
X3167142Y-20200952D01*
X3167142Y-20343809D01*
X3119523Y-20534285D01*
X3071904Y-20629523D01*
X2976666Y-20724761D01*
X2833809Y-20772380D01*
X2595714Y-20772380D01*
X3786190Y-19772380D02*
X3881428Y-19772380D01*
X3976666Y-19820000D01*
X4024285Y-19867619D01*
X4071904Y-19962857D01*
X4119523Y-20153333D01*
X4119523Y-20391428D01*
X4071904Y-20581904D01*
X4024285Y-20677142D01*
X3976666Y-20724761D01*
X3881428Y-20772380D01*
X3786190Y-20772380D01*
X3690952Y-20724761D01*
X3643333Y-20677142D01*
X3595714Y-20581904D01*
X3548095Y-20391428D01*
X3548095Y-20153333D01*
X3595714Y-19962857D01*
X3643333Y-19867619D01*
X3690952Y-19820000D01*
X3786190Y-19772380D01*
X4976666Y-19772380D02*
X4786190Y-19772380D01*
X4690952Y-19820000D01*
X4643333Y-19867619D01*
X4548095Y-20010476D01*
X4500476Y-20200952D01*
X4500476Y-20581904D01*
X4548095Y-20677142D01*
X4595714Y-20724761D01*
X4690952Y-20772380D01*
X4881428Y-20772380D01*
X4976666Y-20724761D01*
X5024285Y-20677142D01*
X5071904Y-20581904D01*
X5071904Y-20343809D01*
X5024285Y-20248571D01*
X4976666Y-20200952D01*
X4881428Y-20153333D01*
X4690952Y-20153333D01*
X4595714Y-20200952D01*
X4548095Y-20248571D01*
X4500476Y-20343809D01*
%TO.C,R06*%
X36187142Y-15692380D02*
X35853809Y-15216190D01*
X35615714Y-15692380D02*
X35615714Y-14692380D01*
X35996666Y-14692380D01*
X36091904Y-14740000D01*
X36139523Y-14787619D01*
X36187142Y-14882857D01*
X36187142Y-15025714D01*
X36139523Y-15120952D01*
X36091904Y-15168571D01*
X35996666Y-15216190D01*
X35615714Y-15216190D01*
X36806190Y-14692380D02*
X36901428Y-14692380D01*
X36996666Y-14740000D01*
X37044285Y-14787619D01*
X37091904Y-14882857D01*
X37139523Y-15073333D01*
X37139523Y-15311428D01*
X37091904Y-15501904D01*
X37044285Y-15597142D01*
X36996666Y-15644761D01*
X36901428Y-15692380D01*
X36806190Y-15692380D01*
X36710952Y-15644761D01*
X36663333Y-15597142D01*
X36615714Y-15501904D01*
X36568095Y-15311428D01*
X36568095Y-15073333D01*
X36615714Y-14882857D01*
X36663333Y-14787619D01*
X36710952Y-14740000D01*
X36806190Y-14692380D01*
X37996666Y-14692380D02*
X37806190Y-14692380D01*
X37710952Y-14740000D01*
X37663333Y-14787619D01*
X37568095Y-14930476D01*
X37520476Y-15120952D01*
X37520476Y-15501904D01*
X37568095Y-15597142D01*
X37615714Y-15644761D01*
X37710952Y-15692380D01*
X37901428Y-15692380D01*
X37996666Y-15644761D01*
X38044285Y-15597142D01*
X38091904Y-15501904D01*
X38091904Y-15263809D01*
X38044285Y-15168571D01*
X37996666Y-15120952D01*
X37901428Y-15073333D01*
X37710952Y-15073333D01*
X37615714Y-15120952D01*
X37568095Y-15168571D01*
X37520476Y-15263809D01*
%TO.C,D03*%
X35615714Y-11882380D02*
X35615714Y-10882380D01*
X35853809Y-10882380D01*
X35996666Y-10930000D01*
X36091904Y-11025238D01*
X36139523Y-11120476D01*
X36187142Y-11310952D01*
X36187142Y-11453809D01*
X36139523Y-11644285D01*
X36091904Y-11739523D01*
X35996666Y-11834761D01*
X35853809Y-11882380D01*
X35615714Y-11882380D01*
X36806190Y-10882380D02*
X36901428Y-10882380D01*
X36996666Y-10930000D01*
X37044285Y-10977619D01*
X37091904Y-11072857D01*
X37139523Y-11263333D01*
X37139523Y-11501428D01*
X37091904Y-11691904D01*
X37044285Y-11787142D01*
X36996666Y-11834761D01*
X36901428Y-11882380D01*
X36806190Y-11882380D01*
X36710952Y-11834761D01*
X36663333Y-11787142D01*
X36615714Y-11691904D01*
X36568095Y-11501428D01*
X36568095Y-11263333D01*
X36615714Y-11072857D01*
X36663333Y-10977619D01*
X36710952Y-10930000D01*
X36806190Y-10882380D01*
X37472857Y-10882380D02*
X38091904Y-10882380D01*
X37758571Y-11263333D01*
X37901428Y-11263333D01*
X37996666Y-11310952D01*
X38044285Y-11358571D01*
X38091904Y-11453809D01*
X38091904Y-11691904D01*
X38044285Y-11787142D01*
X37996666Y-11834761D01*
X37901428Y-11882380D01*
X37615714Y-11882380D01*
X37520476Y-11834761D01*
X37472857Y-11787142D01*
%TO.C,D04*%
X35615714Y-18232380D02*
X35615714Y-17232380D01*
X35853809Y-17232380D01*
X35996666Y-17280000D01*
X36091904Y-17375238D01*
X36139523Y-17470476D01*
X36187142Y-17660952D01*
X36187142Y-17803809D01*
X36139523Y-17994285D01*
X36091904Y-18089523D01*
X35996666Y-18184761D01*
X35853809Y-18232380D01*
X35615714Y-18232380D01*
X36806190Y-17232380D02*
X36901428Y-17232380D01*
X36996666Y-17280000D01*
X37044285Y-17327619D01*
X37091904Y-17422857D01*
X37139523Y-17613333D01*
X37139523Y-17851428D01*
X37091904Y-18041904D01*
X37044285Y-18137142D01*
X36996666Y-18184761D01*
X36901428Y-18232380D01*
X36806190Y-18232380D01*
X36710952Y-18184761D01*
X36663333Y-18137142D01*
X36615714Y-18041904D01*
X36568095Y-17851428D01*
X36568095Y-17613333D01*
X36615714Y-17422857D01*
X36663333Y-17327619D01*
X36710952Y-17280000D01*
X36806190Y-17232380D01*
X37996666Y-17565714D02*
X37996666Y-18232380D01*
X37758571Y-17184761D02*
X37520476Y-17899047D01*
X38139523Y-17899047D01*
%TO.C,CRF1*%
X66214761Y-29567142D02*
X66167142Y-29614761D01*
X66024285Y-29662380D01*
X65929047Y-29662380D01*
X65786190Y-29614761D01*
X65690952Y-29519523D01*
X65643333Y-29424285D01*
X65595714Y-29233809D01*
X65595714Y-29090952D01*
X65643333Y-28900476D01*
X65690952Y-28805238D01*
X65786190Y-28710000D01*
X65929047Y-28662380D01*
X66024285Y-28662380D01*
X66167142Y-28710000D01*
X66214761Y-28757619D01*
X67214761Y-29662380D02*
X66881428Y-29186190D01*
X66643333Y-29662380D02*
X66643333Y-28662380D01*
X67024285Y-28662380D01*
X67119523Y-28710000D01*
X67167142Y-28757619D01*
X67214761Y-28852857D01*
X67214761Y-28995714D01*
X67167142Y-29090952D01*
X67119523Y-29138571D01*
X67024285Y-29186190D01*
X66643333Y-29186190D01*
X67976666Y-29138571D02*
X67643333Y-29138571D01*
X67643333Y-29662380D02*
X67643333Y-28662380D01*
X68119523Y-28662380D01*
X69024285Y-29662380D02*
X68452857Y-29662380D01*
X68738571Y-29662380D02*
X68738571Y-28662380D01*
X68643333Y-28805238D01*
X68548095Y-28900476D01*
X68452857Y-28948095D01*
%TO.C,D05*%
X7675714Y-13152380D02*
X7675714Y-12152380D01*
X7913809Y-12152380D01*
X8056666Y-12200000D01*
X8151904Y-12295238D01*
X8199523Y-12390476D01*
X8247142Y-12580952D01*
X8247142Y-12723809D01*
X8199523Y-12914285D01*
X8151904Y-13009523D01*
X8056666Y-13104761D01*
X7913809Y-13152380D01*
X7675714Y-13152380D01*
X8866190Y-12152380D02*
X8961428Y-12152380D01*
X9056666Y-12200000D01*
X9104285Y-12247619D01*
X9151904Y-12342857D01*
X9199523Y-12533333D01*
X9199523Y-12771428D01*
X9151904Y-12961904D01*
X9104285Y-13057142D01*
X9056666Y-13104761D01*
X8961428Y-13152380D01*
X8866190Y-13152380D01*
X8770952Y-13104761D01*
X8723333Y-13057142D01*
X8675714Y-12961904D01*
X8628095Y-12771428D01*
X8628095Y-12533333D01*
X8675714Y-12342857D01*
X8723333Y-12247619D01*
X8770952Y-12200000D01*
X8866190Y-12152380D01*
X10104285Y-12152380D02*
X9628095Y-12152380D01*
X9580476Y-12628571D01*
X9628095Y-12580952D01*
X9723333Y-12533333D01*
X9961428Y-12533333D01*
X10056666Y-12580952D01*
X10104285Y-12628571D01*
X10151904Y-12723809D01*
X10151904Y-12961904D01*
X10104285Y-13057142D01*
X10056666Y-13104761D01*
X9961428Y-13152380D01*
X9723333Y-13152380D01*
X9628095Y-13104761D01*
X9580476Y-13057142D01*
%TO.C,R03*%
X60142380Y-33662857D02*
X59666190Y-33996190D01*
X60142380Y-34234285D02*
X59142380Y-34234285D01*
X59142380Y-33853333D01*
X59190000Y-33758095D01*
X59237619Y-33710476D01*
X59332857Y-33662857D01*
X59475714Y-33662857D01*
X59570952Y-33710476D01*
X59618571Y-33758095D01*
X59666190Y-33853333D01*
X59666190Y-34234285D01*
X59142380Y-33043809D02*
X59142380Y-32948571D01*
X59190000Y-32853333D01*
X59237619Y-32805714D01*
X59332857Y-32758095D01*
X59523333Y-32710476D01*
X59761428Y-32710476D01*
X59951904Y-32758095D01*
X60047142Y-32805714D01*
X60094761Y-32853333D01*
X60142380Y-32948571D01*
X60142380Y-33043809D01*
X60094761Y-33139047D01*
X60047142Y-33186666D01*
X59951904Y-33234285D01*
X59761428Y-33281904D01*
X59523333Y-33281904D01*
X59332857Y-33234285D01*
X59237619Y-33186666D01*
X59190000Y-33139047D01*
X59142380Y-33043809D01*
X59142380Y-32377142D02*
X59142380Y-31758095D01*
X59523333Y-32091428D01*
X59523333Y-31948571D01*
X59570952Y-31853333D01*
X59618571Y-31805714D01*
X59713809Y-31758095D01*
X59951904Y-31758095D01*
X60047142Y-31805714D01*
X60094761Y-31853333D01*
X60142380Y-31948571D01*
X60142380Y-32234285D01*
X60094761Y-32329523D01*
X60047142Y-32377142D01*
%TO.C,DZ1*%
X38155714Y-5532380D02*
X38155714Y-4532380D01*
X38393809Y-4532380D01*
X38536666Y-4580000D01*
X38631904Y-4675238D01*
X38679523Y-4770476D01*
X38727142Y-4960952D01*
X38727142Y-5103809D01*
X38679523Y-5294285D01*
X38631904Y-5389523D01*
X38536666Y-5484761D01*
X38393809Y-5532380D01*
X38155714Y-5532380D01*
X39060476Y-4532380D02*
X39727142Y-4532380D01*
X39060476Y-5532380D01*
X39727142Y-5532380D01*
X40631904Y-5532380D02*
X40060476Y-5532380D01*
X40346190Y-5532380D02*
X40346190Y-4532380D01*
X40250952Y-4675238D01*
X40155714Y-4770476D01*
X40060476Y-4818095D01*
%TO.C,CP1*%
X55213333Y-29567142D02*
X55165714Y-29614761D01*
X55022857Y-29662380D01*
X54927619Y-29662380D01*
X54784761Y-29614761D01*
X54689523Y-29519523D01*
X54641904Y-29424285D01*
X54594285Y-29233809D01*
X54594285Y-29090952D01*
X54641904Y-28900476D01*
X54689523Y-28805238D01*
X54784761Y-28710000D01*
X54927619Y-28662380D01*
X55022857Y-28662380D01*
X55165714Y-28710000D01*
X55213333Y-28757619D01*
X55641904Y-29662380D02*
X55641904Y-28662380D01*
X56022857Y-28662380D01*
X56118095Y-28710000D01*
X56165714Y-28757619D01*
X56213333Y-28852857D01*
X56213333Y-28995714D01*
X56165714Y-29090952D01*
X56118095Y-29138571D01*
X56022857Y-29186190D01*
X55641904Y-29186190D01*
X57165714Y-29662380D02*
X56594285Y-29662380D01*
X56880000Y-29662380D02*
X56880000Y-28662380D01*
X56784761Y-28805238D01*
X56689523Y-28900476D01*
X56594285Y-28948095D01*
%TO.C,U01*%
X3841904Y-24852380D02*
X3841904Y-25661904D01*
X3889523Y-25757142D01*
X3937142Y-25804761D01*
X4032380Y-25852380D01*
X4222857Y-25852380D01*
X4318095Y-25804761D01*
X4365714Y-25757142D01*
X4413333Y-25661904D01*
X4413333Y-24852380D01*
X5080000Y-24852380D02*
X5175238Y-24852380D01*
X5270476Y-24900000D01*
X5318095Y-24947619D01*
X5365714Y-25042857D01*
X5413333Y-25233333D01*
X5413333Y-25471428D01*
X5365714Y-25661904D01*
X5318095Y-25757142D01*
X5270476Y-25804761D01*
X5175238Y-25852380D01*
X5080000Y-25852380D01*
X4984761Y-25804761D01*
X4937142Y-25757142D01*
X4889523Y-25661904D01*
X4841904Y-25471428D01*
X4841904Y-25233333D01*
X4889523Y-25042857D01*
X4937142Y-24947619D01*
X4984761Y-24900000D01*
X5080000Y-24852380D01*
X6365714Y-25852380D02*
X5794285Y-25852380D01*
X6080000Y-25852380D02*
X6080000Y-24852380D01*
X5984761Y-24995238D01*
X5889523Y-25090476D01*
X5794285Y-25138095D01*
D11*
%TO.C,P4*%
X101370000Y-39140000D02*
X101370000Y-42140000D01*
X109470000Y-42140000D02*
X109470000Y-39140000D01*
X101370000Y-39140000D02*
X109470000Y-39140000D01*
X109470000Y-42140000D02*
X101370000Y-42140000D01*
%TO.C,P3*%
X109470000Y-37060000D02*
X101370000Y-37060000D01*
X101370000Y-34060000D02*
X109470000Y-34060000D01*
X109470000Y-37060000D02*
X109470000Y-34060000D01*
X101370000Y-34060000D02*
X101370000Y-37060000D01*
%TO.C,P2*%
X101370000Y-28980000D02*
X101370000Y-31980000D01*
X109470000Y-31980000D02*
X109470000Y-28980000D01*
X101370000Y-28980000D02*
X109470000Y-28980000D01*
X109470000Y-31980000D02*
X101370000Y-31980000D01*
%TO.C,P1*%
X101370000Y-18820000D02*
X101370000Y-21820000D01*
X109470000Y-21820000D02*
X109470000Y-18820000D01*
X101370000Y-18820000D02*
X109470000Y-18820000D01*
X109470000Y-21820000D02*
X101370000Y-21820000D01*
%TO.C,PADSW2*%
X82480000Y-16510000D02*
G75*
G03*
X82480000Y-16510000I-1200000J0D01*
G01*
%TO.C,SW1*%
X88120000Y-11390000D02*
X88120000Y-21630000D01*
X89630000Y-14660000D02*
X88120000Y-14660000D01*
X84989000Y-11390000D02*
X84989000Y-21630000D01*
X89630000Y-18361000D02*
X88120000Y-18361000D01*
X89630000Y-11390000D02*
X84989000Y-11390000D01*
X89630000Y-21630000D02*
X84989000Y-21630000D01*
X89630000Y-11390000D02*
X89630000Y-21630000D01*
%TO.C,E*%
X74140000Y-30480000D02*
G75*
G03*
X74140000Y-30480000I-1750000J0D01*
G01*
%TO.C,D*%
X84300000Y-30480000D02*
G75*
G03*
X84300000Y-30480000I-1750000J0D01*
G01*
%TO.C,PAD2J1*%
X69530000Y-34290000D02*
G75*
G03*
X69530000Y-34290000I-950000J0D01*
G01*
%TO.C,PAD1J1*%
X79690000Y-34290000D02*
G75*
G03*
X79690000Y-34290000I-950000J0D01*
G01*
%TO.C,PADSW2*%
X82480000Y-39370000D02*
G75*
G03*
X82480000Y-39370000I-1200000J0D01*
G01*
%TO.C,SW2*%
X88120000Y-34250000D02*
X88120000Y-44490000D01*
X89630000Y-37520000D02*
X88120000Y-37520000D01*
X84989000Y-34250000D02*
X84989000Y-44490000D01*
X89630000Y-41221000D02*
X88120000Y-41221000D01*
X89630000Y-34250000D02*
X84989000Y-34250000D01*
X89630000Y-44490000D02*
X84989000Y-44490000D01*
X89630000Y-34250000D02*
X89630000Y-44490000D01*
%TO.C,CRF2*%
X74850000Y-18130000D02*
X80090000Y-18130000D01*
X74850000Y-4890000D02*
X80090000Y-4890000D01*
X74850000Y-18130000D02*
X74850000Y-4890000D01*
X80090000Y-18130000D02*
X80090000Y-4890000D01*
%TO.C,VAR1*%
X65960000Y-51880000D02*
X71200000Y-51880000D01*
X65960000Y-51880000D02*
X65960000Y-37140000D01*
X65960000Y-37140000D02*
X71200000Y-37140000D01*
X71200000Y-51880000D02*
X71200000Y-37140000D01*
%TO.C,CRF3*%
X77550000Y-48610000D02*
X77550000Y-35370000D01*
X72310000Y-48610000D02*
X72310000Y-35370000D01*
X72310000Y-35370000D02*
X77550000Y-35370000D01*
X72310000Y-48610000D02*
X77550000Y-48610000D01*
%TO.C,R11*%
X14700000Y-19150000D02*
X14700000Y-16410000D01*
X14700000Y-16410000D02*
X8160000Y-16410000D01*
X15470000Y-17780000D02*
X14700000Y-17780000D01*
X8160000Y-19150000D02*
X14700000Y-19150000D01*
X8160000Y-16410000D02*
X8160000Y-19150000D01*
X7390000Y-17780000D02*
X8160000Y-17780000D01*
%TO.C,R01*%
X45640000Y-28960000D02*
X45640000Y-44700000D01*
X48260000Y-28110000D02*
X48260000Y-28960000D01*
X50880000Y-28960000D02*
X45640000Y-28960000D01*
X50880000Y-44700000D02*
X50880000Y-28960000D01*
X45640000Y-44700000D02*
X50880000Y-44700000D01*
X48260000Y-45550000D02*
X48260000Y-44700000D01*
%TO.C,R02*%
X50800000Y-12470000D02*
X50800000Y-13240000D01*
X49430000Y-13240000D02*
X49430000Y-19780000D01*
X52170000Y-13240000D02*
X49430000Y-13240000D01*
X52170000Y-19780000D02*
X52170000Y-13240000D01*
X49430000Y-19780000D02*
X52170000Y-19780000D01*
X50800000Y-20550000D02*
X50800000Y-19780000D01*
%TO.C,D02*%
X26490000Y-21790000D02*
X31930000Y-21790000D01*
X27390000Y-18850000D02*
X27390000Y-21790000D01*
X25270000Y-20320000D02*
X26490000Y-20320000D01*
X27270000Y-18850000D02*
X27270000Y-21790000D01*
X31930000Y-21790000D02*
X31930000Y-18850000D01*
X33150000Y-20320000D02*
X31930000Y-20320000D01*
X31930000Y-18850000D02*
X26490000Y-18850000D01*
X27510000Y-18850000D02*
X27510000Y-21790000D01*
X26490000Y-18850000D02*
X26490000Y-21790000D01*
%TO.C,CN1*%
X6350000Y-42670000D02*
X6350000Y-41660000D01*
X12800000Y-36720000D02*
X12800000Y-42770000D01*
X5000000Y-36720000D02*
X12800000Y-36720000D01*
X5000000Y-42770000D02*
X5000000Y-36720000D01*
X6350000Y-41660000D02*
X11430000Y-41660000D01*
X12800000Y-42770000D02*
X5000000Y-42770000D01*
X11430000Y-41660000D02*
X11430000Y-42670000D01*
%TO.C,CE1*%
X54479000Y-8620000D02*
X54479000Y-6120000D01*
X56520000Y-9160000D02*
X56520000Y-1000000D01*
X55319000Y-8982000D02*
X55319000Y-6120000D01*
X54839000Y-4040000D02*
X54839000Y-1358000D01*
X53759000Y-4040000D02*
X53759000Y-2061000D01*
X53719000Y-8063000D02*
X53719000Y-6120000D01*
X55319000Y-4040000D02*
X55319000Y-1178000D01*
X54159000Y-4040000D02*
X54159000Y-1742000D01*
X53999000Y-4040000D02*
X53999000Y-1860000D01*
X52519000Y-6028000D02*
X52519000Y-4132000D01*
X55159000Y-4040000D02*
X55159000Y-1230000D01*
X52879000Y-6970000D02*
X52879000Y-3190000D01*
X55279000Y-4040000D02*
X55279000Y-1191000D01*
X54959000Y-8854000D02*
X54959000Y-6120000D01*
X54079000Y-4040000D02*
X54079000Y-1800000D01*
X55079000Y-4040000D02*
X55079000Y-1259000D01*
X54879000Y-4040000D02*
X54879000Y-1340000D01*
X53239000Y-7534000D02*
X53239000Y-2626000D01*
X54599000Y-4040000D02*
X54599000Y-1474000D01*
X55039000Y-8885000D02*
X55039000Y-6120000D01*
X52959000Y-7114000D02*
X52959000Y-3046000D01*
X53639000Y-4040000D02*
X53639000Y-2173000D01*
X54319000Y-8524000D02*
X54319000Y-6120000D01*
X56120000Y-9141000D02*
X56120000Y-1019000D01*
X53719000Y-4040000D02*
X53719000Y-2097000D01*
X55239000Y-4040000D02*
X55239000Y-1203000D01*
X53759000Y-8099000D02*
X53759000Y-6120000D01*
X54759000Y-4040000D02*
X54759000Y-1394000D01*
X56040000Y-9132000D02*
X56040000Y-1028000D01*
X55199000Y-8943000D02*
X55199000Y-6120000D01*
X55119000Y-8915000D02*
X55119000Y-6120000D01*
X54439000Y-4040000D02*
X54439000Y-1563000D01*
X54799000Y-8784000D02*
X54799000Y-6120000D01*
X56280000Y-9154000D02*
X56280000Y-1006000D01*
X54359000Y-8549000D02*
X54359000Y-6120000D01*
X54559000Y-4040000D02*
X54559000Y-1496000D01*
X54799000Y-4040000D02*
X54799000Y-1376000D01*
X54399000Y-8573000D02*
X54399000Y-6120000D01*
X55159000Y-8930000D02*
X55159000Y-6120000D01*
X54439000Y-8597000D02*
X54439000Y-6120000D01*
X54999000Y-8870000D02*
X54999000Y-6120000D01*
X55759000Y-9090000D02*
X55759000Y-1070000D01*
X54919000Y-4040000D02*
X54919000Y-1323000D01*
X55399000Y-9005000D02*
X55399000Y-6120000D01*
X56440000Y-9160000D02*
X56440000Y-1000000D01*
X54039000Y-8330000D02*
X54039000Y-6120000D01*
X54639000Y-4040000D02*
X54639000Y-1453000D01*
X55679000Y-9074000D02*
X55679000Y-1086000D01*
X54879000Y-8820000D02*
X54879000Y-6120000D01*
X54279000Y-8498000D02*
X54279000Y-6120000D01*
X54559000Y-8664000D02*
X54559000Y-6120000D01*
X54159000Y-8418000D02*
X54159000Y-6120000D01*
X54839000Y-8802000D02*
X54839000Y-6120000D01*
X52599000Y-6309000D02*
X52599000Y-3851000D01*
X53919000Y-8236000D02*
X53919000Y-6120000D01*
X55599000Y-9056000D02*
X55599000Y-6120000D01*
X53359000Y-7684000D02*
X53359000Y-2476000D01*
X54119000Y-8389000D02*
X54119000Y-6120000D01*
X55799000Y-9097000D02*
X55799000Y-1063000D01*
X53679000Y-4040000D02*
X53679000Y-2135000D01*
X52439000Y-5613000D02*
X52439000Y-4547000D01*
X55479000Y-9027000D02*
X55479000Y-6120000D01*
X54079000Y-8360000D02*
X54079000Y-6120000D01*
X52919000Y-7044000D02*
X52919000Y-3116000D01*
X54239000Y-4040000D02*
X54239000Y-1688000D01*
X55599000Y-4040000D02*
X55599000Y-1104000D01*
X55359000Y-4040000D02*
X55359000Y-1166000D01*
X55559000Y-4040000D02*
X55559000Y-1113000D01*
X55039000Y-4040000D02*
X55039000Y-1275000D01*
X53279000Y-7585000D02*
X53279000Y-2575000D01*
X53799000Y-4040000D02*
X53799000Y-2025000D01*
X54359000Y-4040000D02*
X54359000Y-1611000D01*
X53159000Y-7425000D02*
X53159000Y-2735000D01*
X52759000Y-6725000D02*
X52759000Y-3435000D01*
X55719000Y-9082000D02*
X55719000Y-1078000D01*
X52639000Y-6426000D02*
X52639000Y-3734000D01*
X56360000Y-9157000D02*
X56360000Y-1003000D01*
X54639000Y-8707000D02*
X54639000Y-6120000D01*
X53199000Y-7480000D02*
X53199000Y-2680000D01*
X55519000Y-4040000D02*
X55519000Y-1123000D01*
X55519000Y-9037000D02*
X55519000Y-6120000D01*
X52479000Y-5848000D02*
X52479000Y-4312000D01*
X53399000Y-7731000D02*
X53399000Y-2429000D01*
X53959000Y-8269000D02*
X53959000Y-6120000D01*
X55639000Y-9065000D02*
X55639000Y-6120000D01*
X54679000Y-4040000D02*
X54679000Y-1433000D01*
X53799000Y-8135000D02*
X53799000Y-6120000D01*
X55559000Y-9047000D02*
X55559000Y-6120000D01*
X52999000Y-7182000D02*
X52999000Y-2978000D01*
X54679000Y-8727000D02*
X54679000Y-6120000D01*
X60529698Y-7795000D02*
X60529698Y-6995000D01*
X54239000Y-8472000D02*
X54239000Y-6120000D01*
X53519000Y-7864000D02*
X53519000Y-2296000D01*
X52679000Y-6533000D02*
X52679000Y-3627000D01*
X54519000Y-8642000D02*
X54519000Y-6120000D01*
X54319000Y-4040000D02*
X54319000Y-1636000D01*
X52839000Y-6893000D02*
X52839000Y-3267000D01*
X55840000Y-9104000D02*
X55840000Y-1056000D01*
X53879000Y-4040000D02*
X53879000Y-1956000D01*
X55920000Y-9117000D02*
X55920000Y-1043000D01*
X52799000Y-6811000D02*
X52799000Y-3349000D01*
X53439000Y-7777000D02*
X53439000Y-2383000D01*
X55119000Y-4040000D02*
X55119000Y-1245000D01*
X55479000Y-4040000D02*
X55479000Y-1133000D01*
X53919000Y-4040000D02*
X53919000Y-1924000D01*
X53839000Y-4040000D02*
X53839000Y-1990000D01*
X53839000Y-8170000D02*
X53839000Y-6120000D01*
X53599000Y-4040000D02*
X53599000Y-2213000D01*
X55359000Y-8994000D02*
X55359000Y-6120000D01*
X55639000Y-4040000D02*
X55639000Y-1095000D01*
X53879000Y-8204000D02*
X53879000Y-6120000D01*
X54039000Y-4040000D02*
X54039000Y-1830000D01*
X56400000Y-9159000D02*
X56400000Y-1001000D01*
X53039000Y-7246000D02*
X53039000Y-2914000D01*
X53639000Y-7987000D02*
X53639000Y-6120000D01*
X53679000Y-8025000D02*
X53679000Y-6120000D01*
X54199000Y-4040000D02*
X54199000Y-1715000D01*
X55880000Y-9110000D02*
X55880000Y-1050000D01*
X55439000Y-9016000D02*
X55439000Y-6120000D01*
X52719000Y-6632000D02*
X52719000Y-3528000D01*
X53559000Y-7906000D02*
X53559000Y-2254000D01*
X55399000Y-4040000D02*
X55399000Y-1155000D01*
X53319000Y-7636000D02*
X53319000Y-2524000D01*
X56000000Y-9128000D02*
X56000000Y-1032000D01*
X52559000Y-6178000D02*
X52559000Y-3982000D01*
X54119000Y-4040000D02*
X54119000Y-1771000D01*
X55079000Y-8901000D02*
X55079000Y-6120000D01*
X54519000Y-4040000D02*
X54519000Y-1518000D01*
X54479000Y-4040000D02*
X54479000Y-1540000D01*
X53999000Y-8300000D02*
X53999000Y-6120000D01*
X56320000Y-9156000D02*
X56320000Y-1004000D01*
X55960000Y-9122000D02*
X55960000Y-1038000D01*
X56200000Y-9148000D02*
X56200000Y-1012000D01*
X54279000Y-4040000D02*
X54279000Y-1662000D01*
X54399000Y-4040000D02*
X54399000Y-1587000D01*
X54719000Y-8746000D02*
X54719000Y-6120000D01*
X54719000Y-4040000D02*
X54719000Y-1414000D01*
X55279000Y-8969000D02*
X55279000Y-6120000D01*
X56240000Y-9151000D02*
X56240000Y-1009000D01*
X56080000Y-9137000D02*
X56080000Y-1023000D01*
X53599000Y-7947000D02*
X53599000Y-6120000D01*
X54199000Y-8445000D02*
X54199000Y-6120000D01*
X54599000Y-8686000D02*
X54599000Y-6120000D01*
X54759000Y-8766000D02*
X54759000Y-6120000D01*
X54959000Y-4040000D02*
X54959000Y-1306000D01*
X53959000Y-4040000D02*
X53959000Y-1891000D01*
X55439000Y-4040000D02*
X55439000Y-1144000D01*
X53119000Y-7367000D02*
X53119000Y-2793000D01*
X56160000Y-9145000D02*
X56160000Y-1015000D01*
X55199000Y-4040000D02*
X55199000Y-1217000D01*
X56480000Y-9160000D02*
X56480000Y-1000000D01*
X54919000Y-8837000D02*
X54919000Y-6120000D01*
X53479000Y-7821000D02*
X53479000Y-2339000D01*
X55239000Y-8957000D02*
X55239000Y-6120000D01*
X54999000Y-4040000D02*
X54999000Y-1290000D01*
X53079000Y-7308000D02*
X53079000Y-2852000D01*
X60929698Y-7395000D02*
X60129698Y-7395000D01*
X60640000Y-5080000D02*
G75*
G03*
X60640000Y-5080000I-4120000J0D01*
G01*
%TO.C,MOC2*%
X34000000Y-48320000D02*
X34000000Y-40580000D01*
X34000000Y-40580000D02*
X32750000Y-40580000D01*
X29500000Y-48320000D02*
X34000000Y-48320000D01*
X30750000Y-40580000D02*
X29500000Y-40580000D01*
X29500000Y-40580000D02*
X29500000Y-48320000D01*
X30750000Y-40580000D02*
G75*
G03*
X32750000Y-40580000I1000000J0D01*
G01*
%TO.C,D01*%
X26490000Y-10360000D02*
X31930000Y-10360000D01*
X27390000Y-7420000D02*
X27390000Y-10360000D01*
X25270000Y-8890000D02*
X26490000Y-8890000D01*
X27270000Y-7420000D02*
X27270000Y-10360000D01*
X31930000Y-10360000D02*
X31930000Y-7420000D01*
X33150000Y-8890000D02*
X31930000Y-8890000D01*
X31930000Y-7420000D02*
X26490000Y-7420000D01*
X27510000Y-7420000D02*
X27510000Y-10360000D01*
X26490000Y-7420000D02*
X26490000Y-10360000D01*
%TO.C,MOC1*%
X29484989Y-30435011D02*
X29484989Y-38175011D01*
X30734989Y-30435011D02*
X29484989Y-30435011D01*
X33984989Y-30435011D02*
X32734989Y-30435011D01*
X33984989Y-38175011D02*
X33984989Y-30435011D01*
X29484989Y-38175011D02*
X33984989Y-38175011D01*
X30734989Y-30435011D02*
G75*
G03*
X32734989Y-30435011I1000000J0D01*
G01*
%TO.C,D06*%
X14150000Y-18850000D02*
X8710000Y-18850000D01*
X7490000Y-20320000D02*
X8710000Y-20320000D01*
X8710000Y-21790000D02*
X14150000Y-21790000D01*
X14150000Y-21790000D02*
X14150000Y-18850000D01*
X13250000Y-21790000D02*
X13250000Y-18850000D01*
X15370000Y-20320000D02*
X14150000Y-20320000D01*
X13130000Y-21790000D02*
X13130000Y-18850000D01*
X8710000Y-18850000D02*
X8710000Y-21790000D01*
X13370000Y-21790000D02*
X13370000Y-18850000D01*
%TO.C,R06*%
X25170000Y-15240000D02*
X25940000Y-15240000D01*
X25940000Y-13870000D02*
X25940000Y-16610000D01*
X25940000Y-16610000D02*
X32480000Y-16610000D01*
X33250000Y-15240000D02*
X32480000Y-15240000D01*
X32480000Y-13870000D02*
X25940000Y-13870000D01*
X32480000Y-16610000D02*
X32480000Y-13870000D01*
%TO.C,D03*%
X31930000Y-9960000D02*
X26490000Y-9960000D01*
X31030000Y-12900000D02*
X31030000Y-9960000D01*
X33150000Y-11430000D02*
X31930000Y-11430000D01*
X31150000Y-12900000D02*
X31150000Y-9960000D01*
X26490000Y-9960000D02*
X26490000Y-12900000D01*
X25270000Y-11430000D02*
X26490000Y-11430000D01*
X26490000Y-12900000D02*
X31930000Y-12900000D01*
X30910000Y-12900000D02*
X30910000Y-9960000D01*
X31930000Y-12900000D02*
X31930000Y-9960000D01*
%TO.C,D04*%
X26490000Y-19250000D02*
X31930000Y-19250000D01*
X27390000Y-16310000D02*
X27390000Y-19250000D01*
X25270000Y-17780000D02*
X26490000Y-17780000D01*
X27270000Y-16310000D02*
X27270000Y-19250000D01*
X31930000Y-19250000D02*
X31930000Y-16310000D01*
X33150000Y-17780000D02*
X31930000Y-17780000D01*
X31930000Y-16310000D02*
X26490000Y-16310000D01*
X27510000Y-16310000D02*
X27510000Y-19250000D01*
X26490000Y-16310000D02*
X26490000Y-19250000D01*
%TO.C,CRF1*%
X63210000Y-27520000D02*
X73950000Y-27520000D01*
X63210000Y-27520000D02*
X63210000Y-780000D01*
X63210000Y-780000D02*
X73950000Y-780000D01*
X73950000Y-27520000D02*
X73950000Y-780000D01*
%TO.C,D05*%
X19230000Y-11230000D02*
X13790000Y-11230000D01*
X18330000Y-14170000D02*
X18330000Y-11230000D01*
X20450000Y-12700000D02*
X19230000Y-12700000D01*
X18450000Y-14170000D02*
X18450000Y-11230000D01*
X13790000Y-11230000D02*
X13790000Y-14170000D01*
X12570000Y-12700000D02*
X13790000Y-12700000D01*
X13790000Y-14170000D02*
X19230000Y-14170000D01*
X18210000Y-14170000D02*
X18210000Y-11230000D01*
X19230000Y-14170000D02*
X19230000Y-11230000D01*
%TO.C,R03*%
X66120000Y-47240000D02*
X66120000Y-31500000D01*
X60880000Y-31500000D02*
X60880000Y-47240000D01*
X60880000Y-47240000D02*
X66120000Y-47240000D01*
X63500000Y-48090000D02*
X63500000Y-47240000D01*
X63500000Y-30650000D02*
X63500000Y-31500000D01*
X66120000Y-31500000D02*
X60880000Y-31500000D01*
%TO.C,DZ1*%
X28760000Y-6500000D02*
X32200000Y-6500000D01*
X29360000Y-3660000D02*
X29360000Y-6500000D01*
X32200000Y-6500000D02*
X32200000Y-3660000D01*
X25370000Y-5080000D02*
X28760000Y-5080000D01*
X29240000Y-3660000D02*
X29240000Y-6500000D01*
X28760000Y-3660000D02*
X28760000Y-6500000D01*
X32200000Y-3660000D02*
X28760000Y-3660000D01*
X29480000Y-3660000D02*
X29480000Y-6500000D01*
X35590000Y-5080000D02*
X32200000Y-5080000D01*
%TO.C,CP1*%
X56984000Y-27540000D02*
X59500000Y-27540000D01*
X52260000Y-27540000D02*
X54776000Y-27540000D01*
X52260000Y-10800000D02*
X54776000Y-10800000D01*
X56984000Y-10800000D02*
X59500000Y-10800000D01*
X59500000Y-27540000D02*
X59500000Y-10800000D01*
X52260000Y-27540000D02*
X52260000Y-10800000D01*
%TO.C,U01*%
X17840000Y-26940000D02*
X17840000Y-25690000D01*
X7560000Y-30190000D02*
X17840000Y-30190000D01*
X17840000Y-30190000D02*
X17840000Y-28940000D01*
X17840000Y-25690000D02*
X7560000Y-25690000D01*
X7560000Y-25690000D02*
X7560000Y-30190000D01*
X17840000Y-26940000D02*
G75*
G03*
X17840000Y-28940000I0J-1000000D01*
G01*
%TD*%
M02*
