%TF.GenerationSoftware,KiCad,Pcbnew,(6.0.6)*%
%TF.CreationDate,2022-08-31T19:42:32-05:00*%
%TF.ProjectId,Lavadora,4c617661-646f-4726-912e-6b696361645f,rev?*%
%TF.SameCoordinates,Original*%
%TF.FileFunction,Paste,Bot*%
%TF.FilePolarity,Positive*%
%FSLAX46Y46*%
G04 Gerber Fmt 4.6, Leading zero omitted, Abs format (unit mm)*
G04 Created by KiCad (PCBNEW (6.0.6)) date 2022-08-31 19:42:32*
%MOMM*%
%LPD*%
G01*
G04 APERTURE LIST*
G04 Aperture macros list*
%AMRoundRect*
0 Rectangle with rounded corners*
0 $1 Rounding radius*
0 $2 $3 $4 $5 $6 $7 $8 $9 X,Y pos of 4 corners*
0 Add a 4 corners polygon primitive as box body*
4,1,4,$2,$3,$4,$5,$6,$7,$8,$9,$2,$3,0*
0 Add four circle primitives for the rounded corners*
1,1,$1+$1,$2,$3*
1,1,$1+$1,$4,$5*
1,1,$1+$1,$6,$7*
1,1,$1+$1,$8,$9*
0 Add four rect primitives between the rounded corners*
20,1,$1+$1,$2,$3,$4,$5,0*
20,1,$1+$1,$4,$5,$6,$7,0*
20,1,$1+$1,$6,$7,$8,$9,0*
20,1,$1+$1,$8,$9,$2,$3,0*%
G04 Aperture macros list end*
%ADD10RoundRect,0.249999X-1.075001X0.450001X-1.075001X-0.450001X1.075001X-0.450001X1.075001X0.450001X0*%
%ADD11RoundRect,0.249999X0.450001X1.075001X-0.450001X1.075001X-0.450001X-1.075001X0.450001X-1.075001X0*%
%ADD12RoundRect,0.250000X0.475000X-0.337500X0.475000X0.337500X-0.475000X0.337500X-0.475000X-0.337500X0*%
%ADD13R,1.220000X0.650000*%
%ADD14RoundRect,0.250000X0.450000X-0.350000X0.450000X0.350000X-0.450000X0.350000X-0.450000X-0.350000X0*%
G04 APERTURE END LIST*
D10*
%TO.C,R04*%
X64770000Y-25260000D03*
X64770000Y-20460000D03*
%TD*%
D11*
%TO.C,R13*%
X50660000Y-41910000D03*
X45860000Y-41910000D03*
%TD*%
%TO.C,R08*%
X45860000Y-34290000D03*
X50660000Y-34290000D03*
%TD*%
D12*
%TO.C,C02*%
X10160000Y-6117500D03*
X10160000Y-4042500D03*
%TD*%
%TO.C,C03*%
X17780000Y-6117500D03*
X17780000Y-4042500D03*
%TD*%
%TO.C,C07*%
X13970000Y-28977500D03*
X13970000Y-26902500D03*
%TD*%
D13*
%TO.C,Q01*%
X6390000Y-4130000D03*
X6390000Y-6030000D03*
X3770000Y-5080000D03*
%TD*%
D14*
%TO.C,R16*%
X15240000Y-41640000D03*
X15240000Y-39640000D03*
%TD*%
D12*
%TO.C,C01*%
X16510000Y-28977500D03*
X16510000Y-26902500D03*
%TD*%
%TO.C,C04*%
X6350000Y-28977500D03*
X6350000Y-26902500D03*
%TD*%
D14*
%TO.C,R14*%
X17780000Y-41640000D03*
X17780000Y-39640000D03*
%TD*%
%TO.C,R12*%
X22860000Y-41640000D03*
X22860000Y-39640000D03*
%TD*%
%TO.C,R07*%
X5080000Y-11700000D03*
X5080000Y-13700000D03*
%TD*%
D12*
%TO.C,C05*%
X11430000Y-28977500D03*
X11430000Y-26902500D03*
%TD*%
D14*
%TO.C,R09*%
X12700000Y-6080000D03*
X12700000Y-4080000D03*
%TD*%
%TO.C,R15*%
X5080000Y-45450000D03*
X5080000Y-43450000D03*
%TD*%
%TO.C,R10*%
X15240000Y-6080000D03*
X15240000Y-4080000D03*
%TD*%
%TO.C,R17*%
X8890000Y-45450000D03*
X8890000Y-43450000D03*
%TD*%
D12*
%TO.C,C06*%
X8890000Y-28977500D03*
X8890000Y-26902500D03*
%TD*%
D14*
%TO.C,R05*%
X22860000Y-32750000D03*
X22860000Y-30750000D03*
%TD*%
M02*
