%TF.GenerationSoftware,KiCad,Pcbnew,(6.0.6)*%
%TF.CreationDate,2022-08-15T20:08:00-05:00*%
%TF.ProjectId,RelayHK4100F,52656c61-7948-44b3-9431-3030462e6b69,rev?*%
%TF.SameCoordinates,Original*%
%TF.FileFunction,Copper,L2,Bot*%
%TF.FilePolarity,Positive*%
%FSLAX46Y46*%
G04 Gerber Fmt 4.6, Leading zero omitted, Abs format (unit mm)*
G04 Created by KiCad (PCBNEW (6.0.6)) date 2022-08-15 20:08:00*
%MOMM*%
%LPD*%
G01*
G04 APERTURE LIST*
G04 Aperture macros list*
%AMRoundRect*
0 Rectangle with rounded corners*
0 $1 Rounding radius*
0 $2 $3 $4 $5 $6 $7 $8 $9 X,Y pos of 4 corners*
0 Add a 4 corners polygon primitive as box body*
4,1,4,$2,$3,$4,$5,$6,$7,$8,$9,$2,$3,0*
0 Add four circle primitives for the rounded corners*
1,1,$1+$1,$2,$3*
1,1,$1+$1,$4,$5*
1,1,$1+$1,$6,$7*
1,1,$1+$1,$8,$9*
0 Add four rect primitives between the rounded corners*
20,1,$1+$1,$2,$3,$4,$5,0*
20,1,$1+$1,$4,$5,$6,$7,0*
20,1,$1+$1,$6,$7,$8,$9,0*
20,1,$1+$1,$8,$9,$2,$3,0*%
G04 Aperture macros list end*
%ADD10C,0.300000*%
%TA.AperFunction,NonConductor*%
%ADD11C,0.300000*%
%TD*%
%TA.AperFunction,ComponentPad*%
%ADD12O,1.600000X2.300000*%
%TD*%
%TA.AperFunction,ComponentPad*%
%ADD13R,2.200000X2.200000*%
%TD*%
%TA.AperFunction,ComponentPad*%
%ADD14O,2.200000X2.200000*%
%TD*%
%TA.AperFunction,ComponentPad*%
%ADD15RoundRect,0.250000X-0.845000X0.620000X-0.845000X-0.620000X0.845000X-0.620000X0.845000X0.620000X0*%
%TD*%
%TA.AperFunction,ComponentPad*%
%ADD16O,2.190000X1.740000*%
%TD*%
%TA.AperFunction,Conductor*%
%ADD17C,0.500000*%
%TD*%
G04 APERTURE END LIST*
D10*
D11*
X128662857Y-83228571D02*
X128662857Y-81728571D01*
X127805714Y-83228571D02*
X128448571Y-82371428D01*
X127805714Y-81728571D02*
X128662857Y-82585714D01*
D12*
%TO.P,K1,5*%
%TO.N,/DN*%
X120015000Y-82550000D03*
%TO.P,K1,6*%
%TO.N,/NO*%
X117475000Y-82550000D03*
%TO.P,K1,7*%
%TO.N,/NC*%
X117475000Y-90170000D03*
%TO.P,K1,8*%
%TO.N,/DP*%
X120015000Y-90170000D03*
%TO.P,K1,12*%
%TO.N,/COM*%
X130175000Y-82550000D03*
X130175000Y-90170000D03*
%TD*%
D13*
%TO.P,D1,1,K*%
%TO.N,/DN*%
X114300000Y-81280000D03*
D14*
%TO.P,D1,2,A*%
%TO.N,/DP*%
X114300000Y-91440000D03*
%TD*%
D15*
%TO.P,J1,1,Pin_1*%
%TO.N,/NO*%
X139700000Y-81280000D03*
D16*
%TO.P,J1,2,Pin_2*%
%TO.N,/COM*%
X139700000Y-83820000D03*
%TO.P,J1,3,Pin_3*%
%TO.N,/DN*%
X139700000Y-86360000D03*
%TO.P,J1,4,Pin_4*%
%TO.N,/DP*%
X139700000Y-88900000D03*
%TO.P,J1,5,Pin_5*%
%TO.N,/NC*%
X139700000Y-91440000D03*
%TD*%
D17*
%TO.N,/DP*%
X132080000Y-88900000D02*
X139700000Y-88900000D01*
X115570000Y-87630000D02*
X120650000Y-87630000D01*
X114300000Y-91440000D02*
X114300000Y-88900000D01*
X114300000Y-88900000D02*
X115570000Y-87630000D01*
X120650000Y-87630000D02*
X130810000Y-87630000D01*
X120015000Y-90170000D02*
X120015000Y-87630000D01*
X130810000Y-87630000D02*
X132080000Y-88900000D01*
%TO.N,/DN*%
X120015000Y-82550000D02*
X120015000Y-85090000D01*
X114300000Y-81280000D02*
X114300000Y-83820000D01*
X130810000Y-85090000D02*
X120650000Y-85090000D01*
X135890000Y-83820000D02*
X132080000Y-83820000D01*
X115570000Y-85090000D02*
X120650000Y-85090000D01*
X139700000Y-86360000D02*
X138430000Y-86360000D01*
X132080000Y-83820000D02*
X130810000Y-85090000D01*
X138430000Y-86360000D02*
X135890000Y-83820000D01*
X114300000Y-83820000D02*
X115570000Y-85090000D01*
%TO.N,/NO*%
X117475000Y-81280000D02*
X117475000Y-82550000D01*
X138430000Y-80010000D02*
X118745000Y-80010000D01*
X118745000Y-80010000D02*
X117475000Y-81280000D01*
X139700000Y-81280000D02*
X138430000Y-80010000D01*
%TO.N,/COM*%
X137160000Y-82550000D02*
X130175000Y-82550000D01*
X139700000Y-83820000D02*
X138430000Y-83820000D01*
X138430000Y-83820000D02*
X137160000Y-82550000D01*
%TO.N,/NC*%
X117475000Y-91440000D02*
X117475000Y-90170000D01*
X139700000Y-91440000D02*
X138430000Y-92710000D01*
X138430000Y-92710000D02*
X118745000Y-92710000D01*
X118745000Y-92710000D02*
X117475000Y-91440000D01*
%TD*%
M02*
